;TYPE=PLATED
;Layer: PTH_Through
;EasyEDA Pro v3.2.148, 2026-08-11 11:52:59
;Gerber Generator version 0.3
M48
METRIC,LZ,0000.00000
;Hole size 1 = 0.30500 METRIC
T01C0.30500
;Hole size 2 = 1.00000 METRIC
T02C1.00000
;Hole size 3 = 1.04999 METRIC
T03C1.04999
;Hole size 4 = 1.10002 METRIC
T04C1.10002
%
G05
G90
T01
X-11.938Y-2.667
X0.0Y2.921
X-17.907Y4.064
X-17.907Y2.921
T02
X-41.91Y8.00097
X-39.37Y8.00097
X-36.83Y8.00097
X-34.29Y8.00097
X-31.75Y8.00097
X-29.21Y8.00097
X-26.67Y8.00097
X-24.13Y8.00097
X-21.59Y8.00097
X-21.59Y-7.23897
X-24.13Y-7.23897
X-26.67Y-7.23897
X-29.21Y-7.23897
X-31.75Y-7.23897
X-34.29Y-7.23897
X-36.83Y-7.23897
X-39.37Y-7.23897
X-41.91Y-7.23897
T03
X3.75001Y-6.477
X1.24998Y-6.477
X-1.25001Y-6.477
X-3.75001Y-6.477
X35.37301Y-6.477
X32.87298Y-6.477
X30.37299Y-6.477
X27.87299Y-6.477
T04
X43.307Y-7.62
X43.307Y-5.08
X43.307Y-2.54
X43.307Y0.0
X43.307Y2.54
X43.307Y5.08
X43.307Y7.62
X8.128Y7.62
X8.128Y5.08
X8.128Y2.54
X8.128Y0.0
X8.128Y-2.54
X8.128Y-5.08
X8.128Y-7.62
X-8.128Y-7.62
X-8.128Y-5.08
X-8.128Y-2.54
X-8.128Y0.0
X-8.128Y2.54
X-8.128Y5.08
X-8.128Y7.62
M30