G04 Layer: TopSolderMaskLayer*
G04 EasyEDA Pro v3.2.148, 2026-08-11 11:52:59*
G04 Gerber Generator version 0.3*
G04 Scale: 100 percent, Rotated: No, Reflected: No*
G04 Dimensions in millimeters*
G04 Leading zeros omitted, absolute positions, 4 integers and 5 decimals*
G04 Generated by one-click*
G04 Object Configs: Pad,Via,Track,Text,Image,Dimension,BoardOutline,BoardCutout,CopperFilled,SolidRegion,FPCStiffener,Line,PlaneZone,ComponentProperty,ComponentSilkscreen,TearDrop*
G04 Layer Configs: 1,2,3,4,5,6,7,8,9,10,11,13,14,56*
G04 Copper Areas: 0*
%FSLAX45Y45*%
%MOMM*%
%AMRoundRect*1,1,$1,$2,$3*1,1,$1,$4,$5*1,1,$1,0-$2,0-$3*1,1,$1,0-$4,0-$5*20,1,$1,$2,$3,$4,$5,0*20,1,$1,$4,$5,0-$2,0-$3,0*20,1,$1,0-$2,0-$3,0-$4,0-$5,0*20,1,$1,0-$4,0-$5,$2,$3,0*4,1,4,$2,$3,$4,$5,0-$2,0-$3,0-$4,0-$5,$2,$3,0*%
%ADD10C,1.80002*%
%ADD11RoundRect,0.10003X-0.85X0.85X0.85X0.85*%
%ADD12RoundRect,0.1016X-0.85X-0.85X-0.85X0.85*%
%ADD13C,1.8016*%
%ADD14C,1.7016*%
%ADD15C,0.0820*%
G75*


G04 Pad Start*
G54D10*
G01X375011Y-647710D03*
G01X124998Y-647710D03*
G01X-124988Y-647710D03*
G54D11*
G01X-375001Y-647710D03*
G54D10*
G01X3537311Y-647710D03*
G01X3287298Y-647710D03*
G01X3037312Y-647710D03*
G54D11*
G01X2787299Y-647710D03*
G54D12*
G01X4330700Y-762000D03*
G54D13*
G01X4330700Y-508000D03*
G01X4330700Y-254000D03*
G01X4330700Y0D03*
G01X4330700Y254000D03*
G01X4330700Y508000D03*
G01X4330700Y762000D03*
G54D14*
G01X-4191000Y800100D03*
G01X-3937000Y800100D03*
G01X-3683000Y800100D03*
G01X-3429000Y800100D03*
G01X-3175000Y800100D03*
G01X-2921000Y800100D03*
G01X-2667000Y800100D03*
G01X-2413000Y800100D03*
G01X-2159000Y800100D03*
G01X-2159000Y-723900D03*
G01X-2413000Y-723900D03*
G01X-2667000Y-723900D03*
G01X-2921000Y-723900D03*
G01X-3175000Y-723900D03*
G01X-3429000Y-723900D03*
G01X-3683000Y-723900D03*
G01X-3937000Y-723900D03*
G01X-4191000Y-723900D03*
G54D12*
G01X812800Y762000D03*
G54D13*
G01X812800Y508000D03*
G01X812800Y254000D03*
G01X812800Y0D03*
G01X812800Y-254000D03*
G01X812800Y-508000D03*
G01X812800Y-762000D03*
G54D12*
G01X-812800Y-762000D03*
G54D13*
G01X-812800Y-508000D03*
G01X-812800Y-254000D03*
G01X-812800Y0D03*
G01X-812800Y254000D03*
G01X-812800Y508000D03*
G01X-812800Y762000D03*
G04 Pad End*

M02*

