G04 Layer: DrillDrawingLayer*
G04 EasyEDA Pro v3.2.148, 2026-08-11 11:52:59*
G04 Gerber Generator version 0.3*
G04 Scale: 100 percent, Rotated: No, Reflected: No*
G04 Dimensions in millimeters*
G04 Leading zeros omitted, absolute positions, 4 integers and 5 decimals*
G04 Generated by one-click*
G04 Object Configs: Pad,Via,Track,Text,Image,Dimension,BoardOutline,BoardCutout,CopperFilled,SolidRegion,FPCStiffener,Line,PlaneZone,ComponentProperty,ComponentSilkscreen,TearDrop*
G04 Layer Configs: 1,2,3,4,5,6,7,8,9,10,11,13,14,56*
G04 Copper Areas: 0*
%FSLAX45Y45*%
%MOMM*%
%AMIconRect*4,1,4,0.28,-0.28,-0.28,-0.28,-0.28,0.28,0.28,0.28,0.28,-0.28,0*4,0,4,0.233333,-0.233333,0.233333,0.233333,-0.233333,0.233333,-0.233333,-0.233333,0.233333,-0.233333,0*%
%AMIconTriangle*4,1,3,-0.339593,0.240473,0.339593,0.240473,0,-0.37884,-0.339593,0.240473,0*4,0,3,-0.265673,0.19404,0,-0.27342,0.266233,0.19404,-0.265673,0.19404,0*%
%AMIconStar6*4,1,12,0.12068,0.20888,0.298527,0.172713,0.241313,0,0.298527,-0.17206,0.12068,-0.208227,0,-0.344073,-0.120073,-0.208227,-0.298573,-0.17206,-0.240707,0,-0.298573,0.17206,-0.120073,0.20888,0,0.344073,0.12068,0.20888,0*4,0,12,-0.000467,0.273467,-0.090067,0.171733,-0.237533,0.136733,-0.193667,-0.007467,-0.237533,-0.1372,-0.090067,-0.171733,-0.000467,-0.273933,0.090067,-0.171733,0.237533,-0.1372,0.194133,0.007,0.237533,0.1372,0.090067,0.171267,-0.000467,0.273467,0*%
%AMIconStar4*4,1,8,-0.311733,0.311733,0,0.202533,0.311733,0.311733,0.202533,0,0.311733,-0.311733,0,-0.202533,-0.304407,-0.311733,-0.202533,0,-0.311733,0.311733,0*4,0,8,0.233333,-0.233333,0.1512,0,0.233333,0.233333,0,0.1512,-0.233333,0.233333,-0.1512,0,-0.233333,-0.233333,0,-0.1512,0.233333,-0.233333,0*%
%AMIconPlus*4,1,12,0.1736,-0.28,-0.1736,-0.28,-0.1736,-0.1736,-0.28,-0.1736,-0.28,0.1736,-0.1736,0.1736,-0.1736,0.28,0.1736,0.28,0.1736,0.1736,0.28,0.1736,0.28,-0.1736,0.1736,-0.1736,0.1736,-0.28,0*4,0,12,0.126933,-0.233333,0.126933,-0.126933,0.233333,-0.126933,0.233333,0.126933,0.126933,0.126933,0.126933,0.233333,-0.126933,0.233333,-0.126933,0.126933,-0.233333,0.126933,-0.233333,-0.126933,-0.126933,-0.126933,-0.126933,-0.233333,0.126933,-0.233333,0*%
%ADD10IconRect*%
%ADD11C,0.616X0.522667*%
%ADD12IconTriangle*%
%ADD13IconStar6*%
%ADD14IconStar4*%
%ADD15IconPlus*%
%ADD16C,0.2032*%
%ADD17C,0.254*%
G75*


G04 Drill Drawing Start*
G54D10*
G01X0Y0D03*
G54D11*
G01X-1790700Y292100D03*
G01X-1790700Y406400D03*
G01X-1193800Y-266700D03*
G01X0Y292100D03*
G54D12*
G01X-1240585Y-949960D03*
G01X-1240585Y949960D03*
G01X1239939Y-949960D03*
G01X1239939Y949960D03*
G54D13*
G01X-375001Y-647700D03*
G01X-125001Y-647700D03*
G01X124998Y-647700D03*
G01X375001Y-647700D03*
G01X2787299Y-647700D03*
G01X3037299Y-647700D03*
G01X3287298Y-647700D03*
G01X3537301Y-647700D03*
G54D14*
G01X-4191000Y-723897D03*
G01X-4191000Y800097D03*
G01X-3937000Y-723897D03*
G01X-3937000Y800097D03*
G01X-3683000Y-723897D03*
G01X-3683000Y800097D03*
G01X-3429000Y-723897D03*
G01X-3429000Y800097D03*
G01X-3175000Y-723897D03*
G01X-3175000Y800097D03*
G01X-2921000Y-723897D03*
G01X-2921000Y800097D03*
G01X-2667000Y-723897D03*
G01X-2667000Y800097D03*
G01X-2413000Y-723897D03*
G01X-2413000Y800097D03*
G01X-2159000Y-723897D03*
G01X-2159000Y800097D03*
G54D15*
G01X-812800Y-762000D03*
G01X-812800Y-508000D03*
G01X-812800Y-254000D03*
G01X-812800Y0D03*
G01X-812800Y254000D03*
G01X-812800Y508000D03*
G01X-812800Y762000D03*
G01X812800Y762000D03*
G01X812800Y-762000D03*
G01X812800Y-508000D03*
G01X812800Y-254000D03*
G01X812800Y0D03*
G01X812800Y254000D03*
G01X812800Y508000D03*
G01X4330700Y-762000D03*
G01X4330700Y-508000D03*
G01X4330700Y-254000D03*
G01X4330700Y0D03*
G01X4330700Y254000D03*
G01X4330700Y508000D03*
G01X4330700Y762000D03*
G04 Drill Drawing End*

G04 Text Start*
G54D16*
G01X7225312Y1578295D02*
G01X7225312Y1458153D01*
G01X7225312Y1578295D02*
G01X7271032Y1458153D01*
G01X7316752Y1578295D02*
G01X7271032Y1458153D01*
G01X7316752Y1578295D02*
G01X7316752Y1458153D01*
G01X7433084Y1538163D02*
G01X7433084Y1458153D01*
G01X7433084Y1521145D02*
G01X7421654Y1532575D01*
G01X7410224Y1538163D01*
G01X7393206Y1538163D01*
G01X7381776Y1532575D01*
G01X7370346Y1521145D01*
G01X7364504Y1503873D01*
G01X7364504Y1492443D01*
G01X7370346Y1475425D01*
G01X7381776Y1463995D01*
G01X7393206Y1458153D01*
G01X7410224Y1458153D01*
G01X7421654Y1463995D01*
G01X7433084Y1475425D01*
G01X7480836Y1538163D02*
G01X7480836Y1458153D01*
G01X7480836Y1503873D02*
G01X7486678Y1521145D01*
G01X7498108Y1532575D01*
G01X7509538Y1538163D01*
G01X7526556Y1538163D01*
G01X7574308Y1578295D02*
G01X7574308Y1458153D01*
G01X7631458Y1538163D02*
G01X7574308Y1481013D01*
G01X7597168Y1503873D02*
G01X7637300Y1458153D01*
G01X8762593Y1549593D02*
G01X8756751Y1561023D01*
G01X8745321Y1572453D01*
G01X8733891Y1578295D01*
G01X8711031Y1578295D01*
G01X8699601Y1572453D01*
G01X8688171Y1561023D01*
G01X8682583Y1549593D01*
G01X8676741Y1532575D01*
G01X8676741Y1503873D01*
G01X8682583Y1486855D01*
G01X8688171Y1475425D01*
G01X8699601Y1463995D01*
G01X8711031Y1458153D01*
G01X8733891Y1458153D01*
G01X8745321Y1463995D01*
G01X8756751Y1475425D01*
G01X8762593Y1486855D01*
G01X8839047Y1538163D02*
G01X8827617Y1532575D01*
G01X8816187Y1521145D01*
G01X8810345Y1503873D01*
G01X8810345Y1492443D01*
G01X8816187Y1475425D01*
G01X8827617Y1463995D01*
G01X8839047Y1458153D01*
G01X8856065Y1458153D01*
G01X8867495Y1463995D01*
G01X8878925Y1475425D01*
G01X8884767Y1492443D01*
G01X8884767Y1503873D01*
G01X8878925Y1521145D01*
G01X8867495Y1532575D01*
G01X8856065Y1538163D01*
G01X8839047Y1538163D01*
G01X8932519Y1538163D02*
G01X8932519Y1481013D01*
G01X8938361Y1463995D01*
G01X8949791Y1458153D01*
G01X8966809Y1458153D01*
G01X8978239Y1463995D01*
G01X8995511Y1481013D01*
G01X8995511Y1538163D02*
G01X8995511Y1458153D01*
G01X9043263Y1538163D02*
G01X9043263Y1458153D01*
G01X9043263Y1515303D02*
G01X9060535Y1532575D01*
G01X9071965Y1538163D01*
G01X9088983Y1538163D01*
G01X9100413Y1532575D01*
G01X9106255Y1515303D01*
G01X9106255Y1458153D01*
G01X9171279Y1578295D02*
G01X9171279Y1481013D01*
G01X9176867Y1463995D01*
G01X9188297Y1458153D01*
G01X9199727Y1458153D01*
G01X9154007Y1538163D02*
G01X9194139Y1538163D01*
G01X10170914Y1561023D02*
G01X10159484Y1572453D01*
G01X10142466Y1578295D01*
G01X10119606Y1578295D01*
G01X10102334Y1572453D01*
G01X10090904Y1561023D01*
G01X10090904Y1549593D01*
G01X10096746Y1538163D01*
G01X10102334Y1532575D01*
G01X10113764Y1526733D01*
G01X10148054Y1515303D01*
G01X10159484Y1509715D01*
G01X10165326Y1503873D01*
G01X10170914Y1492443D01*
G01X10170914Y1475425D01*
G01X10159484Y1463995D01*
G01X10142466Y1458153D01*
G01X10119606Y1458153D01*
G01X10102334Y1463995D01*
G01X10090904Y1475425D01*
G01X10218666Y1578295D02*
G01X10224508Y1572453D01*
G01X10230096Y1578295D01*
G01X10224508Y1583883D01*
G01X10218666Y1578295D01*
G01X10224508Y1538163D02*
G01X10224508Y1458153D01*
G01X10340840Y1538163D02*
G01X10277848Y1458153D01*
G01X10277848Y1538163D02*
G01X10340840Y1538163D01*
G01X10277848Y1458153D02*
G01X10340840Y1458153D01*
G01X10388592Y1503873D02*
G01X10457172Y1503873D01*
G01X10457172Y1515303D01*
G01X10451584Y1526733D01*
G01X10445742Y1532575D01*
G01X10434312Y1538163D01*
G01X10417294Y1538163D01*
G01X10405864Y1532575D01*
G01X10394434Y1521145D01*
G01X10388592Y1503873D01*
G01X10388592Y1492443D01*
G01X10394434Y1475425D01*
G01X10405864Y1463995D01*
G01X10417294Y1458153D01*
G01X10434312Y1458153D01*
G01X10445742Y1463995D01*
G01X10457172Y1475425D01*
G01X13882253Y1578295D02*
G01X13882253Y1458153D01*
G01X13882253Y1578295D02*
G01X13933815Y1578295D01*
G01X13950833Y1572453D01*
G01X13956675Y1566865D01*
G01X13962263Y1555435D01*
G01X13962263Y1538163D01*
G01X13956675Y1526733D01*
G01X13950833Y1521145D01*
G01X13933815Y1515303D01*
G01X13882253Y1515303D01*
G01X14010015Y1578295D02*
G01X14010015Y1458153D01*
G01X14126347Y1538163D02*
G01X14126347Y1458153D01*
G01X14126347Y1521145D02*
G01X14114917Y1532575D01*
G01X14103487Y1538163D01*
G01X14086469Y1538163D01*
G01X14075039Y1532575D01*
G01X14063609Y1521145D01*
G01X14057767Y1503873D01*
G01X14057767Y1492443D01*
G01X14063609Y1475425D01*
G01X14075039Y1463995D01*
G01X14086469Y1458153D01*
G01X14103487Y1458153D01*
G01X14114917Y1463995D01*
G01X14126347Y1475425D01*
G01X14191371Y1578295D02*
G01X14191371Y1481013D01*
G01X14196959Y1463995D01*
G01X14208389Y1458153D01*
G01X14219819Y1458153D01*
G01X14174099Y1538163D02*
G01X14214231Y1538163D01*
G01X14267571Y1503873D02*
G01X14336151Y1503873D01*
G01X14336151Y1515303D01*
G01X14330563Y1526733D01*
G01X14324721Y1532575D01*
G01X14313291Y1538163D01*
G01X14296273Y1538163D01*
G01X14284843Y1532575D01*
G01X14273413Y1521145D01*
G01X14267571Y1503873D01*
G01X14267571Y1492443D01*
G01X14273413Y1475425D01*
G01X14284843Y1463995D01*
G01X14296273Y1458153D01*
G01X14313291Y1458153D01*
G01X14324721Y1463995D01*
G01X14336151Y1475425D01*
G01X14452483Y1578295D02*
G01X14452483Y1458153D01*
G01X14452483Y1521145D02*
G01X14441053Y1532575D01*
G01X14429623Y1538163D01*
G01X14412605Y1538163D01*
G01X14401175Y1532575D01*
G01X14389745Y1521145D01*
G01X14383903Y1503873D01*
G01X14383903Y1492443D01*
G01X14389745Y1475425D01*
G01X14401175Y1463995D01*
G01X14412605Y1458153D01*
G01X14429623Y1458153D01*
G01X14441053Y1463995D01*
G01X14452483Y1475425D01*
G01X15423670Y1561023D02*
G01X15412240Y1572453D01*
G01X15395222Y1578295D01*
G01X15372362Y1578295D01*
G01X15355090Y1572453D01*
G01X15343660Y1561023D01*
G01X15343660Y1549593D01*
G01X15349502Y1538163D01*
G01X15355090Y1532575D01*
G01X15366520Y1526733D01*
G01X15400810Y1515303D01*
G01X15412240Y1509715D01*
G01X15418082Y1503873D01*
G01X15423670Y1492443D01*
G01X15423670Y1475425D01*
G01X15412240Y1463995D01*
G01X15395222Y1458153D01*
G01X15372362Y1458153D01*
G01X15355090Y1463995D01*
G01X15343660Y1475425D01*
G01X15471422Y1578295D02*
G01X15471422Y1458153D01*
G01X15471422Y1515303D02*
G01X15488694Y1532575D01*
G01X15500124Y1538163D01*
G01X15517142Y1538163D01*
G01X15528572Y1532575D01*
G01X15534414Y1515303D01*
G01X15534414Y1458153D01*
G01X15650746Y1538163D02*
G01X15650746Y1458153D01*
G01X15650746Y1521145D02*
G01X15639316Y1532575D01*
G01X15627886Y1538163D01*
G01X15610868Y1538163D01*
G01X15599438Y1532575D01*
G01X15588008Y1521145D01*
G01X15582166Y1503873D01*
G01X15582166Y1492443D01*
G01X15588008Y1475425D01*
G01X15599438Y1463995D01*
G01X15610868Y1458153D01*
G01X15627886Y1458153D01*
G01X15639316Y1463995D01*
G01X15650746Y1475425D01*
G01X15698498Y1538163D02*
G01X15698498Y1418275D01*
G01X15698498Y1521145D02*
G01X15709928Y1532575D01*
G01X15721358Y1538163D01*
G01X15738630Y1538163D01*
G01X15750060Y1532575D01*
G01X15761490Y1521145D01*
G01X15767078Y1503873D01*
G01X15767078Y1492443D01*
G01X15761490Y1475425D01*
G01X15750060Y1463995D01*
G01X15738630Y1458153D01*
G01X15721358Y1458153D01*
G01X15709928Y1463995D01*
G01X15698498Y1475425D01*
G01X15814830Y1503873D02*
G01X15883410Y1503873D01*
G01X15883410Y1515303D01*
G01X15877822Y1526733D01*
G01X15871980Y1532575D01*
G01X15860550Y1538163D01*
G01X15843532Y1538163D01*
G01X15832102Y1532575D01*
G01X15820672Y1521145D01*
G01X15814830Y1503873D01*
G01X15814830Y1492443D01*
G01X15820672Y1475425D01*
G01X15832102Y1463995D01*
G01X15843532Y1458153D01*
G01X15860550Y1458153D01*
G01X15871980Y1463995D01*
G01X15883410Y1475425D01*
G01X16774841Y1578295D02*
G01X16820561Y1458153D01*
G01X16866281Y1578295D02*
G01X16820561Y1458153D01*
G01X16914033Y1578295D02*
G01X16919875Y1572453D01*
G01X16925463Y1578295D01*
G01X16919875Y1583883D01*
G01X16914033Y1578295D01*
G01X16919875Y1538163D02*
G01X16919875Y1458153D01*
G01X17041795Y1538163D02*
G01X17041795Y1458153D01*
G01X17041795Y1521145D02*
G01X17030365Y1532575D01*
G01X17018935Y1538163D01*
G01X17001917Y1538163D01*
G01X16990487Y1532575D01*
G01X16979057Y1521145D01*
G01X16973215Y1503873D01*
G01X16973215Y1492443D01*
G01X16979057Y1475425D01*
G01X16990487Y1463995D01*
G01X17001917Y1458153D01*
G01X17018935Y1458153D01*
G01X17030365Y1463995D01*
G01X17041795Y1475425D01*
G01X17192417Y1601155D02*
G01X17089547Y1418275D01*
G01X17240169Y1578295D02*
G01X17240169Y1458153D01*
G01X17240169Y1578295D02*
G01X17291731Y1578295D01*
G01X17308749Y1572453D01*
G01X17314591Y1566865D01*
G01X17320179Y1555435D01*
G01X17320179Y1538163D01*
G01X17314591Y1526733D01*
G01X17308749Y1521145D01*
G01X17291731Y1515303D01*
G01X17240169Y1515303D01*
G01X17436511Y1538163D02*
G01X17436511Y1458153D01*
G01X17436511Y1521145D02*
G01X17425081Y1532575D01*
G01X17413651Y1538163D01*
G01X17396633Y1538163D01*
G01X17385203Y1532575D01*
G01X17373773Y1521145D01*
G01X17367931Y1503873D01*
G01X17367931Y1492443D01*
G01X17373773Y1475425D01*
G01X17385203Y1463995D01*
G01X17396633Y1458153D01*
G01X17413651Y1458153D01*
G01X17425081Y1463995D01*
G01X17436511Y1475425D01*
G01X17552843Y1578295D02*
G01X17552843Y1458153D01*
G01X17552843Y1521145D02*
G01X17541413Y1532575D01*
G01X17529983Y1538163D01*
G01X17512965Y1538163D01*
G01X17501535Y1532575D01*
G01X17490105Y1521145D01*
G01X17484263Y1503873D01*
G01X17484263Y1492443D01*
G01X17490105Y1475425D01*
G01X17501535Y1463995D01*
G01X17512965Y1458153D01*
G01X17529983Y1458153D01*
G01X17541413Y1463995D01*
G01X17552843Y1475425D01*
G01X18444020Y1578295D02*
G01X18444020Y1458153D01*
G01X18444020Y1578295D02*
G01X18495582Y1578295D01*
G01X18512600Y1572453D01*
G01X18518442Y1566865D01*
G01X18524030Y1555435D01*
G01X18524030Y1538163D01*
G01X18518442Y1526733D01*
G01X18512600Y1521145D01*
G01X18495582Y1515303D01*
G01X18444020Y1515303D01*
G01X18640362Y1538163D02*
G01X18640362Y1458153D01*
G01X18640362Y1521145D02*
G01X18628932Y1532575D01*
G01X18617502Y1538163D01*
G01X18600484Y1538163D01*
G01X18589054Y1532575D01*
G01X18577624Y1521145D01*
G01X18571782Y1503873D01*
G01X18571782Y1492443D01*
G01X18577624Y1475425D01*
G01X18589054Y1463995D01*
G01X18600484Y1458153D01*
G01X18617502Y1458153D01*
G01X18628932Y1463995D01*
G01X18640362Y1475425D01*
G01X18756694Y1578295D02*
G01X18756694Y1458153D01*
G01X18756694Y1521145D02*
G01X18745264Y1532575D01*
G01X18733834Y1538163D01*
G01X18716816Y1538163D01*
G01X18705386Y1532575D01*
G01X18693956Y1521145D01*
G01X18688114Y1503873D01*
G01X18688114Y1492443D01*
G01X18693956Y1475425D01*
G01X18705386Y1463995D01*
G01X18716816Y1458153D01*
G01X18733834Y1458153D01*
G01X18745264Y1463995D01*
G01X18756694Y1475425D01*
G01X19012472Y1561023D02*
G01X19001042Y1572453D01*
G01X18984024Y1578295D01*
G01X18961164Y1578295D01*
G01X18943892Y1572453D01*
G01X18932462Y1561023D01*
G01X18932462Y1549593D01*
G01X18938304Y1538163D01*
G01X18943892Y1532575D01*
G01X18955322Y1526733D01*
G01X18989612Y1515303D01*
G01X19001042Y1509715D01*
G01X19006884Y1503873D01*
G01X19012472Y1492443D01*
G01X19012472Y1475425D01*
G01X19001042Y1463995D01*
G01X18984024Y1458153D01*
G01X18961164Y1458153D01*
G01X18943892Y1463995D01*
G01X18932462Y1475425D01*
G01X19060224Y1578295D02*
G01X19060224Y1458153D01*
G01X19060224Y1515303D02*
G01X19077496Y1532575D01*
G01X19088926Y1538163D01*
G01X19105944Y1538163D01*
G01X19117374Y1532575D01*
G01X19123216Y1515303D01*
G01X19123216Y1458153D01*
G01X19239548Y1538163D02*
G01X19239548Y1458153D01*
G01X19239548Y1521145D02*
G01X19228118Y1532575D01*
G01X19216688Y1538163D01*
G01X19199670Y1538163D01*
G01X19188240Y1532575D01*
G01X19176810Y1521145D01*
G01X19170968Y1503873D01*
G01X19170968Y1492443D01*
G01X19176810Y1475425D01*
G01X19188240Y1463995D01*
G01X19199670Y1458153D01*
G01X19216688Y1458153D01*
G01X19228118Y1463995D01*
G01X19239548Y1475425D01*
G01X19287300Y1538163D02*
G01X19287300Y1418275D01*
G01X19287300Y1521145D02*
G01X19298730Y1532575D01*
G01X19310160Y1538163D01*
G01X19327432Y1538163D01*
G01X19338862Y1532575D01*
G01X19350292Y1521145D01*
G01X19355880Y1503873D01*
G01X19355880Y1492443D01*
G01X19350292Y1475425D01*
G01X19338862Y1463995D01*
G01X19327432Y1458153D01*
G01X19310160Y1458153D01*
G01X19298730Y1463995D01*
G01X19287300Y1475425D01*
G01X19403632Y1503873D02*
G01X19472212Y1503873D01*
G01X19472212Y1515303D01*
G01X19466624Y1526733D01*
G01X19460782Y1532575D01*
G01X19449352Y1538163D01*
G01X19432334Y1538163D01*
G01X19420904Y1532575D01*
G01X19409474Y1521145D01*
G01X19403632Y1503873D01*
G01X19403632Y1492443D01*
G01X19409474Y1475425D01*
G01X19420904Y1463995D01*
G01X19432334Y1458153D01*
G01X19449352Y1458153D01*
G01X19460782Y1463995D01*
G01X19472212Y1475425D01*
G01X20363390Y1578295D02*
G01X20363390Y1458153D01*
G01X20363390Y1458153D02*
G01X20431970Y1458153D01*
G01X20548302Y1538163D02*
G01X20548302Y1458153D01*
G01X20548302Y1521145D02*
G01X20536872Y1532575D01*
G01X20525442Y1538163D01*
G01X20508424Y1538163D01*
G01X20496994Y1532575D01*
G01X20485564Y1521145D01*
G01X20479722Y1503873D01*
G01X20479722Y1492443D01*
G01X20485564Y1475425D01*
G01X20496994Y1463995D01*
G01X20508424Y1458153D01*
G01X20525442Y1458153D01*
G01X20536872Y1463995D01*
G01X20548302Y1475425D01*
G01X20601896Y1538163D02*
G01X20636186Y1458153D01*
G01X20670476Y1538163D02*
G01X20636186Y1458153D01*
G01X20624756Y1435293D01*
G01X20613326Y1423863D01*
G01X20601896Y1418275D01*
G01X20596054Y1418275D01*
G01X20718228Y1503873D02*
G01X20786808Y1503873D01*
G01X20786808Y1515303D01*
G01X20781220Y1526733D01*
G01X20775378Y1532575D01*
G01X20763948Y1538163D01*
G01X20746930Y1538163D01*
G01X20735500Y1532575D01*
G01X20724070Y1521145D01*
G01X20718228Y1503873D01*
G01X20718228Y1492443D01*
G01X20724070Y1475425D01*
G01X20735500Y1463995D01*
G01X20746930Y1458153D01*
G01X20763948Y1458153D01*
G01X20775378Y1463995D01*
G01X20786808Y1475425D01*
G01X20834560Y1538163D02*
G01X20834560Y1458153D01*
G01X20834560Y1503873D02*
G01X20840402Y1521145D01*
G01X20851832Y1532575D01*
G01X20863262Y1538163D01*
G01X20880280Y1538163D01*
G01X21056048Y1578295D02*
G01X21056048Y1458153D01*
G01X21056048Y1578295D02*
G01X21107610Y1578295D01*
G01X21124628Y1572453D01*
G01X21130470Y1566865D01*
G01X21136058Y1555435D01*
G01X21136058Y1538163D01*
G01X21130470Y1526733D01*
G01X21124628Y1521145D01*
G01X21107610Y1515303D01*
G01X21056048Y1515303D01*
G01X21252390Y1538163D02*
G01X21252390Y1458153D01*
G01X21252390Y1521145D02*
G01X21240960Y1532575D01*
G01X21229530Y1538163D01*
G01X21212512Y1538163D01*
G01X21201082Y1532575D01*
G01X21189652Y1521145D01*
G01X21183810Y1503873D01*
G01X21183810Y1492443D01*
G01X21189652Y1475425D01*
G01X21201082Y1463995D01*
G01X21212512Y1458153D01*
G01X21229530Y1458153D01*
G01X21240960Y1463995D01*
G01X21252390Y1475425D01*
G01X21300142Y1578295D02*
G01X21305984Y1572453D01*
G01X21311572Y1578295D01*
G01X21305984Y1583883D01*
G01X21300142Y1578295D01*
G01X21305984Y1538163D02*
G01X21305984Y1458153D01*
G01X21359324Y1538163D02*
G01X21359324Y1458153D01*
G01X21359324Y1503873D02*
G01X21365166Y1521145D01*
G01X21376596Y1532575D01*
G01X21388026Y1538163D01*
G01X21405044Y1538163D01*
G01X8676741Y974863D02*
G01X8688171Y980451D01*
G01X8705443Y997723D01*
G01X8705443Y877581D01*
G01X10090904Y974863D02*
G01X10102334Y980451D01*
G01X10119606Y997723D01*
G01X10119606Y877581D01*
G01X10167358Y974863D02*
G01X10178788Y980451D01*
G01X10196060Y997723D01*
G01X10196060Y877581D01*
G01X10272514Y997723D02*
G01X10255242Y991881D01*
G01X10249654Y980451D01*
G01X10249654Y969021D01*
G01X10255242Y957591D01*
G01X10266672Y952003D01*
G01X10289532Y946161D01*
G01X10306804Y940573D01*
G01X10318234Y929143D01*
G01X10323822Y917713D01*
G01X10323822Y900441D01*
G01X10318234Y889011D01*
G01X10312392Y883423D01*
G01X10295374Y877581D01*
G01X10272514Y877581D01*
G01X10255242Y883423D01*
G01X10249654Y889011D01*
G01X10243812Y900441D01*
G01X10243812Y917713D01*
G01X10249654Y929143D01*
G01X10261084Y940573D01*
G01X10278102Y946161D01*
G01X10300962Y952003D01*
G01X10312392Y957591D01*
G01X10318234Y969021D01*
G01X10318234Y980451D01*
G01X10312392Y991881D01*
G01X10295374Y997723D01*
G01X10272514Y997723D01*
G01X10377416Y906283D02*
G01X10371574Y900441D01*
G01X10377416Y894853D01*
G01X10383004Y900441D01*
G01X10377416Y906283D01*
G01X10430756Y974863D02*
G01X10442186Y980451D01*
G01X10459458Y997723D01*
G01X10459458Y877581D01*
G01X10507210Y957591D02*
G01X10507210Y877581D01*
G01X10507210Y934731D02*
G01X10524482Y952003D01*
G01X10535912Y957591D01*
G01X10552930Y957591D01*
G01X10564360Y952003D01*
G01X10570202Y934731D01*
G01X10570202Y877581D01*
G01X10570202Y934731D02*
G01X10587220Y952003D01*
G01X10598650Y957591D01*
G01X10615922Y957591D01*
G01X10627352Y952003D01*
G01X10632940Y934731D01*
G01X10632940Y877581D01*
G01X10680692Y997723D02*
G01X10686534Y991881D01*
G01X10692122Y997723D01*
G01X10686534Y1003311D01*
G01X10680692Y997723D01*
G01X10686534Y957591D02*
G01X10686534Y877581D01*
G01X10739874Y997723D02*
G01X10739874Y877581D01*
G01X10827758Y1020583D02*
G01X10816328Y1009153D01*
G01X10804898Y991881D01*
G01X10793468Y969021D01*
G01X10787626Y940573D01*
G01X10787626Y917713D01*
G01X10793468Y889011D01*
G01X10804898Y866151D01*
G01X10816328Y849133D01*
G01X10827758Y837703D01*
G01X10886940Y997723D02*
G01X10949932Y997723D01*
G01X10915642Y952003D01*
G01X10932660Y952003D01*
G01X10944090Y946161D01*
G01X10949932Y940573D01*
G01X10955520Y923301D01*
G01X10955520Y911871D01*
G01X10949932Y894853D01*
G01X10938502Y883423D01*
G01X10921230Y877581D01*
G01X10904212Y877581D01*
G01X10886940Y883423D01*
G01X10881352Y889011D01*
G01X10875510Y900441D01*
G01X11009114Y906283D02*
G01X11003272Y900441D01*
G01X11009114Y894853D01*
G01X11014702Y900441D01*
G01X11009114Y906283D01*
G01X11096744Y997723D02*
G01X11079726Y991881D01*
G01X11068296Y974863D01*
G01X11062454Y946161D01*
G01X11062454Y929143D01*
G01X11068296Y900441D01*
G01X11079726Y883423D01*
G01X11096744Y877581D01*
G01X11108174Y877581D01*
G01X11125446Y883423D01*
G01X11136876Y900441D01*
G01X11142464Y929143D01*
G01X11142464Y946161D01*
G01X11136876Y974863D01*
G01X11125446Y991881D01*
G01X11108174Y997723D01*
G01X11096744Y997723D01*
G01X11224506Y997723D02*
G01X11207488Y991881D01*
G01X11196058Y974863D01*
G01X11190216Y946161D01*
G01X11190216Y929143D01*
G01X11196058Y900441D01*
G01X11207488Y883423D01*
G01X11224506Y877581D01*
G01X11235936Y877581D01*
G01X11253208Y883423D01*
G01X11264638Y900441D01*
G01X11270226Y929143D01*
G01X11270226Y946161D01*
G01X11264638Y974863D01*
G01X11253208Y991881D01*
G01X11235936Y997723D01*
G01X11224506Y997723D01*
G01X11352268Y997723D02*
G01X11335250Y991881D01*
G01X11323820Y974863D01*
G01X11317978Y946161D01*
G01X11317978Y929143D01*
G01X11323820Y900441D01*
G01X11335250Y883423D01*
G01X11352268Y877581D01*
G01X11363698Y877581D01*
G01X11380970Y883423D01*
G01X11392400Y900441D01*
G01X11397988Y929143D01*
G01X11397988Y946161D01*
G01X11392400Y974863D01*
G01X11380970Y991881D01*
G01X11363698Y997723D01*
G01X11352268Y997723D01*
G01X11445740Y957591D02*
G01X11445740Y877581D01*
G01X11445740Y934731D02*
G01X11463012Y952003D01*
G01X11474442Y957591D01*
G01X11491460Y957591D01*
G01X11502890Y952003D01*
G01X11508732Y934731D01*
G01X11508732Y877581D01*
G01X11508732Y934731D02*
G01X11525750Y952003D01*
G01X11537180Y957591D01*
G01X11554452Y957591D01*
G01X11565882Y952003D01*
G01X11571470Y934731D01*
G01X11571470Y877581D01*
G01X11619222Y957591D02*
G01X11619222Y877581D01*
G01X11619222Y934731D02*
G01X11636494Y952003D01*
G01X11647924Y957591D01*
G01X11664942Y957591D01*
G01X11676372Y952003D01*
G01X11682214Y934731D01*
G01X11682214Y877581D01*
G01X11682214Y934731D02*
G01X11699232Y952003D01*
G01X11710662Y957591D01*
G01X11727934Y957591D01*
G01X11739364Y952003D01*
G01X11744952Y934731D01*
G01X11744952Y877581D01*
G01X11792704Y1020583D02*
G01X11804134Y1009153D01*
G01X11815564Y991881D01*
G01X11826994Y969021D01*
G01X11832836Y940573D01*
G01X11832836Y917713D01*
G01X11826994Y889011D01*
G01X11815564Y866151D01*
G01X11804134Y849133D01*
G01X11792704Y837703D01*
G01X13882253Y997723D02*
G01X13882253Y877581D01*
G01X13882253Y997723D02*
G01X13962263Y877581D01*
G01X13962263Y997723D02*
G01X13962263Y877581D01*
G01X14010015Y997723D02*
G01X14010015Y877581D01*
G01X14010015Y997723D02*
G01X14061577Y997723D01*
G01X14078595Y991881D01*
G01X14084437Y986293D01*
G01X14090025Y974863D01*
G01X14090025Y957591D01*
G01X14084437Y946161D01*
G01X14078595Y940573D01*
G01X14061577Y934731D01*
G01X14010015Y934731D01*
G01X14177909Y997723D02*
G01X14177909Y877581D01*
G01X14137777Y997723D02*
G01X14217787Y997723D01*
G01X14265539Y997723D02*
G01X14265539Y877581D01*
G01X14345549Y997723D02*
G01X14345549Y877581D01*
G01X14265539Y940573D02*
G01X14345549Y940573D01*
G01X15343660Y997723D02*
G01X15343660Y877581D01*
G01X15343660Y997723D02*
G01X15395222Y997723D01*
G01X15412240Y991881D01*
G01X15418082Y986293D01*
G01X15423670Y974863D01*
G01X15423670Y963433D01*
G01X15418082Y952003D01*
G01X15412240Y946161D01*
G01X15395222Y940573D01*
G01X15343660Y940573D01*
G01X15383792Y940573D02*
G01X15423670Y877581D01*
G01X15500124Y957591D02*
G01X15488694Y952003D01*
G01X15477264Y940573D01*
G01X15471422Y923301D01*
G01X15471422Y911871D01*
G01X15477264Y894853D01*
G01X15488694Y883423D01*
G01X15500124Y877581D01*
G01X15517142Y877581D01*
G01X15528572Y883423D01*
G01X15540002Y894853D01*
G01X15545844Y911871D01*
G01X15545844Y923301D01*
G01X15540002Y940573D01*
G01X15528572Y952003D01*
G01X15517142Y957591D01*
G01X15500124Y957591D01*
G01X15593596Y957591D02*
G01X15593596Y900441D01*
G01X15599438Y883423D01*
G01X15610868Y877581D01*
G01X15627886Y877581D01*
G01X15639316Y883423D01*
G01X15656588Y900441D01*
G01X15656588Y957591D02*
G01X15656588Y877581D01*
G01X15704340Y957591D02*
G01X15704340Y877581D01*
G01X15704340Y934731D02*
G01X15721612Y952003D01*
G01X15733042Y957591D01*
G01X15750060Y957591D01*
G01X15761490Y952003D01*
G01X15767332Y934731D01*
G01X15767332Y877581D01*
G01X15883664Y997723D02*
G01X15883664Y877581D01*
G01X15883664Y940573D02*
G01X15872234Y952003D01*
G01X15860804Y957591D01*
G01X15843786Y957591D01*
G01X15832356Y952003D01*
G01X15820926Y940573D01*
G01X15815084Y923301D01*
G01X15815084Y911871D01*
G01X15820926Y894853D01*
G01X15832356Y883423D01*
G01X15843786Y877581D01*
G01X15860804Y877581D01*
G01X15872234Y883423D01*
G01X15883664Y894853D01*
G01X16774841Y997723D02*
G01X16820561Y877581D01*
G01X16866281Y997723D02*
G01X16820561Y877581D01*
G01X16914033Y997723D02*
G01X16919875Y991881D01*
G01X16925463Y997723D01*
G01X16919875Y1003311D01*
G01X16914033Y997723D01*
G01X16919875Y957591D02*
G01X16919875Y877581D01*
G01X17041795Y957591D02*
G01X17041795Y877581D01*
G01X17041795Y940573D02*
G01X17030365Y952003D01*
G01X17018935Y957591D01*
G01X17001917Y957591D01*
G01X16990487Y952003D01*
G01X16979057Y940573D01*
G01X16973215Y923301D01*
G01X16973215Y911871D01*
G01X16979057Y894853D01*
G01X16990487Y883423D01*
G01X17001917Y877581D01*
G01X17018935Y877581D01*
G01X17030365Y883423D01*
G01X17041795Y894853D01*
G01X20403522Y997723D02*
G01X20403522Y877581D01*
G01X20363390Y997723D02*
G01X20443400Y997723D01*
G01X20519854Y957591D02*
G01X20508424Y952003D01*
G01X20496994Y940573D01*
G01X20491152Y923301D01*
G01X20491152Y911871D01*
G01X20496994Y894853D01*
G01X20508424Y883423D01*
G01X20519854Y877581D01*
G01X20536872Y877581D01*
G01X20548302Y883423D01*
G01X20559732Y894853D01*
G01X20565574Y911871D01*
G01X20565574Y923301D01*
G01X20559732Y940573D01*
G01X20548302Y952003D01*
G01X20536872Y957591D01*
G01X20519854Y957591D01*
G01X20613326Y957591D02*
G01X20613326Y837703D01*
G01X20613326Y940573D02*
G01X20624756Y952003D01*
G01X20636186Y957591D01*
G01X20653458Y957591D01*
G01X20664888Y952003D01*
G01X20676318Y940573D01*
G01X20681906Y923301D01*
G01X20681906Y911871D01*
G01X20676318Y894853D01*
G01X20664888Y883423D01*
G01X20653458Y877581D01*
G01X20636186Y877581D01*
G01X20624756Y883423D01*
G01X20613326Y894853D01*
G01X20857674Y997723D02*
G01X20857674Y877581D01*
G01X20857674Y877581D02*
G01X20926254Y877581D01*
G01X21042586Y957591D02*
G01X21042586Y877581D01*
G01X21042586Y940573D02*
G01X21031156Y952003D01*
G01X21019726Y957591D01*
G01X21002708Y957591D01*
G01X20991278Y952003D01*
G01X20979848Y940573D01*
G01X20974006Y923301D01*
G01X20974006Y911871D01*
G01X20979848Y894853D01*
G01X20991278Y883423D01*
G01X21002708Y877581D01*
G01X21019726Y877581D01*
G01X21031156Y883423D01*
G01X21042586Y894853D01*
G01X21096180Y957591D02*
G01X21130470Y877581D01*
G01X21164760Y957591D02*
G01X21130470Y877581D01*
G01X21119040Y854721D01*
G01X21107610Y843291D01*
G01X21096180Y837703D01*
G01X21090338Y837703D01*
G01X21212512Y923301D02*
G01X21281092Y923301D01*
G01X21281092Y934731D01*
G01X21275504Y946161D01*
G01X21269662Y952003D01*
G01X21258232Y957591D01*
G01X21241214Y957591D01*
G01X21229784Y952003D01*
G01X21218354Y940573D01*
G01X21212512Y923301D01*
G01X21212512Y911871D01*
G01X21218354Y894853D01*
G01X21229784Y883423D01*
G01X21241214Y877581D01*
G01X21258232Y877581D01*
G01X21269662Y883423D01*
G01X21281092Y894853D01*
G01X21328844Y957591D02*
G01X21328844Y877581D01*
G01X21328844Y923301D02*
G01X21334686Y940573D01*
G01X21346116Y952003D01*
G01X21357546Y957591D01*
G01X21374564Y957591D01*
G01X21422316Y929143D02*
G01X21525186Y929143D01*
G01X21572938Y997723D02*
G01X21572938Y877581D01*
G01X21572938Y997723D02*
G01X21624500Y997723D01*
G01X21641518Y991881D01*
G01X21647360Y986293D01*
G01X21652948Y974863D01*
G01X21652948Y963433D01*
G01X21647360Y952003D01*
G01X21641518Y946161D01*
G01X21624500Y940573D01*
G01X21572938Y940573D02*
G01X21624500Y940573D01*
G01X21641518Y934731D01*
G01X21647360Y929143D01*
G01X21652948Y917713D01*
G01X21652948Y900441D01*
G01X21647360Y889011D01*
G01X21641518Y883423D01*
G01X21624500Y877581D01*
G01X21572938Y877581D01*
G01X21729402Y957591D02*
G01X21717972Y952003D01*
G01X21706542Y940573D01*
G01X21700700Y923301D01*
G01X21700700Y911871D01*
G01X21706542Y894853D01*
G01X21717972Y883423D01*
G01X21729402Y877581D01*
G01X21746420Y877581D01*
G01X21757850Y883423D01*
G01X21769280Y894853D01*
G01X21775122Y911871D01*
G01X21775122Y923301D01*
G01X21769280Y940573D01*
G01X21757850Y952003D01*
G01X21746420Y957591D01*
G01X21729402Y957591D01*
G01X21840146Y997723D02*
G01X21840146Y900441D01*
G01X21845734Y883423D01*
G01X21857164Y877581D01*
G01X21868594Y877581D01*
G01X21822874Y957591D02*
G01X21863006Y957591D01*
G01X21933618Y997723D02*
G01X21933618Y900441D01*
G01X21939206Y883423D01*
G01X21950636Y877581D01*
G01X21962066Y877581D01*
G01X21916346Y957591D02*
G01X21956478Y957591D01*
G01X22038520Y957591D02*
G01X22027090Y952003D01*
G01X22015660Y940573D01*
G01X22009818Y923301D01*
G01X22009818Y911871D01*
G01X22015660Y894853D01*
G01X22027090Y883423D01*
G01X22038520Y877581D01*
G01X22055538Y877581D01*
G01X22066968Y883423D01*
G01X22078398Y894853D01*
G01X22084240Y911871D01*
G01X22084240Y923301D01*
G01X22078398Y940573D01*
G01X22066968Y952003D01*
G01X22055538Y957591D01*
G01X22038520Y957591D01*
G01X22131992Y957591D02*
G01X22131992Y877581D01*
G01X22131992Y934731D02*
G01X22149264Y952003D01*
G01X22160694Y957591D01*
G01X22177712Y957591D01*
G01X22189142Y952003D01*
G01X22194984Y934731D01*
G01X22194984Y877581D01*
G01X22194984Y934731D02*
G01X22212002Y952003D01*
G01X22223432Y957591D01*
G01X22240704Y957591D01*
G01X22252134Y952003D01*
G01X22257722Y934731D01*
G01X22257722Y877581D01*
G01X22433490Y997723D02*
G01X22433490Y877581D01*
G01X22433490Y877581D02*
G01X22502070Y877581D01*
G01X22618402Y957591D02*
G01X22618402Y877581D01*
G01X22618402Y940573D02*
G01X22606972Y952003D01*
G01X22595542Y957591D01*
G01X22578524Y957591D01*
G01X22567094Y952003D01*
G01X22555664Y940573D01*
G01X22549822Y923301D01*
G01X22549822Y911871D01*
G01X22555664Y894853D01*
G01X22567094Y883423D01*
G01X22578524Y877581D01*
G01X22595542Y877581D01*
G01X22606972Y883423D01*
G01X22618402Y894853D01*
G01X22671996Y957591D02*
G01X22706286Y877581D01*
G01X22740576Y957591D02*
G01X22706286Y877581D01*
G01X22694856Y854721D01*
G01X22683426Y843291D01*
G01X22671996Y837703D01*
G01X22666154Y837703D01*
G01X22788328Y923301D02*
G01X22856908Y923301D01*
G01X22856908Y934731D01*
G01X22851320Y946161D01*
G01X22845478Y952003D01*
G01X22834048Y957591D01*
G01X22817030Y957591D01*
G01X22805600Y952003D01*
G01X22794170Y940573D01*
G01X22788328Y923301D01*
G01X22788328Y911871D01*
G01X22794170Y894853D01*
G01X22805600Y883423D01*
G01X22817030Y877581D01*
G01X22834048Y877581D01*
G01X22845478Y883423D01*
G01X22856908Y894853D01*
G01X22904660Y957591D02*
G01X22904660Y877581D01*
G01X22904660Y923301D02*
G01X22910502Y940573D01*
G01X22921932Y952003D01*
G01X22933362Y957591D01*
G01X22950380Y957591D01*
G01X8733891Y417152D02*
G01X8676741Y337142D01*
G01X8762593Y337142D01*
G01X8733891Y417152D02*
G01X8733891Y297010D01*
G01X10090904Y394292D02*
G01X10102334Y399880D01*
G01X10119606Y417152D01*
G01X10119606Y297010D01*
G01X10173200Y388450D02*
G01X10173200Y394292D01*
G01X10178788Y405722D01*
G01X10184630Y411310D01*
G01X10196060Y417152D01*
G01X10218920Y417152D01*
G01X10230350Y411310D01*
G01X10235938Y405722D01*
G01X10241780Y394292D01*
G01X10241780Y382862D01*
G01X10235938Y371432D01*
G01X10224508Y354160D01*
G01X10167358Y297010D01*
G01X10247368Y297010D01*
G01X10300962Y325712D02*
G01X10295120Y319870D01*
G01X10300962Y314282D01*
G01X10306550Y319870D01*
G01X10300962Y325712D01*
G01X10388592Y417152D02*
G01X10371574Y411310D01*
G01X10360144Y394292D01*
G01X10354302Y365590D01*
G01X10354302Y348572D01*
G01X10360144Y319870D01*
G01X10371574Y302852D01*
G01X10388592Y297010D01*
G01X10400022Y297010D01*
G01X10417294Y302852D01*
G01X10428724Y319870D01*
G01X10434312Y348572D01*
G01X10434312Y365590D01*
G01X10428724Y394292D01*
G01X10417294Y411310D01*
G01X10400022Y417152D01*
G01X10388592Y417152D01*
G01X10482064Y377020D02*
G01X10482064Y297010D01*
G01X10482064Y354160D02*
G01X10499336Y371432D01*
G01X10510766Y377020D01*
G01X10527784Y377020D01*
G01X10539214Y371432D01*
G01X10545056Y354160D01*
G01X10545056Y297010D01*
G01X10545056Y354160D02*
G01X10562074Y371432D01*
G01X10573504Y377020D01*
G01X10590776Y377020D01*
G01X10602206Y371432D01*
G01X10607794Y354160D01*
G01X10607794Y297010D01*
G01X10655546Y417152D02*
G01X10661388Y411310D01*
G01X10666976Y417152D01*
G01X10661388Y422740D01*
G01X10655546Y417152D01*
G01X10661388Y377020D02*
G01X10661388Y297010D01*
G01X10714728Y417152D02*
G01X10714728Y297010D01*
G01X10802612Y440012D02*
G01X10791182Y428582D01*
G01X10779752Y411310D01*
G01X10768322Y388450D01*
G01X10762480Y360002D01*
G01X10762480Y337142D01*
G01X10768322Y308440D01*
G01X10779752Y285580D01*
G01X10791182Y268562D01*
G01X10802612Y257132D01*
G01X10884654Y417152D02*
G01X10867636Y411310D01*
G01X10856206Y394292D01*
G01X10850364Y365590D01*
G01X10850364Y348572D01*
G01X10856206Y319870D01*
G01X10867636Y302852D01*
G01X10884654Y297010D01*
G01X10896084Y297010D01*
G01X10913356Y302852D01*
G01X10924786Y319870D01*
G01X10930374Y348572D01*
G01X10930374Y365590D01*
G01X10924786Y394292D01*
G01X10913356Y411310D01*
G01X10896084Y417152D01*
G01X10884654Y417152D01*
G01X10983968Y325712D02*
G01X10978126Y319870D01*
G01X10983968Y314282D01*
G01X10989556Y319870D01*
G01X10983968Y325712D01*
G01X11048738Y417152D02*
G01X11111730Y417152D01*
G01X11077440Y371432D01*
G01X11094458Y371432D01*
G01X11105888Y365590D01*
G01X11111730Y360002D01*
G01X11117318Y342730D01*
G01X11117318Y331300D01*
G01X11111730Y314282D01*
G01X11100300Y302852D01*
G01X11083028Y297010D01*
G01X11066010Y297010D01*
G01X11048738Y302852D01*
G01X11043150Y308440D01*
G01X11037308Y319870D01*
G01X11199360Y417152D02*
G01X11182342Y411310D01*
G01X11170912Y394292D01*
G01X11165070Y365590D01*
G01X11165070Y348572D01*
G01X11170912Y319870D01*
G01X11182342Y302852D01*
G01X11199360Y297010D01*
G01X11210790Y297010D01*
G01X11228062Y302852D01*
G01X11239492Y319870D01*
G01X11245080Y348572D01*
G01X11245080Y365590D01*
G01X11239492Y394292D01*
G01X11228062Y411310D01*
G01X11210790Y417152D01*
G01X11199360Y417152D01*
G01X11361412Y417152D02*
G01X11304262Y417152D01*
G01X11298674Y365590D01*
G01X11304262Y371432D01*
G01X11321534Y377020D01*
G01X11338552Y377020D01*
G01X11355824Y371432D01*
G01X11367254Y360002D01*
G01X11372842Y342730D01*
G01X11372842Y331300D01*
G01X11367254Y314282D01*
G01X11355824Y302852D01*
G01X11338552Y297010D01*
G01X11321534Y297010D01*
G01X11304262Y302852D01*
G01X11298674Y308440D01*
G01X11292832Y319870D01*
G01X11420594Y377020D02*
G01X11420594Y297010D01*
G01X11420594Y354160D02*
G01X11437866Y371432D01*
G01X11449296Y377020D01*
G01X11466314Y377020D01*
G01X11477744Y371432D01*
G01X11483586Y354160D01*
G01X11483586Y297010D01*
G01X11483586Y354160D02*
G01X11500604Y371432D01*
G01X11512034Y377020D01*
G01X11529306Y377020D01*
G01X11540736Y371432D01*
G01X11546324Y354160D01*
G01X11546324Y297010D01*
G01X11594076Y377020D02*
G01X11594076Y297010D01*
G01X11594076Y354160D02*
G01X11611348Y371432D01*
G01X11622778Y377020D01*
G01X11639796Y377020D01*
G01X11651226Y371432D01*
G01X11657068Y354160D01*
G01X11657068Y297010D01*
G01X11657068Y354160D02*
G01X11674086Y371432D01*
G01X11685516Y377020D01*
G01X11702788Y377020D01*
G01X11714218Y371432D01*
G01X11719806Y354160D01*
G01X11719806Y297010D01*
G01X11767558Y440012D02*
G01X11778988Y428582D01*
G01X11790418Y411310D01*
G01X11801848Y388450D01*
G01X11807690Y360002D01*
G01X11807690Y337142D01*
G01X11801848Y308440D01*
G01X11790418Y285580D01*
G01X11778988Y268562D01*
G01X11767558Y257132D01*
G01X13882253Y417152D02*
G01X13882253Y297010D01*
G01X13882253Y417152D02*
G01X13933815Y417152D01*
G01X13950833Y411310D01*
G01X13956675Y405722D01*
G01X13962263Y394292D01*
G01X13962263Y377020D01*
G01X13956675Y365590D01*
G01X13950833Y360002D01*
G01X13933815Y354160D01*
G01X13882253Y354160D01*
G01X14050147Y417152D02*
G01X14050147Y297010D01*
G01X14010015Y417152D02*
G01X14090025Y417152D01*
G01X14137777Y417152D02*
G01X14137777Y297010D01*
G01X14217787Y417152D02*
G01X14217787Y297010D01*
G01X14137777Y360002D02*
G01X14217787Y360002D01*
G01X15343660Y417152D02*
G01X15343660Y297010D01*
G01X15343660Y417152D02*
G01X15395222Y417152D01*
G01X15412240Y411310D01*
G01X15418082Y405722D01*
G01X15423670Y394292D01*
G01X15423670Y382862D01*
G01X15418082Y371432D01*
G01X15412240Y365590D01*
G01X15395222Y360002D01*
G01X15343660Y360002D01*
G01X15383792Y360002D02*
G01X15423670Y297010D01*
G01X15500124Y377020D02*
G01X15488694Y371432D01*
G01X15477264Y360002D01*
G01X15471422Y342730D01*
G01X15471422Y331300D01*
G01X15477264Y314282D01*
G01X15488694Y302852D01*
G01X15500124Y297010D01*
G01X15517142Y297010D01*
G01X15528572Y302852D01*
G01X15540002Y314282D01*
G01X15545844Y331300D01*
G01X15545844Y342730D01*
G01X15540002Y360002D01*
G01X15528572Y371432D01*
G01X15517142Y377020D01*
G01X15500124Y377020D01*
G01X15593596Y377020D02*
G01X15593596Y319870D01*
G01X15599438Y302852D01*
G01X15610868Y297010D01*
G01X15627886Y297010D01*
G01X15639316Y302852D01*
G01X15656588Y319870D01*
G01X15656588Y377020D02*
G01X15656588Y297010D01*
G01X15704340Y377020D02*
G01X15704340Y297010D01*
G01X15704340Y354160D02*
G01X15721612Y371432D01*
G01X15733042Y377020D01*
G01X15750060Y377020D01*
G01X15761490Y371432D01*
G01X15767332Y354160D01*
G01X15767332Y297010D01*
G01X15883664Y417152D02*
G01X15883664Y297010D01*
G01X15883664Y360002D02*
G01X15872234Y371432D01*
G01X15860804Y377020D01*
G01X15843786Y377020D01*
G01X15832356Y371432D01*
G01X15820926Y360002D01*
G01X15815084Y342730D01*
G01X15815084Y331300D01*
G01X15820926Y314282D01*
G01X15832356Y302852D01*
G01X15843786Y297010D01*
G01X15860804Y297010D01*
G01X15872234Y302852D01*
G01X15883664Y314282D01*
G01X16774841Y417152D02*
G01X16820561Y297010D01*
G01X16866281Y417152D02*
G01X16820561Y297010D01*
G01X16914033Y417152D02*
G01X16919875Y411310D01*
G01X16925463Y417152D01*
G01X16919875Y422740D01*
G01X16914033Y417152D01*
G01X16919875Y377020D02*
G01X16919875Y297010D01*
G01X17041795Y377020D02*
G01X17041795Y297010D01*
G01X17041795Y360002D02*
G01X17030365Y371432D01*
G01X17018935Y377020D01*
G01X17001917Y377020D01*
G01X16990487Y371432D01*
G01X16979057Y360002D01*
G01X16973215Y342730D01*
G01X16973215Y331300D01*
G01X16979057Y314282D01*
G01X16990487Y302852D01*
G01X17001917Y297010D01*
G01X17018935Y297010D01*
G01X17030365Y302852D01*
G01X17041795Y314282D01*
G01X20403522Y417152D02*
G01X20403522Y297010D01*
G01X20363390Y417152D02*
G01X20443400Y417152D01*
G01X20519854Y377020D02*
G01X20508424Y371432D01*
G01X20496994Y360002D01*
G01X20491152Y342730D01*
G01X20491152Y331300D01*
G01X20496994Y314282D01*
G01X20508424Y302852D01*
G01X20519854Y297010D01*
G01X20536872Y297010D01*
G01X20548302Y302852D01*
G01X20559732Y314282D01*
G01X20565574Y331300D01*
G01X20565574Y342730D01*
G01X20559732Y360002D01*
G01X20548302Y371432D01*
G01X20536872Y377020D01*
G01X20519854Y377020D01*
G01X20613326Y377020D02*
G01X20613326Y257132D01*
G01X20613326Y360002D02*
G01X20624756Y371432D01*
G01X20636186Y377020D01*
G01X20653458Y377020D01*
G01X20664888Y371432D01*
G01X20676318Y360002D01*
G01X20681906Y342730D01*
G01X20681906Y331300D01*
G01X20676318Y314282D01*
G01X20664888Y302852D01*
G01X20653458Y297010D01*
G01X20636186Y297010D01*
G01X20624756Y302852D01*
G01X20613326Y314282D01*
G01X20857674Y417152D02*
G01X20857674Y297010D01*
G01X20857674Y297010D02*
G01X20926254Y297010D01*
G01X21042586Y377020D02*
G01X21042586Y297010D01*
G01X21042586Y360002D02*
G01X21031156Y371432D01*
G01X21019726Y377020D01*
G01X21002708Y377020D01*
G01X20991278Y371432D01*
G01X20979848Y360002D01*
G01X20974006Y342730D01*
G01X20974006Y331300D01*
G01X20979848Y314282D01*
G01X20991278Y302852D01*
G01X21002708Y297010D01*
G01X21019726Y297010D01*
G01X21031156Y302852D01*
G01X21042586Y314282D01*
G01X21096180Y377020D02*
G01X21130470Y297010D01*
G01X21164760Y377020D02*
G01X21130470Y297010D01*
G01X21119040Y274150D01*
G01X21107610Y262720D01*
G01X21096180Y257132D01*
G01X21090338Y257132D01*
G01X21212512Y342730D02*
G01X21281092Y342730D01*
G01X21281092Y354160D01*
G01X21275504Y365590D01*
G01X21269662Y371432D01*
G01X21258232Y377020D01*
G01X21241214Y377020D01*
G01X21229784Y371432D01*
G01X21218354Y360002D01*
G01X21212512Y342730D01*
G01X21212512Y331300D01*
G01X21218354Y314282D01*
G01X21229784Y302852D01*
G01X21241214Y297010D01*
G01X21258232Y297010D01*
G01X21269662Y302852D01*
G01X21281092Y314282D01*
G01X21328844Y377020D02*
G01X21328844Y297010D01*
G01X21328844Y342730D02*
G01X21334686Y360002D01*
G01X21346116Y371432D01*
G01X21357546Y377020D01*
G01X21374564Y377020D01*
G01X21422316Y348572D02*
G01X21525186Y348572D01*
G01X21572938Y417152D02*
G01X21572938Y297010D01*
G01X21572938Y417152D02*
G01X21624500Y417152D01*
G01X21641518Y411310D01*
G01X21647360Y405722D01*
G01X21652948Y394292D01*
G01X21652948Y382862D01*
G01X21647360Y371432D01*
G01X21641518Y365590D01*
G01X21624500Y360002D01*
G01X21572938Y360002D02*
G01X21624500Y360002D01*
G01X21641518Y354160D01*
G01X21647360Y348572D01*
G01X21652948Y337142D01*
G01X21652948Y319870D01*
G01X21647360Y308440D01*
G01X21641518Y302852D01*
G01X21624500Y297010D01*
G01X21572938Y297010D01*
G01X21729402Y377020D02*
G01X21717972Y371432D01*
G01X21706542Y360002D01*
G01X21700700Y342730D01*
G01X21700700Y331300D01*
G01X21706542Y314282D01*
G01X21717972Y302852D01*
G01X21729402Y297010D01*
G01X21746420Y297010D01*
G01X21757850Y302852D01*
G01X21769280Y314282D01*
G01X21775122Y331300D01*
G01X21775122Y342730D01*
G01X21769280Y360002D01*
G01X21757850Y371432D01*
G01X21746420Y377020D01*
G01X21729402Y377020D01*
G01X21840146Y417152D02*
G01X21840146Y319870D01*
G01X21845734Y302852D01*
G01X21857164Y297010D01*
G01X21868594Y297010D01*
G01X21822874Y377020D02*
G01X21863006Y377020D01*
G01X21933618Y417152D02*
G01X21933618Y319870D01*
G01X21939206Y302852D01*
G01X21950636Y297010D01*
G01X21962066Y297010D01*
G01X21916346Y377020D02*
G01X21956478Y377020D01*
G01X22038520Y377020D02*
G01X22027090Y371432D01*
G01X22015660Y360002D01*
G01X22009818Y342730D01*
G01X22009818Y331300D01*
G01X22015660Y314282D01*
G01X22027090Y302852D01*
G01X22038520Y297010D01*
G01X22055538Y297010D01*
G01X22066968Y302852D01*
G01X22078398Y314282D01*
G01X22084240Y331300D01*
G01X22084240Y342730D01*
G01X22078398Y360002D01*
G01X22066968Y371432D01*
G01X22055538Y377020D01*
G01X22038520Y377020D01*
G01X22131992Y377020D02*
G01X22131992Y297010D01*
G01X22131992Y354160D02*
G01X22149264Y371432D01*
G01X22160694Y377020D01*
G01X22177712Y377020D01*
G01X22189142Y371432D01*
G01X22194984Y354160D01*
G01X22194984Y297010D01*
G01X22194984Y354160D02*
G01X22212002Y371432D01*
G01X22223432Y377020D01*
G01X22240704Y377020D01*
G01X22252134Y371432D01*
G01X22257722Y354160D01*
G01X22257722Y297010D01*
G01X22433490Y417152D02*
G01X22433490Y297010D01*
G01X22433490Y297010D02*
G01X22502070Y297010D01*
G01X22618402Y377020D02*
G01X22618402Y297010D01*
G01X22618402Y360002D02*
G01X22606972Y371432D01*
G01X22595542Y377020D01*
G01X22578524Y377020D01*
G01X22567094Y371432D01*
G01X22555664Y360002D01*
G01X22549822Y342730D01*
G01X22549822Y331300D01*
G01X22555664Y314282D01*
G01X22567094Y302852D01*
G01X22578524Y297010D01*
G01X22595542Y297010D01*
G01X22606972Y302852D01*
G01X22618402Y314282D01*
G01X22671996Y377020D02*
G01X22706286Y297010D01*
G01X22740576Y377020D02*
G01X22706286Y297010D01*
G01X22694856Y274150D01*
G01X22683426Y262720D01*
G01X22671996Y257132D01*
G01X22666154Y257132D01*
G01X22788328Y342730D02*
G01X22856908Y342730D01*
G01X22856908Y354160D01*
G01X22851320Y365590D01*
G01X22845478Y371432D01*
G01X22834048Y377020D01*
G01X22817030Y377020D01*
G01X22805600Y371432D01*
G01X22794170Y360002D01*
G01X22788328Y342730D01*
G01X22788328Y331300D01*
G01X22794170Y314282D01*
G01X22805600Y302852D01*
G01X22817030Y297010D01*
G01X22834048Y297010D01*
G01X22845478Y302852D01*
G01X22856908Y314282D01*
G01X22904660Y377020D02*
G01X22904660Y297010D01*
G01X22904660Y342730D02*
G01X22910502Y360002D01*
G01X22921932Y371432D01*
G01X22933362Y377020D01*
G01X22950380Y377020D01*
G01X8733891Y-163420D02*
G01X8676741Y-243430D01*
G01X8762593Y-243430D01*
G01X8733891Y-163420D02*
G01X8733891Y-283562D01*
G01X10170914Y-163420D02*
G01X10113764Y-283562D01*
G01X10090904Y-163420D02*
G01X10170914Y-163420D01*
G01X10247368Y-163420D02*
G01X10230096Y-169262D01*
G01X10224508Y-180692D01*
G01X10224508Y-192122D01*
G01X10230096Y-203552D01*
G01X10241526Y-209140D01*
G01X10264386Y-214982D01*
G01X10281658Y-220570D01*
G01X10293088Y-232000D01*
G01X10298676Y-243430D01*
G01X10298676Y-260702D01*
G01X10293088Y-272132D01*
G01X10287246Y-277720D01*
G01X10270228Y-283562D01*
G01X10247368Y-283562D01*
G01X10230096Y-277720D01*
G01X10224508Y-272132D01*
G01X10218666Y-260702D01*
G01X10218666Y-243430D01*
G01X10224508Y-232000D01*
G01X10235938Y-220570D01*
G01X10252956Y-214982D01*
G01X10275816Y-209140D01*
G01X10287246Y-203552D01*
G01X10293088Y-192122D01*
G01X10293088Y-180692D01*
G01X10287246Y-169262D01*
G01X10270228Y-163420D01*
G01X10247368Y-163420D01*
G01X10352270Y-254860D02*
G01X10346428Y-260702D01*
G01X10352270Y-266290D01*
G01X10357858Y-260702D01*
G01X10352270Y-254860D01*
G01X10485620Y-163420D02*
G01X10428470Y-283562D01*
G01X10405610Y-163420D02*
G01X10485620Y-163420D01*
G01X10533372Y-203552D02*
G01X10533372Y-283562D01*
G01X10533372Y-226412D02*
G01X10550644Y-209140D01*
G01X10562074Y-203552D01*
G01X10579092Y-203552D01*
G01X10590522Y-209140D01*
G01X10596364Y-226412D01*
G01X10596364Y-283562D01*
G01X10596364Y-226412D02*
G01X10613382Y-209140D01*
G01X10624812Y-203552D01*
G01X10642084Y-203552D01*
G01X10653514Y-209140D01*
G01X10659102Y-226412D01*
G01X10659102Y-283562D01*
G01X10706854Y-163420D02*
G01X10712696Y-169262D01*
G01X10718284Y-163420D01*
G01X10712696Y-157832D01*
G01X10706854Y-163420D01*
G01X10712696Y-203552D02*
G01X10712696Y-283562D01*
G01X10766036Y-163420D02*
G01X10766036Y-283562D01*
G01X10853920Y-140560D02*
G01X10842490Y-151990D01*
G01X10831060Y-169262D01*
G01X10819630Y-192122D01*
G01X10813788Y-220570D01*
G01X10813788Y-243430D01*
G01X10819630Y-272132D01*
G01X10831060Y-294992D01*
G01X10842490Y-312010D01*
G01X10853920Y-323440D01*
G01X10907514Y-192122D02*
G01X10907514Y-186280D01*
G01X10913102Y-174850D01*
G01X10918944Y-169262D01*
G01X10930374Y-163420D01*
G01X10953234Y-163420D01*
G01X10964664Y-169262D01*
G01X10970252Y-174850D01*
G01X10976094Y-186280D01*
G01X10976094Y-197710D01*
G01X10970252Y-209140D01*
G01X10958822Y-226412D01*
G01X10901672Y-283562D01*
G01X10981682Y-283562D01*
G01X11035276Y-254860D02*
G01X11029434Y-260702D01*
G01X11035276Y-266290D01*
G01X11040864Y-260702D01*
G01X11035276Y-254860D01*
G01X11122906Y-163420D02*
G01X11105888Y-169262D01*
G01X11094458Y-186280D01*
G01X11088616Y-214982D01*
G01X11088616Y-232000D01*
G01X11094458Y-260702D01*
G01X11105888Y-277720D01*
G01X11122906Y-283562D01*
G01X11134336Y-283562D01*
G01X11151608Y-277720D01*
G01X11163038Y-260702D01*
G01X11168626Y-232000D01*
G01X11168626Y-214982D01*
G01X11163038Y-186280D01*
G01X11151608Y-169262D01*
G01X11134336Y-163420D01*
G01X11122906Y-163420D01*
G01X11250668Y-163420D02*
G01X11233650Y-169262D01*
G01X11222220Y-186280D01*
G01X11216378Y-214982D01*
G01X11216378Y-232000D01*
G01X11222220Y-260702D01*
G01X11233650Y-277720D01*
G01X11250668Y-283562D01*
G01X11262098Y-283562D01*
G01X11279370Y-277720D01*
G01X11290800Y-260702D01*
G01X11296388Y-232000D01*
G01X11296388Y-214982D01*
G01X11290800Y-186280D01*
G01X11279370Y-169262D01*
G01X11262098Y-163420D01*
G01X11250668Y-163420D01*
G01X11378430Y-163420D02*
G01X11361412Y-169262D01*
G01X11349982Y-186280D01*
G01X11344140Y-214982D01*
G01X11344140Y-232000D01*
G01X11349982Y-260702D01*
G01X11361412Y-277720D01*
G01X11378430Y-283562D01*
G01X11389860Y-283562D01*
G01X11407132Y-277720D01*
G01X11418562Y-260702D01*
G01X11424150Y-232000D01*
G01X11424150Y-214982D01*
G01X11418562Y-186280D01*
G01X11407132Y-169262D01*
G01X11389860Y-163420D01*
G01X11378430Y-163420D01*
G01X11471902Y-203552D02*
G01X11471902Y-283562D01*
G01X11471902Y-226412D02*
G01X11489174Y-209140D01*
G01X11500604Y-203552D01*
G01X11517622Y-203552D01*
G01X11529052Y-209140D01*
G01X11534894Y-226412D01*
G01X11534894Y-283562D01*
G01X11534894Y-226412D02*
G01X11551912Y-209140D01*
G01X11563342Y-203552D01*
G01X11580614Y-203552D01*
G01X11592044Y-209140D01*
G01X11597632Y-226412D01*
G01X11597632Y-283562D01*
G01X11645384Y-203552D02*
G01X11645384Y-283562D01*
G01X11645384Y-226412D02*
G01X11662656Y-209140D01*
G01X11674086Y-203552D01*
G01X11691104Y-203552D01*
G01X11702534Y-209140D01*
G01X11708376Y-226412D01*
G01X11708376Y-283562D01*
G01X11708376Y-226412D02*
G01X11725394Y-209140D01*
G01X11736824Y-203552D01*
G01X11754096Y-203552D01*
G01X11765526Y-209140D01*
G01X11771114Y-226412D01*
G01X11771114Y-283562D01*
G01X11818866Y-140560D02*
G01X11830296Y-151990D01*
G01X11841726Y-169262D01*
G01X11853156Y-192122D01*
G01X11858998Y-220570D01*
G01X11858998Y-243430D01*
G01X11853156Y-272132D01*
G01X11841726Y-294992D01*
G01X11830296Y-312010D01*
G01X11818866Y-323440D01*
G01X13882253Y-163420D02*
G01X13882253Y-283562D01*
G01X13882253Y-163420D02*
G01X13962263Y-283562D01*
G01X13962263Y-163420D02*
G01X13962263Y-283562D01*
G01X14010015Y-163420D02*
G01X14010015Y-283562D01*
G01X14010015Y-163420D02*
G01X14061577Y-163420D01*
G01X14078595Y-169262D01*
G01X14084437Y-174850D01*
G01X14090025Y-186280D01*
G01X14090025Y-203552D01*
G01X14084437Y-214982D01*
G01X14078595Y-220570D01*
G01X14061577Y-226412D01*
G01X14010015Y-226412D01*
G01X14177909Y-163420D02*
G01X14177909Y-283562D01*
G01X14137777Y-163420D02*
G01X14217787Y-163420D01*
G01X14265539Y-163420D02*
G01X14265539Y-283562D01*
G01X14345549Y-163420D02*
G01X14345549Y-283562D01*
G01X14265539Y-220570D02*
G01X14345549Y-220570D01*
G01X15343660Y-163420D02*
G01X15343660Y-283562D01*
G01X15343660Y-163420D02*
G01X15395222Y-163420D01*
G01X15412240Y-169262D01*
G01X15418082Y-174850D01*
G01X15423670Y-186280D01*
G01X15423670Y-197710D01*
G01X15418082Y-209140D01*
G01X15412240Y-214982D01*
G01X15395222Y-220570D01*
G01X15343660Y-220570D01*
G01X15383792Y-220570D02*
G01X15423670Y-283562D01*
G01X15500124Y-203552D02*
G01X15488694Y-209140D01*
G01X15477264Y-220570D01*
G01X15471422Y-237842D01*
G01X15471422Y-249272D01*
G01X15477264Y-266290D01*
G01X15488694Y-277720D01*
G01X15500124Y-283562D01*
G01X15517142Y-283562D01*
G01X15528572Y-277720D01*
G01X15540002Y-266290D01*
G01X15545844Y-249272D01*
G01X15545844Y-237842D01*
G01X15540002Y-220570D01*
G01X15528572Y-209140D01*
G01X15517142Y-203552D01*
G01X15500124Y-203552D01*
G01X15593596Y-203552D02*
G01X15593596Y-260702D01*
G01X15599438Y-277720D01*
G01X15610868Y-283562D01*
G01X15627886Y-283562D01*
G01X15639316Y-277720D01*
G01X15656588Y-260702D01*
G01X15656588Y-203552D02*
G01X15656588Y-283562D01*
G01X15704340Y-203552D02*
G01X15704340Y-283562D01*
G01X15704340Y-226412D02*
G01X15721612Y-209140D01*
G01X15733042Y-203552D01*
G01X15750060Y-203552D01*
G01X15761490Y-209140D01*
G01X15767332Y-226412D01*
G01X15767332Y-283562D01*
G01X15883664Y-163420D02*
G01X15883664Y-283562D01*
G01X15883664Y-220570D02*
G01X15872234Y-209140D01*
G01X15860804Y-203552D01*
G01X15843786Y-203552D01*
G01X15832356Y-209140D01*
G01X15820926Y-220570D01*
G01X15815084Y-237842D01*
G01X15815084Y-249272D01*
G01X15820926Y-266290D01*
G01X15832356Y-277720D01*
G01X15843786Y-283562D01*
G01X15860804Y-283562D01*
G01X15872234Y-277720D01*
G01X15883664Y-266290D01*
G01X16774841Y-163420D02*
G01X16820561Y-283562D01*
G01X16866281Y-163420D02*
G01X16820561Y-283562D01*
G01X16914033Y-163420D02*
G01X16919875Y-169262D01*
G01X16925463Y-163420D01*
G01X16919875Y-157832D01*
G01X16914033Y-163420D01*
G01X16919875Y-203552D02*
G01X16919875Y-283562D01*
G01X17041795Y-203552D02*
G01X17041795Y-283562D01*
G01X17041795Y-220570D02*
G01X17030365Y-209140D01*
G01X17018935Y-203552D01*
G01X17001917Y-203552D01*
G01X16990487Y-209140D01*
G01X16979057Y-220570D01*
G01X16973215Y-237842D01*
G01X16973215Y-249272D01*
G01X16979057Y-266290D01*
G01X16990487Y-277720D01*
G01X17001917Y-283562D01*
G01X17018935Y-283562D01*
G01X17030365Y-277720D01*
G01X17041795Y-266290D01*
G01X20403522Y-163420D02*
G01X20403522Y-283562D01*
G01X20363390Y-163420D02*
G01X20443400Y-163420D01*
G01X20519854Y-203552D02*
G01X20508424Y-209140D01*
G01X20496994Y-220570D01*
G01X20491152Y-237842D01*
G01X20491152Y-249272D01*
G01X20496994Y-266290D01*
G01X20508424Y-277720D01*
G01X20519854Y-283562D01*
G01X20536872Y-283562D01*
G01X20548302Y-277720D01*
G01X20559732Y-266290D01*
G01X20565574Y-249272D01*
G01X20565574Y-237842D01*
G01X20559732Y-220570D01*
G01X20548302Y-209140D01*
G01X20536872Y-203552D01*
G01X20519854Y-203552D01*
G01X20613326Y-203552D02*
G01X20613326Y-323440D01*
G01X20613326Y-220570D02*
G01X20624756Y-209140D01*
G01X20636186Y-203552D01*
G01X20653458Y-203552D01*
G01X20664888Y-209140D01*
G01X20676318Y-220570D01*
G01X20681906Y-237842D01*
G01X20681906Y-249272D01*
G01X20676318Y-266290D01*
G01X20664888Y-277720D01*
G01X20653458Y-283562D01*
G01X20636186Y-283562D01*
G01X20624756Y-277720D01*
G01X20613326Y-266290D01*
G01X20857674Y-163420D02*
G01X20857674Y-283562D01*
G01X20857674Y-283562D02*
G01X20926254Y-283562D01*
G01X21042586Y-203552D02*
G01X21042586Y-283562D01*
G01X21042586Y-220570D02*
G01X21031156Y-209140D01*
G01X21019726Y-203552D01*
G01X21002708Y-203552D01*
G01X20991278Y-209140D01*
G01X20979848Y-220570D01*
G01X20974006Y-237842D01*
G01X20974006Y-249272D01*
G01X20979848Y-266290D01*
G01X20991278Y-277720D01*
G01X21002708Y-283562D01*
G01X21019726Y-283562D01*
G01X21031156Y-277720D01*
G01X21042586Y-266290D01*
G01X21096180Y-203552D02*
G01X21130470Y-283562D01*
G01X21164760Y-203552D02*
G01X21130470Y-283562D01*
G01X21119040Y-306422D01*
G01X21107610Y-317852D01*
G01X21096180Y-323440D01*
G01X21090338Y-323440D01*
G01X21212512Y-237842D02*
G01X21281092Y-237842D01*
G01X21281092Y-226412D01*
G01X21275504Y-214982D01*
G01X21269662Y-209140D01*
G01X21258232Y-203552D01*
G01X21241214Y-203552D01*
G01X21229784Y-209140D01*
G01X21218354Y-220570D01*
G01X21212512Y-237842D01*
G01X21212512Y-249272D01*
G01X21218354Y-266290D01*
G01X21229784Y-277720D01*
G01X21241214Y-283562D01*
G01X21258232Y-283562D01*
G01X21269662Y-277720D01*
G01X21281092Y-266290D01*
G01X21328844Y-203552D02*
G01X21328844Y-283562D01*
G01X21328844Y-237842D02*
G01X21334686Y-220570D01*
G01X21346116Y-209140D01*
G01X21357546Y-203552D01*
G01X21374564Y-203552D01*
G01X21422316Y-232000D02*
G01X21525186Y-232000D01*
G01X21572938Y-163420D02*
G01X21572938Y-283562D01*
G01X21572938Y-163420D02*
G01X21624500Y-163420D01*
G01X21641518Y-169262D01*
G01X21647360Y-174850D01*
G01X21652948Y-186280D01*
G01X21652948Y-197710D01*
G01X21647360Y-209140D01*
G01X21641518Y-214982D01*
G01X21624500Y-220570D01*
G01X21572938Y-220570D02*
G01X21624500Y-220570D01*
G01X21641518Y-226412D01*
G01X21647360Y-232000D01*
G01X21652948Y-243430D01*
G01X21652948Y-260702D01*
G01X21647360Y-272132D01*
G01X21641518Y-277720D01*
G01X21624500Y-283562D01*
G01X21572938Y-283562D01*
G01X21729402Y-203552D02*
G01X21717972Y-209140D01*
G01X21706542Y-220570D01*
G01X21700700Y-237842D01*
G01X21700700Y-249272D01*
G01X21706542Y-266290D01*
G01X21717972Y-277720D01*
G01X21729402Y-283562D01*
G01X21746420Y-283562D01*
G01X21757850Y-277720D01*
G01X21769280Y-266290D01*
G01X21775122Y-249272D01*
G01X21775122Y-237842D01*
G01X21769280Y-220570D01*
G01X21757850Y-209140D01*
G01X21746420Y-203552D01*
G01X21729402Y-203552D01*
G01X21840146Y-163420D02*
G01X21840146Y-260702D01*
G01X21845734Y-277720D01*
G01X21857164Y-283562D01*
G01X21868594Y-283562D01*
G01X21822874Y-203552D02*
G01X21863006Y-203552D01*
G01X21933618Y-163420D02*
G01X21933618Y-260702D01*
G01X21939206Y-277720D01*
G01X21950636Y-283562D01*
G01X21962066Y-283562D01*
G01X21916346Y-203552D02*
G01X21956478Y-203552D01*
G01X22038520Y-203552D02*
G01X22027090Y-209140D01*
G01X22015660Y-220570D01*
G01X22009818Y-237842D01*
G01X22009818Y-249272D01*
G01X22015660Y-266290D01*
G01X22027090Y-277720D01*
G01X22038520Y-283562D01*
G01X22055538Y-283562D01*
G01X22066968Y-277720D01*
G01X22078398Y-266290D01*
G01X22084240Y-249272D01*
G01X22084240Y-237842D01*
G01X22078398Y-220570D01*
G01X22066968Y-209140D01*
G01X22055538Y-203552D01*
G01X22038520Y-203552D01*
G01X22131992Y-203552D02*
G01X22131992Y-283562D01*
G01X22131992Y-226412D02*
G01X22149264Y-209140D01*
G01X22160694Y-203552D01*
G01X22177712Y-203552D01*
G01X22189142Y-209140D01*
G01X22194984Y-226412D01*
G01X22194984Y-283562D01*
G01X22194984Y-226412D02*
G01X22212002Y-209140D01*
G01X22223432Y-203552D01*
G01X22240704Y-203552D01*
G01X22252134Y-209140D01*
G01X22257722Y-226412D01*
G01X22257722Y-283562D01*
G01X22433490Y-163420D02*
G01X22433490Y-283562D01*
G01X22433490Y-283562D02*
G01X22502070Y-283562D01*
G01X22618402Y-203552D02*
G01X22618402Y-283562D01*
G01X22618402Y-220570D02*
G01X22606972Y-209140D01*
G01X22595542Y-203552D01*
G01X22578524Y-203552D01*
G01X22567094Y-209140D01*
G01X22555664Y-220570D01*
G01X22549822Y-237842D01*
G01X22549822Y-249272D01*
G01X22555664Y-266290D01*
G01X22567094Y-277720D01*
G01X22578524Y-283562D01*
G01X22595542Y-283562D01*
G01X22606972Y-277720D01*
G01X22618402Y-266290D01*
G01X22671996Y-203552D02*
G01X22706286Y-283562D01*
G01X22740576Y-203552D02*
G01X22706286Y-283562D01*
G01X22694856Y-306422D01*
G01X22683426Y-317852D01*
G01X22671996Y-323440D01*
G01X22666154Y-323440D01*
G01X22788328Y-237842D02*
G01X22856908Y-237842D01*
G01X22856908Y-226412D01*
G01X22851320Y-214982D01*
G01X22845478Y-209140D01*
G01X22834048Y-203552D01*
G01X22817030Y-203552D01*
G01X22805600Y-209140D01*
G01X22794170Y-220570D01*
G01X22788328Y-237842D01*
G01X22788328Y-249272D01*
G01X22794170Y-266290D01*
G01X22805600Y-277720D01*
G01X22817030Y-283562D01*
G01X22834048Y-283562D01*
G01X22845478Y-277720D01*
G01X22856908Y-266290D01*
G01X22904660Y-203552D02*
G01X22904660Y-283562D01*
G01X22904660Y-237842D02*
G01X22910502Y-220570D01*
G01X22921932Y-209140D01*
G01X22933362Y-203552D01*
G01X22950380Y-203552D01*
G01X8705443Y-743991D02*
G01X8688171Y-749833D01*
G01X8682583Y-761263D01*
G01X8682583Y-772693D01*
G01X8688171Y-784123D01*
G01X8699601Y-789711D01*
G01X8722461Y-795553D01*
G01X8739733Y-801141D01*
G01X8751163Y-812571D01*
G01X8756751Y-824001D01*
G01X8756751Y-841273D01*
G01X8751163Y-852703D01*
G01X8745321Y-858291D01*
G01X8728303Y-864133D01*
G01X8705443Y-864133D01*
G01X8688171Y-858291D01*
G01X8682583Y-852703D01*
G01X8676741Y-841273D01*
G01X8676741Y-824001D01*
G01X8682583Y-812571D01*
G01X8694013Y-801141D01*
G01X8711031Y-795553D01*
G01X8733891Y-789711D01*
G01X8745321Y-784123D01*
G01X8751163Y-772693D01*
G01X8751163Y-761263D01*
G01X8745321Y-749833D01*
G01X8728303Y-743991D01*
G01X8705443Y-743991D01*
G01X10148054Y-743991D02*
G01X10090904Y-824001D01*
G01X10176756Y-824001D01*
G01X10148054Y-743991D02*
G01X10148054Y-864133D01*
G01X10224508Y-766851D02*
G01X10235938Y-761263D01*
G01X10253210Y-743991D01*
G01X10253210Y-864133D01*
G01X10306804Y-835431D02*
G01X10300962Y-841273D01*
G01X10306804Y-846861D01*
G01X10312392Y-841273D01*
G01X10306804Y-835431D01*
G01X10371574Y-743991D02*
G01X10434566Y-743991D01*
G01X10400276Y-789711D01*
G01X10417294Y-789711D01*
G01X10428724Y-795553D01*
G01X10434566Y-801141D01*
G01X10440154Y-818413D01*
G01X10440154Y-829843D01*
G01X10434566Y-846861D01*
G01X10423136Y-858291D01*
G01X10405864Y-864133D01*
G01X10388846Y-864133D01*
G01X10371574Y-858291D01*
G01X10365986Y-852703D01*
G01X10360144Y-841273D01*
G01X10487906Y-784123D02*
G01X10550898Y-864133D01*
G01X10550898Y-784123D02*
G01X10487906Y-864133D01*
G01X10655800Y-743991D02*
G01X10598650Y-824001D01*
G01X10684502Y-824001D01*
G01X10655800Y-743991D02*
G01X10655800Y-864133D01*
G01X10732254Y-766851D02*
G01X10743684Y-761263D01*
G01X10760956Y-743991D01*
G01X10760956Y-864133D01*
G01X10814550Y-835431D02*
G01X10808708Y-841273D01*
G01X10814550Y-846861D01*
G01X10820138Y-841273D01*
G01X10814550Y-835431D01*
G01X10879320Y-743991D02*
G01X10942312Y-743991D01*
G01X10908022Y-789711D01*
G01X10925040Y-789711D01*
G01X10936470Y-795553D01*
G01X10942312Y-801141D01*
G01X10947900Y-818413D01*
G01X10947900Y-829843D01*
G01X10942312Y-846861D01*
G01X10930882Y-858291D01*
G01X10913610Y-864133D01*
G01X10896592Y-864133D01*
G01X10879320Y-858291D01*
G01X10873732Y-852703D01*
G01X10867890Y-841273D01*
G01X10995652Y-784123D02*
G01X10995652Y-864133D01*
G01X10995652Y-806983D02*
G01X11012924Y-789711D01*
G01X11024354Y-784123D01*
G01X11041372Y-784123D01*
G01X11052802Y-789711D01*
G01X11058644Y-806983D01*
G01X11058644Y-864133D01*
G01X11058644Y-806983D02*
G01X11075662Y-789711D01*
G01X11087092Y-784123D01*
G01X11104364Y-784123D01*
G01X11115794Y-789711D01*
G01X11121382Y-806983D01*
G01X11121382Y-864133D01*
G01X11169134Y-743991D02*
G01X11174976Y-749833D01*
G01X11180564Y-743991D01*
G01X11174976Y-738403D01*
G01X11169134Y-743991D01*
G01X11174976Y-784123D02*
G01X11174976Y-864133D01*
G01X11228316Y-743991D02*
G01X11228316Y-864133D01*
G01X11316200Y-721131D02*
G01X11304770Y-732561D01*
G01X11293340Y-749833D01*
G01X11281910Y-772693D01*
G01X11276068Y-801141D01*
G01X11276068Y-824001D01*
G01X11281910Y-852703D01*
G01X11293340Y-875563D01*
G01X11304770Y-892581D01*
G01X11316200Y-904011D01*
G01X11363952Y-766851D02*
G01X11375382Y-761263D01*
G01X11392654Y-743991D01*
G01X11392654Y-864133D01*
G01X11446248Y-835431D02*
G01X11440406Y-841273D01*
G01X11446248Y-846861D01*
G01X11451836Y-841273D01*
G01X11446248Y-835431D01*
G01X11533878Y-743991D02*
G01X11516860Y-749833D01*
G01X11505430Y-766851D01*
G01X11499588Y-795553D01*
G01X11499588Y-812571D01*
G01X11505430Y-841273D01*
G01X11516860Y-858291D01*
G01X11533878Y-864133D01*
G01X11545308Y-864133D01*
G01X11562580Y-858291D01*
G01X11574010Y-841273D01*
G01X11579598Y-812571D01*
G01X11579598Y-795553D01*
G01X11574010Y-766851D01*
G01X11562580Y-749833D01*
G01X11545308Y-743991D01*
G01X11533878Y-743991D01*
G01X11695930Y-743991D02*
G01X11638780Y-743991D01*
G01X11633192Y-795553D01*
G01X11638780Y-789711D01*
G01X11656052Y-784123D01*
G01X11673070Y-784123D01*
G01X11690342Y-789711D01*
G01X11701772Y-801141D01*
G01X11707360Y-818413D01*
G01X11707360Y-829843D01*
G01X11701772Y-846861D01*
G01X11690342Y-858291D01*
G01X11673070Y-864133D01*
G01X11656052Y-864133D01*
G01X11638780Y-858291D01*
G01X11633192Y-852703D01*
G01X11627350Y-841273D01*
G01X11789402Y-743991D02*
G01X11772384Y-749833D01*
G01X11760954Y-766851D01*
G01X11755112Y-795553D01*
G01X11755112Y-812571D01*
G01X11760954Y-841273D01*
G01X11772384Y-858291D01*
G01X11789402Y-864133D01*
G01X11800832Y-864133D01*
G01X11818104Y-858291D01*
G01X11829534Y-841273D01*
G01X11835122Y-812571D01*
G01X11835122Y-795553D01*
G01X11829534Y-766851D01*
G01X11818104Y-749833D01*
G01X11800832Y-743991D01*
G01X11789402Y-743991D01*
G01X11882874Y-784123D02*
G01X11945866Y-864133D01*
G01X11945866Y-784123D02*
G01X11882874Y-864133D01*
G01X11993618Y-766851D02*
G01X12005048Y-761263D01*
G01X12022320Y-743991D01*
G01X12022320Y-864133D01*
G01X12075914Y-835431D02*
G01X12070072Y-841273D01*
G01X12075914Y-846861D01*
G01X12081502Y-841273D01*
G01X12075914Y-835431D01*
G01X12163544Y-743991D02*
G01X12146526Y-749833D01*
G01X12135096Y-766851D01*
G01X12129254Y-795553D01*
G01X12129254Y-812571D01*
G01X12135096Y-841273D01*
G01X12146526Y-858291D01*
G01X12163544Y-864133D01*
G01X12174974Y-864133D01*
G01X12192246Y-858291D01*
G01X12203676Y-841273D01*
G01X12209264Y-812571D01*
G01X12209264Y-795553D01*
G01X12203676Y-766851D01*
G01X12192246Y-749833D01*
G01X12174974Y-743991D01*
G01X12163544Y-743991D01*
G01X12325596Y-743991D02*
G01X12268446Y-743991D01*
G01X12262858Y-795553D01*
G01X12268446Y-789711D01*
G01X12285718Y-784123D01*
G01X12302736Y-784123D01*
G01X12320008Y-789711D01*
G01X12331438Y-801141D01*
G01X12337026Y-818413D01*
G01X12337026Y-829843D01*
G01X12331438Y-846861D01*
G01X12320008Y-858291D01*
G01X12302736Y-864133D01*
G01X12285718Y-864133D01*
G01X12268446Y-858291D01*
G01X12262858Y-852703D01*
G01X12257016Y-841273D01*
G01X12419068Y-743991D02*
G01X12402050Y-749833D01*
G01X12390620Y-766851D01*
G01X12384778Y-795553D01*
G01X12384778Y-812571D01*
G01X12390620Y-841273D01*
G01X12402050Y-858291D01*
G01X12419068Y-864133D01*
G01X12430498Y-864133D01*
G01X12447770Y-858291D01*
G01X12459200Y-841273D01*
G01X12464788Y-812571D01*
G01X12464788Y-795553D01*
G01X12459200Y-766851D01*
G01X12447770Y-749833D01*
G01X12430498Y-743991D01*
G01X12419068Y-743991D01*
G01X12512540Y-784123D02*
G01X12512540Y-864133D01*
G01X12512540Y-806983D02*
G01X12529812Y-789711D01*
G01X12541242Y-784123D01*
G01X12558260Y-784123D01*
G01X12569690Y-789711D01*
G01X12575532Y-806983D01*
G01X12575532Y-864133D01*
G01X12575532Y-806983D02*
G01X12592550Y-789711D01*
G01X12603980Y-784123D01*
G01X12621252Y-784123D01*
G01X12632682Y-789711D01*
G01X12638270Y-806983D01*
G01X12638270Y-864133D01*
G01X12686022Y-784123D02*
G01X12686022Y-864133D01*
G01X12686022Y-806983D02*
G01X12703294Y-789711D01*
G01X12714724Y-784123D01*
G01X12731742Y-784123D01*
G01X12743172Y-789711D01*
G01X12749014Y-806983D01*
G01X12749014Y-864133D01*
G01X12749014Y-806983D02*
G01X12766032Y-789711D01*
G01X12777462Y-784123D01*
G01X12794734Y-784123D01*
G01X12806164Y-789711D01*
G01X12811752Y-806983D01*
G01X12811752Y-864133D01*
G01X12859504Y-721131D02*
G01X12870934Y-732561D01*
G01X12882364Y-749833D01*
G01X12893794Y-772693D01*
G01X12899636Y-801141D01*
G01X12899636Y-824001D01*
G01X12893794Y-852703D01*
G01X12882364Y-875563D01*
G01X12870934Y-892581D01*
G01X12859504Y-904011D01*
G01X13882253Y-743991D02*
G01X13882253Y-864133D01*
G01X13882253Y-743991D02*
G01X13933815Y-743991D01*
G01X13950833Y-749833D01*
G01X13956675Y-755421D01*
G01X13962263Y-766851D01*
G01X13962263Y-784123D01*
G01X13956675Y-795553D01*
G01X13950833Y-801141D01*
G01X13933815Y-806983D01*
G01X13882253Y-806983D01*
G01X14050147Y-743991D02*
G01X14050147Y-864133D01*
G01X14010015Y-743991D02*
G01X14090025Y-743991D01*
G01X14137777Y-743991D02*
G01X14137777Y-864133D01*
G01X14217787Y-743991D02*
G01X14217787Y-864133D01*
G01X14137777Y-801141D02*
G01X14217787Y-801141D01*
G01X15343660Y-743991D02*
G01X15343660Y-864133D01*
G01X15343660Y-743991D02*
G01X15395222Y-743991D01*
G01X15412240Y-749833D01*
G01X15418082Y-755421D01*
G01X15423670Y-766851D01*
G01X15423670Y-778281D01*
G01X15418082Y-789711D01*
G01X15412240Y-795553D01*
G01X15395222Y-801141D01*
G01X15343660Y-801141D01*
G01X15383792Y-801141D02*
G01X15423670Y-864133D01*
G01X15500124Y-784123D02*
G01X15488694Y-789711D01*
G01X15477264Y-801141D01*
G01X15471422Y-818413D01*
G01X15471422Y-829843D01*
G01X15477264Y-846861D01*
G01X15488694Y-858291D01*
G01X15500124Y-864133D01*
G01X15517142Y-864133D01*
G01X15528572Y-858291D01*
G01X15540002Y-846861D01*
G01X15545844Y-829843D01*
G01X15545844Y-818413D01*
G01X15540002Y-801141D01*
G01X15528572Y-789711D01*
G01X15517142Y-784123D01*
G01X15500124Y-784123D01*
G01X15593596Y-784123D02*
G01X15593596Y-841273D01*
G01X15599438Y-858291D01*
G01X15610868Y-864133D01*
G01X15627886Y-864133D01*
G01X15639316Y-858291D01*
G01X15656588Y-841273D01*
G01X15656588Y-784123D02*
G01X15656588Y-864133D01*
G01X15704340Y-784123D02*
G01X15704340Y-864133D01*
G01X15704340Y-806983D02*
G01X15721612Y-789711D01*
G01X15733042Y-784123D01*
G01X15750060Y-784123D01*
G01X15761490Y-789711D01*
G01X15767332Y-806983D01*
G01X15767332Y-864133D01*
G01X15883664Y-743991D02*
G01X15883664Y-864133D01*
G01X15883664Y-801141D02*
G01X15872234Y-789711D01*
G01X15860804Y-784123D01*
G01X15843786Y-784123D01*
G01X15832356Y-789711D01*
G01X15820926Y-801141D01*
G01X15815084Y-818413D01*
G01X15815084Y-829843D01*
G01X15820926Y-846861D01*
G01X15832356Y-858291D01*
G01X15843786Y-864133D01*
G01X15860804Y-864133D01*
G01X15872234Y-858291D01*
G01X15883664Y-846861D01*
G01X16774841Y-743991D02*
G01X16774841Y-864133D01*
G01X16774841Y-743991D02*
G01X16826403Y-743991D01*
G01X16843421Y-749833D01*
G01X16849263Y-755421D01*
G01X16854851Y-766851D01*
G01X16854851Y-784123D01*
G01X16849263Y-795553D01*
G01X16843421Y-801141D01*
G01X16826403Y-806983D01*
G01X16774841Y-806983D01*
G01X16971183Y-784123D02*
G01X16971183Y-864133D01*
G01X16971183Y-801141D02*
G01X16959753Y-789711D01*
G01X16948323Y-784123D01*
G01X16931305Y-784123D01*
G01X16919875Y-789711D01*
G01X16908445Y-801141D01*
G01X16902603Y-818413D01*
G01X16902603Y-829843D01*
G01X16908445Y-846861D01*
G01X16919875Y-858291D01*
G01X16931305Y-864133D01*
G01X16948323Y-864133D01*
G01X16959753Y-858291D01*
G01X16971183Y-846861D01*
G01X17087515Y-743991D02*
G01X17087515Y-864133D01*
G01X17087515Y-801141D02*
G01X17076085Y-789711D01*
G01X17064655Y-784123D01*
G01X17047637Y-784123D01*
G01X17036207Y-789711D01*
G01X17024777Y-801141D01*
G01X17018935Y-818413D01*
G01X17018935Y-829843D01*
G01X17024777Y-846861D01*
G01X17036207Y-858291D01*
G01X17047637Y-864133D01*
G01X17064655Y-864133D01*
G01X17076085Y-858291D01*
G01X17087515Y-846861D01*
G01X18484152Y-721131D02*
G01X18472722Y-732561D01*
G01X18461292Y-749833D01*
G01X18449862Y-772693D01*
G01X18444020Y-801141D01*
G01X18444020Y-824001D01*
G01X18449862Y-852703D01*
G01X18461292Y-875563D01*
G01X18472722Y-892581D01*
G01X18484152Y-904011D01*
G01X18531904Y-743991D02*
G01X18531904Y-864133D01*
G01X18531904Y-743991D02*
G01X18577624Y-864133D01*
G01X18623344Y-743991D02*
G01X18577624Y-864133D01*
G01X18623344Y-743991D02*
G01X18623344Y-864133D01*
G01X18671096Y-743991D02*
G01X18676938Y-749833D01*
G01X18682526Y-743991D01*
G01X18676938Y-738403D01*
G01X18671096Y-743991D01*
G01X18676938Y-784123D02*
G01X18676938Y-864133D01*
G01X18730278Y-784123D02*
G01X18793270Y-864133D01*
G01X18793270Y-784123D02*
G01X18730278Y-864133D01*
G01X18841022Y-818413D02*
G01X18909602Y-818413D01*
G01X18909602Y-806983D01*
G01X18904014Y-795553D01*
G01X18898172Y-789711D01*
G01X18886742Y-784123D01*
G01X18869724Y-784123D01*
G01X18858294Y-789711D01*
G01X18846864Y-801141D01*
G01X18841022Y-818413D01*
G01X18841022Y-829843D01*
G01X18846864Y-846861D01*
G01X18858294Y-858291D01*
G01X18869724Y-864133D01*
G01X18886742Y-864133D01*
G01X18898172Y-858291D01*
G01X18909602Y-846861D01*
G01X19025934Y-743991D02*
G01X19025934Y-864133D01*
G01X19025934Y-801141D02*
G01X19014504Y-789711D01*
G01X19003074Y-784123D01*
G01X18986056Y-784123D01*
G01X18974626Y-789711D01*
G01X18963196Y-801141D01*
G01X18957354Y-818413D01*
G01X18957354Y-829843D01*
G01X18963196Y-846861D01*
G01X18974626Y-858291D01*
G01X18986056Y-864133D01*
G01X19003074Y-864133D01*
G01X19014504Y-858291D01*
G01X19025934Y-846861D01*
G01X19073686Y-721131D02*
G01X19085116Y-732561D01*
G01X19096546Y-749833D01*
G01X19107976Y-772693D01*
G01X19113818Y-801141D01*
G01X19113818Y-824001D01*
G01X19107976Y-852703D01*
G01X19096546Y-875563D01*
G01X19085116Y-892581D01*
G01X19073686Y-904011D01*
G01X20403522Y-743991D02*
G01X20403522Y-864133D01*
G01X20363390Y-743991D02*
G01X20443400Y-743991D01*
G01X20519854Y-784123D02*
G01X20508424Y-789711D01*
G01X20496994Y-801141D01*
G01X20491152Y-818413D01*
G01X20491152Y-829843D01*
G01X20496994Y-846861D01*
G01X20508424Y-858291D01*
G01X20519854Y-864133D01*
G01X20536872Y-864133D01*
G01X20548302Y-858291D01*
G01X20559732Y-846861D01*
G01X20565574Y-829843D01*
G01X20565574Y-818413D01*
G01X20559732Y-801141D01*
G01X20548302Y-789711D01*
G01X20536872Y-784123D01*
G01X20519854Y-784123D01*
G01X20613326Y-784123D02*
G01X20613326Y-904011D01*
G01X20613326Y-801141D02*
G01X20624756Y-789711D01*
G01X20636186Y-784123D01*
G01X20653458Y-784123D01*
G01X20664888Y-789711D01*
G01X20676318Y-801141D01*
G01X20681906Y-818413D01*
G01X20681906Y-829843D01*
G01X20676318Y-846861D01*
G01X20664888Y-858291D01*
G01X20653458Y-864133D01*
G01X20636186Y-864133D01*
G01X20624756Y-858291D01*
G01X20613326Y-846861D01*
G01X20857674Y-743991D02*
G01X20857674Y-864133D01*
G01X20857674Y-864133D02*
G01X20926254Y-864133D01*
G01X21042586Y-784123D02*
G01X21042586Y-864133D01*
G01X21042586Y-801141D02*
G01X21031156Y-789711D01*
G01X21019726Y-784123D01*
G01X21002708Y-784123D01*
G01X20991278Y-789711D01*
G01X20979848Y-801141D01*
G01X20974006Y-818413D01*
G01X20974006Y-829843D01*
G01X20979848Y-846861D01*
G01X20991278Y-858291D01*
G01X21002708Y-864133D01*
G01X21019726Y-864133D01*
G01X21031156Y-858291D01*
G01X21042586Y-846861D01*
G01X21096180Y-784123D02*
G01X21130470Y-864133D01*
G01X21164760Y-784123D02*
G01X21130470Y-864133D01*
G01X21119040Y-886993D01*
G01X21107610Y-898423D01*
G01X21096180Y-904011D01*
G01X21090338Y-904011D01*
G01X21212512Y-818413D02*
G01X21281092Y-818413D01*
G01X21281092Y-806983D01*
G01X21275504Y-795553D01*
G01X21269662Y-789711D01*
G01X21258232Y-784123D01*
G01X21241214Y-784123D01*
G01X21229784Y-789711D01*
G01X21218354Y-801141D01*
G01X21212512Y-818413D01*
G01X21212512Y-829843D01*
G01X21218354Y-846861D01*
G01X21229784Y-858291D01*
G01X21241214Y-864133D01*
G01X21258232Y-864133D01*
G01X21269662Y-858291D01*
G01X21281092Y-846861D01*
G01X21328844Y-784123D02*
G01X21328844Y-864133D01*
G01X21328844Y-818413D02*
G01X21334686Y-801141D01*
G01X21346116Y-789711D01*
G01X21357546Y-784123D01*
G01X21374564Y-784123D01*
G01X21422316Y-812571D02*
G01X21525186Y-812571D01*
G01X21572938Y-743991D02*
G01X21572938Y-864133D01*
G01X21572938Y-743991D02*
G01X21624500Y-743991D01*
G01X21641518Y-749833D01*
G01X21647360Y-755421D01*
G01X21652948Y-766851D01*
G01X21652948Y-778281D01*
G01X21647360Y-789711D01*
G01X21641518Y-795553D01*
G01X21624500Y-801141D01*
G01X21572938Y-801141D02*
G01X21624500Y-801141D01*
G01X21641518Y-806983D01*
G01X21647360Y-812571D01*
G01X21652948Y-824001D01*
G01X21652948Y-841273D01*
G01X21647360Y-852703D01*
G01X21641518Y-858291D01*
G01X21624500Y-864133D01*
G01X21572938Y-864133D01*
G01X21729402Y-784123D02*
G01X21717972Y-789711D01*
G01X21706542Y-801141D01*
G01X21700700Y-818413D01*
G01X21700700Y-829843D01*
G01X21706542Y-846861D01*
G01X21717972Y-858291D01*
G01X21729402Y-864133D01*
G01X21746420Y-864133D01*
G01X21757850Y-858291D01*
G01X21769280Y-846861D01*
G01X21775122Y-829843D01*
G01X21775122Y-818413D01*
G01X21769280Y-801141D01*
G01X21757850Y-789711D01*
G01X21746420Y-784123D01*
G01X21729402Y-784123D01*
G01X21840146Y-743991D02*
G01X21840146Y-841273D01*
G01X21845734Y-858291D01*
G01X21857164Y-864133D01*
G01X21868594Y-864133D01*
G01X21822874Y-784123D02*
G01X21863006Y-784123D01*
G01X21933618Y-743991D02*
G01X21933618Y-841273D01*
G01X21939206Y-858291D01*
G01X21950636Y-864133D01*
G01X21962066Y-864133D01*
G01X21916346Y-784123D02*
G01X21956478Y-784123D01*
G01X22038520Y-784123D02*
G01X22027090Y-789711D01*
G01X22015660Y-801141D01*
G01X22009818Y-818413D01*
G01X22009818Y-829843D01*
G01X22015660Y-846861D01*
G01X22027090Y-858291D01*
G01X22038520Y-864133D01*
G01X22055538Y-864133D01*
G01X22066968Y-858291D01*
G01X22078398Y-846861D01*
G01X22084240Y-829843D01*
G01X22084240Y-818413D01*
G01X22078398Y-801141D01*
G01X22066968Y-789711D01*
G01X22055538Y-784123D01*
G01X22038520Y-784123D01*
G01X22131992Y-784123D02*
G01X22131992Y-864133D01*
G01X22131992Y-806983D02*
G01X22149264Y-789711D01*
G01X22160694Y-784123D01*
G01X22177712Y-784123D01*
G01X22189142Y-789711D01*
G01X22194984Y-806983D01*
G01X22194984Y-864133D01*
G01X22194984Y-806983D02*
G01X22212002Y-789711D01*
G01X22223432Y-784123D01*
G01X22240704Y-784123D01*
G01X22252134Y-789711D01*
G01X22257722Y-806983D01*
G01X22257722Y-864133D01*
G01X22433490Y-743991D02*
G01X22433490Y-864133D01*
G01X22433490Y-864133D02*
G01X22502070Y-864133D01*
G01X22618402Y-784123D02*
G01X22618402Y-864133D01*
G01X22618402Y-801141D02*
G01X22606972Y-789711D01*
G01X22595542Y-784123D01*
G01X22578524Y-784123D01*
G01X22567094Y-789711D01*
G01X22555664Y-801141D01*
G01X22549822Y-818413D01*
G01X22549822Y-829843D01*
G01X22555664Y-846861D01*
G01X22567094Y-858291D01*
G01X22578524Y-864133D01*
G01X22595542Y-864133D01*
G01X22606972Y-858291D01*
G01X22618402Y-846861D01*
G01X22671996Y-784123D02*
G01X22706286Y-864133D01*
G01X22740576Y-784123D02*
G01X22706286Y-864133D01*
G01X22694856Y-886993D01*
G01X22683426Y-898423D01*
G01X22671996Y-904011D01*
G01X22666154Y-904011D01*
G01X22788328Y-818413D02*
G01X22856908Y-818413D01*
G01X22856908Y-806983D01*
G01X22851320Y-795553D01*
G01X22845478Y-789711D01*
G01X22834048Y-784123D01*
G01X22817030Y-784123D01*
G01X22805600Y-789711D01*
G01X22794170Y-801141D01*
G01X22788328Y-818413D01*
G01X22788328Y-829843D01*
G01X22794170Y-846861D01*
G01X22805600Y-858291D01*
G01X22817030Y-864133D01*
G01X22834048Y-864133D01*
G01X22845478Y-858291D01*
G01X22856908Y-846861D01*
G01X22904660Y-784123D02*
G01X22904660Y-864133D01*
G01X22904660Y-818413D02*
G01X22910502Y-801141D01*
G01X22921932Y-789711D01*
G01X22933362Y-784123D01*
G01X22950380Y-784123D01*
G01X8676741Y-1347423D02*
G01X8688171Y-1341835D01*
G01X8705443Y-1324563D01*
G01X8705443Y-1444705D01*
G01X8781897Y-1324563D02*
G01X8764625Y-1330405D01*
G01X8759037Y-1341835D01*
G01X8759037Y-1353265D01*
G01X8764625Y-1364695D01*
G01X8776055Y-1370283D01*
G01X8798915Y-1376125D01*
G01X8816187Y-1381713D01*
G01X8827617Y-1393143D01*
G01X8833205Y-1404573D01*
G01X8833205Y-1421845D01*
G01X8827617Y-1433275D01*
G01X8821775Y-1438863D01*
G01X8804757Y-1444705D01*
G01X8781897Y-1444705D01*
G01X8764625Y-1438863D01*
G01X8759037Y-1433275D01*
G01X8753195Y-1421845D01*
G01X8753195Y-1404573D01*
G01X8759037Y-1393143D01*
G01X8770467Y-1381713D01*
G01X8787485Y-1376125D01*
G01X8810345Y-1370283D01*
G01X8821775Y-1364695D01*
G01X8827617Y-1353265D01*
G01X8827617Y-1341835D01*
G01X8821775Y-1330405D01*
G01X8804757Y-1324563D01*
G01X8781897Y-1324563D01*
G01X10102334Y-1324563D02*
G01X10165326Y-1324563D01*
G01X10131036Y-1370283D01*
G01X10148054Y-1370283D01*
G01X10159484Y-1376125D01*
G01X10165326Y-1381713D01*
G01X10170914Y-1398985D01*
G01X10170914Y-1410415D01*
G01X10165326Y-1427433D01*
G01X10153896Y-1438863D01*
G01X10136624Y-1444705D01*
G01X10119606Y-1444705D01*
G01X10102334Y-1438863D01*
G01X10096746Y-1433275D01*
G01X10090904Y-1421845D01*
G01X10293088Y-1364695D02*
G01X10287246Y-1381713D01*
G01X10275816Y-1393143D01*
G01X10258798Y-1398985D01*
G01X10252956Y-1398985D01*
G01X10235938Y-1393143D01*
G01X10224508Y-1381713D01*
G01X10218666Y-1364695D01*
G01X10218666Y-1358853D01*
G01X10224508Y-1341835D01*
G01X10235938Y-1330405D01*
G01X10252956Y-1324563D01*
G01X10258798Y-1324563D01*
G01X10275816Y-1330405D01*
G01X10287246Y-1341835D01*
G01X10293088Y-1364695D01*
G01X10293088Y-1393143D01*
G01X10287246Y-1421845D01*
G01X10275816Y-1438863D01*
G01X10258798Y-1444705D01*
G01X10247368Y-1444705D01*
G01X10230096Y-1438863D01*
G01X10224508Y-1427433D01*
G01X10346682Y-1416003D02*
G01X10340840Y-1421845D01*
G01X10346682Y-1427433D01*
G01X10352270Y-1421845D01*
G01X10346682Y-1416003D01*
G01X10457172Y-1324563D02*
G01X10400022Y-1404573D01*
G01X10485874Y-1404573D01*
G01X10457172Y-1324563D02*
G01X10457172Y-1444705D01*
G01X10533626Y-1364695D02*
G01X10596618Y-1444705D01*
G01X10596618Y-1364695D02*
G01X10533626Y-1444705D01*
G01X10655800Y-1324563D02*
G01X10718792Y-1324563D01*
G01X10684502Y-1370283D01*
G01X10701520Y-1370283D01*
G01X10712950Y-1376125D01*
G01X10718792Y-1381713D01*
G01X10724380Y-1398985D01*
G01X10724380Y-1410415D01*
G01X10718792Y-1427433D01*
G01X10707362Y-1438863D01*
G01X10690090Y-1444705D01*
G01X10673072Y-1444705D01*
G01X10655800Y-1438863D01*
G01X10650212Y-1433275D01*
G01X10644370Y-1421845D01*
G01X10846554Y-1364695D02*
G01X10840712Y-1381713D01*
G01X10829282Y-1393143D01*
G01X10812264Y-1398985D01*
G01X10806422Y-1398985D01*
G01X10789404Y-1393143D01*
G01X10777974Y-1381713D01*
G01X10772132Y-1364695D01*
G01X10772132Y-1358853D01*
G01X10777974Y-1341835D01*
G01X10789404Y-1330405D01*
G01X10806422Y-1324563D01*
G01X10812264Y-1324563D01*
G01X10829282Y-1330405D01*
G01X10840712Y-1341835D01*
G01X10846554Y-1364695D01*
G01X10846554Y-1393143D01*
G01X10840712Y-1421845D01*
G01X10829282Y-1438863D01*
G01X10812264Y-1444705D01*
G01X10800834Y-1444705D01*
G01X10783562Y-1438863D01*
G01X10777974Y-1427433D01*
G01X10900148Y-1416003D02*
G01X10894306Y-1421845D01*
G01X10900148Y-1427433D01*
G01X10905736Y-1421845D01*
G01X10900148Y-1416003D01*
G01X11010638Y-1324563D02*
G01X10953488Y-1404573D01*
G01X11039340Y-1404573D01*
G01X11010638Y-1324563D02*
G01X11010638Y-1444705D01*
G01X11087092Y-1364695D02*
G01X11087092Y-1444705D01*
G01X11087092Y-1387555D02*
G01X11104364Y-1370283D01*
G01X11115794Y-1364695D01*
G01X11132812Y-1364695D01*
G01X11144242Y-1370283D01*
G01X11150084Y-1387555D01*
G01X11150084Y-1444705D01*
G01X11150084Y-1387555D02*
G01X11167102Y-1370283D01*
G01X11178532Y-1364695D01*
G01X11195804Y-1364695D01*
G01X11207234Y-1370283D01*
G01X11212822Y-1387555D01*
G01X11212822Y-1444705D01*
G01X11260574Y-1324563D02*
G01X11266416Y-1330405D01*
G01X11272004Y-1324563D01*
G01X11266416Y-1318975D01*
G01X11260574Y-1324563D01*
G01X11266416Y-1364695D02*
G01X11266416Y-1444705D01*
G01X11319756Y-1324563D02*
G01X11319756Y-1444705D01*
G01X11407640Y-1301703D02*
G01X11396210Y-1313133D01*
G01X11384780Y-1330405D01*
G01X11373350Y-1353265D01*
G01X11367508Y-1381713D01*
G01X11367508Y-1404573D01*
G01X11373350Y-1433275D01*
G01X11384780Y-1456135D01*
G01X11396210Y-1473153D01*
G01X11407640Y-1484583D01*
G01X11455392Y-1347423D02*
G01X11466822Y-1341835D01*
G01X11484094Y-1324563D01*
G01X11484094Y-1444705D01*
G01X11537688Y-1416003D02*
G01X11531846Y-1421845D01*
G01X11537688Y-1427433D01*
G01X11543276Y-1421845D01*
G01X11537688Y-1416003D01*
G01X11625318Y-1324563D02*
G01X11608300Y-1330405D01*
G01X11596870Y-1347423D01*
G01X11591028Y-1376125D01*
G01X11591028Y-1393143D01*
G01X11596870Y-1421845D01*
G01X11608300Y-1438863D01*
G01X11625318Y-1444705D01*
G01X11636748Y-1444705D01*
G01X11654020Y-1438863D01*
G01X11665450Y-1421845D01*
G01X11671038Y-1393143D01*
G01X11671038Y-1376125D01*
G01X11665450Y-1347423D01*
G01X11654020Y-1330405D01*
G01X11636748Y-1324563D01*
G01X11625318Y-1324563D01*
G01X11753080Y-1324563D02*
G01X11736062Y-1330405D01*
G01X11724632Y-1347423D01*
G01X11718790Y-1376125D01*
G01X11718790Y-1393143D01*
G01X11724632Y-1421845D01*
G01X11736062Y-1438863D01*
G01X11753080Y-1444705D01*
G01X11764510Y-1444705D01*
G01X11781782Y-1438863D01*
G01X11793212Y-1421845D01*
G01X11798800Y-1393143D01*
G01X11798800Y-1376125D01*
G01X11793212Y-1347423D01*
G01X11781782Y-1330405D01*
G01X11764510Y-1324563D01*
G01X11753080Y-1324563D01*
G01X11880842Y-1324563D02*
G01X11863824Y-1330405D01*
G01X11852394Y-1347423D01*
G01X11846552Y-1376125D01*
G01X11846552Y-1393143D01*
G01X11852394Y-1421845D01*
G01X11863824Y-1438863D01*
G01X11880842Y-1444705D01*
G01X11892272Y-1444705D01*
G01X11909544Y-1438863D01*
G01X11920974Y-1421845D01*
G01X11926562Y-1393143D01*
G01X11926562Y-1376125D01*
G01X11920974Y-1347423D01*
G01X11909544Y-1330405D01*
G01X11892272Y-1324563D01*
G01X11880842Y-1324563D01*
G01X11974314Y-1364695D02*
G01X12037306Y-1444705D01*
G01X12037306Y-1364695D02*
G01X11974314Y-1444705D01*
G01X12085058Y-1347423D02*
G01X12096488Y-1341835D01*
G01X12113760Y-1324563D01*
G01X12113760Y-1444705D01*
G01X12167354Y-1416003D02*
G01X12161512Y-1421845D01*
G01X12167354Y-1427433D01*
G01X12172942Y-1421845D01*
G01X12167354Y-1416003D01*
G01X12254984Y-1324563D02*
G01X12237966Y-1330405D01*
G01X12226536Y-1347423D01*
G01X12220694Y-1376125D01*
G01X12220694Y-1393143D01*
G01X12226536Y-1421845D01*
G01X12237966Y-1438863D01*
G01X12254984Y-1444705D01*
G01X12266414Y-1444705D01*
G01X12283686Y-1438863D01*
G01X12295116Y-1421845D01*
G01X12300704Y-1393143D01*
G01X12300704Y-1376125D01*
G01X12295116Y-1347423D01*
G01X12283686Y-1330405D01*
G01X12266414Y-1324563D01*
G01X12254984Y-1324563D01*
G01X12382746Y-1324563D02*
G01X12365728Y-1330405D01*
G01X12354298Y-1347423D01*
G01X12348456Y-1376125D01*
G01X12348456Y-1393143D01*
G01X12354298Y-1421845D01*
G01X12365728Y-1438863D01*
G01X12382746Y-1444705D01*
G01X12394176Y-1444705D01*
G01X12411448Y-1438863D01*
G01X12422878Y-1421845D01*
G01X12428466Y-1393143D01*
G01X12428466Y-1376125D01*
G01X12422878Y-1347423D01*
G01X12411448Y-1330405D01*
G01X12394176Y-1324563D01*
G01X12382746Y-1324563D01*
G01X12510508Y-1324563D02*
G01X12493490Y-1330405D01*
G01X12482060Y-1347423D01*
G01X12476218Y-1376125D01*
G01X12476218Y-1393143D01*
G01X12482060Y-1421845D01*
G01X12493490Y-1438863D01*
G01X12510508Y-1444705D01*
G01X12521938Y-1444705D01*
G01X12539210Y-1438863D01*
G01X12550640Y-1421845D01*
G01X12556228Y-1393143D01*
G01X12556228Y-1376125D01*
G01X12550640Y-1347423D01*
G01X12539210Y-1330405D01*
G01X12521938Y-1324563D01*
G01X12510508Y-1324563D01*
G01X12603980Y-1364695D02*
G01X12603980Y-1444705D01*
G01X12603980Y-1387555D02*
G01X12621252Y-1370283D01*
G01X12632682Y-1364695D01*
G01X12649700Y-1364695D01*
G01X12661130Y-1370283D01*
G01X12666972Y-1387555D01*
G01X12666972Y-1444705D01*
G01X12666972Y-1387555D02*
G01X12683990Y-1370283D01*
G01X12695420Y-1364695D01*
G01X12712692Y-1364695D01*
G01X12724122Y-1370283D01*
G01X12729710Y-1387555D01*
G01X12729710Y-1444705D01*
G01X12777462Y-1364695D02*
G01X12777462Y-1444705D01*
G01X12777462Y-1387555D02*
G01X12794734Y-1370283D01*
G01X12806164Y-1364695D01*
G01X12823182Y-1364695D01*
G01X12834612Y-1370283D01*
G01X12840454Y-1387555D01*
G01X12840454Y-1444705D01*
G01X12840454Y-1387555D02*
G01X12857472Y-1370283D01*
G01X12868902Y-1364695D01*
G01X12886174Y-1364695D01*
G01X12897604Y-1370283D01*
G01X12903192Y-1387555D01*
G01X12903192Y-1444705D01*
G01X12950944Y-1301703D02*
G01X12962374Y-1313133D01*
G01X12973804Y-1330405D01*
G01X12985234Y-1353265D01*
G01X12991076Y-1381713D01*
G01X12991076Y-1404573D01*
G01X12985234Y-1433275D01*
G01X12973804Y-1456135D01*
G01X12962374Y-1473153D01*
G01X12950944Y-1484583D01*
G01X13882253Y-1324563D02*
G01X13882253Y-1444705D01*
G01X13882253Y-1324563D02*
G01X13933815Y-1324563D01*
G01X13950833Y-1330405D01*
G01X13956675Y-1335993D01*
G01X13962263Y-1347423D01*
G01X13962263Y-1364695D01*
G01X13956675Y-1376125D01*
G01X13950833Y-1381713D01*
G01X13933815Y-1387555D01*
G01X13882253Y-1387555D01*
G01X14050147Y-1324563D02*
G01X14050147Y-1444705D01*
G01X14010015Y-1324563D02*
G01X14090025Y-1324563D01*
G01X14137777Y-1324563D02*
G01X14137777Y-1444705D01*
G01X14217787Y-1324563D02*
G01X14217787Y-1444705D01*
G01X14137777Y-1381713D02*
G01X14217787Y-1381713D01*
G01X15343660Y-1324563D02*
G01X15343660Y-1444705D01*
G01X15343660Y-1324563D02*
G01X15395222Y-1324563D01*
G01X15412240Y-1330405D01*
G01X15418082Y-1335993D01*
G01X15423670Y-1347423D01*
G01X15423670Y-1358853D01*
G01X15418082Y-1370283D01*
G01X15412240Y-1376125D01*
G01X15395222Y-1381713D01*
G01X15343660Y-1381713D01*
G01X15383792Y-1381713D02*
G01X15423670Y-1444705D01*
G01X15500124Y-1364695D02*
G01X15488694Y-1370283D01*
G01X15477264Y-1381713D01*
G01X15471422Y-1398985D01*
G01X15471422Y-1410415D01*
G01X15477264Y-1427433D01*
G01X15488694Y-1438863D01*
G01X15500124Y-1444705D01*
G01X15517142Y-1444705D01*
G01X15528572Y-1438863D01*
G01X15540002Y-1427433D01*
G01X15545844Y-1410415D01*
G01X15545844Y-1398985D01*
G01X15540002Y-1381713D01*
G01X15528572Y-1370283D01*
G01X15517142Y-1364695D01*
G01X15500124Y-1364695D01*
G01X15593596Y-1364695D02*
G01X15593596Y-1421845D01*
G01X15599438Y-1438863D01*
G01X15610868Y-1444705D01*
G01X15627886Y-1444705D01*
G01X15639316Y-1438863D01*
G01X15656588Y-1421845D01*
G01X15656588Y-1364695D02*
G01X15656588Y-1444705D01*
G01X15704340Y-1364695D02*
G01X15704340Y-1444705D01*
G01X15704340Y-1387555D02*
G01X15721612Y-1370283D01*
G01X15733042Y-1364695D01*
G01X15750060Y-1364695D01*
G01X15761490Y-1370283D01*
G01X15767332Y-1387555D01*
G01X15767332Y-1444705D01*
G01X15883664Y-1324563D02*
G01X15883664Y-1444705D01*
G01X15883664Y-1381713D02*
G01X15872234Y-1370283D01*
G01X15860804Y-1364695D01*
G01X15843786Y-1364695D01*
G01X15832356Y-1370283D01*
G01X15820926Y-1381713D01*
G01X15815084Y-1398985D01*
G01X15815084Y-1410415D01*
G01X15820926Y-1427433D01*
G01X15832356Y-1438863D01*
G01X15843786Y-1444705D01*
G01X15860804Y-1444705D01*
G01X15872234Y-1438863D01*
G01X15883664Y-1427433D01*
G01X16774841Y-1324563D02*
G01X16774841Y-1444705D01*
G01X16774841Y-1324563D02*
G01X16826403Y-1324563D01*
G01X16843421Y-1330405D01*
G01X16849263Y-1335993D01*
G01X16854851Y-1347423D01*
G01X16854851Y-1364695D01*
G01X16849263Y-1376125D01*
G01X16843421Y-1381713D01*
G01X16826403Y-1387555D01*
G01X16774841Y-1387555D01*
G01X16971183Y-1364695D02*
G01X16971183Y-1444705D01*
G01X16971183Y-1381713D02*
G01X16959753Y-1370283D01*
G01X16948323Y-1364695D01*
G01X16931305Y-1364695D01*
G01X16919875Y-1370283D01*
G01X16908445Y-1381713D01*
G01X16902603Y-1398985D01*
G01X16902603Y-1410415D01*
G01X16908445Y-1427433D01*
G01X16919875Y-1438863D01*
G01X16931305Y-1444705D01*
G01X16948323Y-1444705D01*
G01X16959753Y-1438863D01*
G01X16971183Y-1427433D01*
G01X17087515Y-1324563D02*
G01X17087515Y-1444705D01*
G01X17087515Y-1381713D02*
G01X17076085Y-1370283D01*
G01X17064655Y-1364695D01*
G01X17047637Y-1364695D01*
G01X17036207Y-1370283D01*
G01X17024777Y-1381713D01*
G01X17018935Y-1398985D01*
G01X17018935Y-1410415D01*
G01X17024777Y-1427433D01*
G01X17036207Y-1438863D01*
G01X17047637Y-1444705D01*
G01X17064655Y-1444705D01*
G01X17076085Y-1438863D01*
G01X17087515Y-1427433D01*
G01X18444020Y-1324563D02*
G01X18444020Y-1444705D01*
G01X18444020Y-1324563D02*
G01X18495582Y-1324563D01*
G01X18512600Y-1330405D01*
G01X18518442Y-1335993D01*
G01X18524030Y-1347423D01*
G01X18524030Y-1358853D01*
G01X18518442Y-1370283D01*
G01X18512600Y-1376125D01*
G01X18495582Y-1381713D01*
G01X18444020Y-1381713D01*
G01X18484152Y-1381713D02*
G01X18524030Y-1444705D01*
G01X18600484Y-1364695D02*
G01X18589054Y-1370283D01*
G01X18577624Y-1381713D01*
G01X18571782Y-1398985D01*
G01X18571782Y-1410415D01*
G01X18577624Y-1427433D01*
G01X18589054Y-1438863D01*
G01X18600484Y-1444705D01*
G01X18617502Y-1444705D01*
G01X18628932Y-1438863D01*
G01X18640362Y-1427433D01*
G01X18646204Y-1410415D01*
G01X18646204Y-1398985D01*
G01X18640362Y-1381713D01*
G01X18628932Y-1370283D01*
G01X18617502Y-1364695D01*
G01X18600484Y-1364695D01*
G01X18693956Y-1364695D02*
G01X18693956Y-1421845D01*
G01X18699798Y-1438863D01*
G01X18711228Y-1444705D01*
G01X18728246Y-1444705D01*
G01X18739676Y-1438863D01*
G01X18756948Y-1421845D01*
G01X18756948Y-1364695D02*
G01X18756948Y-1444705D01*
G01X18804700Y-1364695D02*
G01X18804700Y-1444705D01*
G01X18804700Y-1387555D02*
G01X18821972Y-1370283D01*
G01X18833402Y-1364695D01*
G01X18850420Y-1364695D01*
G01X18861850Y-1370283D01*
G01X18867692Y-1387555D01*
G01X18867692Y-1444705D01*
G01X18984024Y-1324563D02*
G01X18984024Y-1444705D01*
G01X18984024Y-1381713D02*
G01X18972594Y-1370283D01*
G01X18961164Y-1364695D01*
G01X18944146Y-1364695D01*
G01X18932716Y-1370283D01*
G01X18921286Y-1381713D01*
G01X18915444Y-1398985D01*
G01X18915444Y-1410415D01*
G01X18921286Y-1427433D01*
G01X18932716Y-1438863D01*
G01X18944146Y-1444705D01*
G01X18961164Y-1444705D01*
G01X18972594Y-1438863D01*
G01X18984024Y-1427433D01*
G01X20403522Y-1324563D02*
G01X20403522Y-1444705D01*
G01X20363390Y-1324563D02*
G01X20443400Y-1324563D01*
G01X20519854Y-1364695D02*
G01X20508424Y-1370283D01*
G01X20496994Y-1381713D01*
G01X20491152Y-1398985D01*
G01X20491152Y-1410415D01*
G01X20496994Y-1427433D01*
G01X20508424Y-1438863D01*
G01X20519854Y-1444705D01*
G01X20536872Y-1444705D01*
G01X20548302Y-1438863D01*
G01X20559732Y-1427433D01*
G01X20565574Y-1410415D01*
G01X20565574Y-1398985D01*
G01X20559732Y-1381713D01*
G01X20548302Y-1370283D01*
G01X20536872Y-1364695D01*
G01X20519854Y-1364695D01*
G01X20613326Y-1364695D02*
G01X20613326Y-1484583D01*
G01X20613326Y-1381713D02*
G01X20624756Y-1370283D01*
G01X20636186Y-1364695D01*
G01X20653458Y-1364695D01*
G01X20664888Y-1370283D01*
G01X20676318Y-1381713D01*
G01X20681906Y-1398985D01*
G01X20681906Y-1410415D01*
G01X20676318Y-1427433D01*
G01X20664888Y-1438863D01*
G01X20653458Y-1444705D01*
G01X20636186Y-1444705D01*
G01X20624756Y-1438863D01*
G01X20613326Y-1427433D01*
G01X20857674Y-1324563D02*
G01X20857674Y-1444705D01*
G01X20857674Y-1444705D02*
G01X20926254Y-1444705D01*
G01X21042586Y-1364695D02*
G01X21042586Y-1444705D01*
G01X21042586Y-1381713D02*
G01X21031156Y-1370283D01*
G01X21019726Y-1364695D01*
G01X21002708Y-1364695D01*
G01X20991278Y-1370283D01*
G01X20979848Y-1381713D01*
G01X20974006Y-1398985D01*
G01X20974006Y-1410415D01*
G01X20979848Y-1427433D01*
G01X20991278Y-1438863D01*
G01X21002708Y-1444705D01*
G01X21019726Y-1444705D01*
G01X21031156Y-1438863D01*
G01X21042586Y-1427433D01*
G01X21096180Y-1364695D02*
G01X21130470Y-1444705D01*
G01X21164760Y-1364695D02*
G01X21130470Y-1444705D01*
G01X21119040Y-1467565D01*
G01X21107610Y-1478995D01*
G01X21096180Y-1484583D01*
G01X21090338Y-1484583D01*
G01X21212512Y-1398985D02*
G01X21281092Y-1398985D01*
G01X21281092Y-1387555D01*
G01X21275504Y-1376125D01*
G01X21269662Y-1370283D01*
G01X21258232Y-1364695D01*
G01X21241214Y-1364695D01*
G01X21229784Y-1370283D01*
G01X21218354Y-1381713D01*
G01X21212512Y-1398985D01*
G01X21212512Y-1410415D01*
G01X21218354Y-1427433D01*
G01X21229784Y-1438863D01*
G01X21241214Y-1444705D01*
G01X21258232Y-1444705D01*
G01X21269662Y-1438863D01*
G01X21281092Y-1427433D01*
G01X21328844Y-1364695D02*
G01X21328844Y-1444705D01*
G01X21328844Y-1398985D02*
G01X21334686Y-1381713D01*
G01X21346116Y-1370283D01*
G01X21357546Y-1364695D01*
G01X21374564Y-1364695D01*
G01X21422316Y-1393143D02*
G01X21525186Y-1393143D01*
G01X21572938Y-1324563D02*
G01X21572938Y-1444705D01*
G01X21572938Y-1324563D02*
G01X21624500Y-1324563D01*
G01X21641518Y-1330405D01*
G01X21647360Y-1335993D01*
G01X21652948Y-1347423D01*
G01X21652948Y-1358853D01*
G01X21647360Y-1370283D01*
G01X21641518Y-1376125D01*
G01X21624500Y-1381713D01*
G01X21572938Y-1381713D02*
G01X21624500Y-1381713D01*
G01X21641518Y-1387555D01*
G01X21647360Y-1393143D01*
G01X21652948Y-1404573D01*
G01X21652948Y-1421845D01*
G01X21647360Y-1433275D01*
G01X21641518Y-1438863D01*
G01X21624500Y-1444705D01*
G01X21572938Y-1444705D01*
G01X21729402Y-1364695D02*
G01X21717972Y-1370283D01*
G01X21706542Y-1381713D01*
G01X21700700Y-1398985D01*
G01X21700700Y-1410415D01*
G01X21706542Y-1427433D01*
G01X21717972Y-1438863D01*
G01X21729402Y-1444705D01*
G01X21746420Y-1444705D01*
G01X21757850Y-1438863D01*
G01X21769280Y-1427433D01*
G01X21775122Y-1410415D01*
G01X21775122Y-1398985D01*
G01X21769280Y-1381713D01*
G01X21757850Y-1370283D01*
G01X21746420Y-1364695D01*
G01X21729402Y-1364695D01*
G01X21840146Y-1324563D02*
G01X21840146Y-1421845D01*
G01X21845734Y-1438863D01*
G01X21857164Y-1444705D01*
G01X21868594Y-1444705D01*
G01X21822874Y-1364695D02*
G01X21863006Y-1364695D01*
G01X21933618Y-1324563D02*
G01X21933618Y-1421845D01*
G01X21939206Y-1438863D01*
G01X21950636Y-1444705D01*
G01X21962066Y-1444705D01*
G01X21916346Y-1364695D02*
G01X21956478Y-1364695D01*
G01X22038520Y-1364695D02*
G01X22027090Y-1370283D01*
G01X22015660Y-1381713D01*
G01X22009818Y-1398985D01*
G01X22009818Y-1410415D01*
G01X22015660Y-1427433D01*
G01X22027090Y-1438863D01*
G01X22038520Y-1444705D01*
G01X22055538Y-1444705D01*
G01X22066968Y-1438863D01*
G01X22078398Y-1427433D01*
G01X22084240Y-1410415D01*
G01X22084240Y-1398985D01*
G01X22078398Y-1381713D01*
G01X22066968Y-1370283D01*
G01X22055538Y-1364695D01*
G01X22038520Y-1364695D01*
G01X22131992Y-1364695D02*
G01X22131992Y-1444705D01*
G01X22131992Y-1387555D02*
G01X22149264Y-1370283D01*
G01X22160694Y-1364695D01*
G01X22177712Y-1364695D01*
G01X22189142Y-1370283D01*
G01X22194984Y-1387555D01*
G01X22194984Y-1444705D01*
G01X22194984Y-1387555D02*
G01X22212002Y-1370283D01*
G01X22223432Y-1364695D01*
G01X22240704Y-1364695D01*
G01X22252134Y-1370283D01*
G01X22257722Y-1387555D01*
G01X22257722Y-1444705D01*
G01X22433490Y-1324563D02*
G01X22433490Y-1444705D01*
G01X22433490Y-1444705D02*
G01X22502070Y-1444705D01*
G01X22618402Y-1364695D02*
G01X22618402Y-1444705D01*
G01X22618402Y-1381713D02*
G01X22606972Y-1370283D01*
G01X22595542Y-1364695D01*
G01X22578524Y-1364695D01*
G01X22567094Y-1370283D01*
G01X22555664Y-1381713D01*
G01X22549822Y-1398985D01*
G01X22549822Y-1410415D01*
G01X22555664Y-1427433D01*
G01X22567094Y-1438863D01*
G01X22578524Y-1444705D01*
G01X22595542Y-1444705D01*
G01X22606972Y-1438863D01*
G01X22618402Y-1427433D01*
G01X22671996Y-1364695D02*
G01X22706286Y-1444705D01*
G01X22740576Y-1364695D02*
G01X22706286Y-1444705D01*
G01X22694856Y-1467565D01*
G01X22683426Y-1478995D01*
G01X22671996Y-1484583D01*
G01X22666154Y-1484583D01*
G01X22788328Y-1398985D02*
G01X22856908Y-1398985D01*
G01X22856908Y-1387555D01*
G01X22851320Y-1376125D01*
G01X22845478Y-1370283D01*
G01X22834048Y-1364695D01*
G01X22817030Y-1364695D01*
G01X22805600Y-1370283D01*
G01X22794170Y-1381713D01*
G01X22788328Y-1398985D01*
G01X22788328Y-1410415D01*
G01X22794170Y-1427433D01*
G01X22805600Y-1438863D01*
G01X22817030Y-1444705D01*
G01X22834048Y-1444705D01*
G01X22845478Y-1438863D01*
G01X22856908Y-1427433D01*
G01X22904660Y-1364695D02*
G01X22904660Y-1444705D01*
G01X22904660Y-1398985D02*
G01X22910502Y-1381713D01*
G01X22921932Y-1370283D01*
G01X22933362Y-1364695D01*
G01X22950380Y-1364695D01*
G01X8682583Y-1933836D02*
G01X8682583Y-1927994D01*
G01X8688171Y-1916564D01*
G01X8694013Y-1910976D01*
G01X8705443Y-1905134D01*
G01X8728303Y-1905134D01*
G01X8739733Y-1910976D01*
G01X8745321Y-1916564D01*
G01X8751163Y-1927994D01*
G01X8751163Y-1939424D01*
G01X8745321Y-1950854D01*
G01X8733891Y-1968126D01*
G01X8676741Y-2025276D01*
G01X8756751Y-2025276D01*
G01X8804503Y-1927994D02*
G01X8815933Y-1922406D01*
G01X8833205Y-1905134D01*
G01X8833205Y-2025276D01*
G01X10148054Y-1905134D02*
G01X10090904Y-1985144D01*
G01X10176756Y-1985144D01*
G01X10148054Y-1905134D02*
G01X10148054Y-2025276D01*
G01X10235938Y-1905134D02*
G01X10298930Y-1905134D01*
G01X10264640Y-1950854D01*
G01X10281658Y-1950854D01*
G01X10293088Y-1956696D01*
G01X10298930Y-1962284D01*
G01X10304518Y-1979556D01*
G01X10304518Y-1990986D01*
G01X10298930Y-2008004D01*
G01X10287500Y-2019434D01*
G01X10270228Y-2025276D01*
G01X10253210Y-2025276D01*
G01X10235938Y-2019434D01*
G01X10230350Y-2013846D01*
G01X10224508Y-2002416D01*
G01X10358112Y-1996574D02*
G01X10352270Y-2002416D01*
G01X10358112Y-2008004D01*
G01X10363700Y-2002416D01*
G01X10358112Y-1996574D01*
G01X10422882Y-1905134D02*
G01X10485874Y-1905134D01*
G01X10451584Y-1950854D01*
G01X10468602Y-1950854D01*
G01X10480032Y-1956696D01*
G01X10485874Y-1962284D01*
G01X10491462Y-1979556D01*
G01X10491462Y-1990986D01*
G01X10485874Y-2008004D01*
G01X10474444Y-2019434D01*
G01X10457172Y-2025276D01*
G01X10440154Y-2025276D01*
G01X10422882Y-2019434D01*
G01X10417294Y-2013846D01*
G01X10411452Y-2002416D01*
G01X10539214Y-1945266D02*
G01X10602206Y-2025276D01*
G01X10602206Y-1945266D02*
G01X10539214Y-2025276D01*
G01X10707108Y-1905134D02*
G01X10649958Y-1985144D01*
G01X10735810Y-1985144D01*
G01X10707108Y-1905134D02*
G01X10707108Y-2025276D01*
G01X10794992Y-1905134D02*
G01X10857984Y-1905134D01*
G01X10823694Y-1950854D01*
G01X10840712Y-1950854D01*
G01X10852142Y-1956696D01*
G01X10857984Y-1962284D01*
G01X10863572Y-1979556D01*
G01X10863572Y-1990986D01*
G01X10857984Y-2008004D01*
G01X10846554Y-2019434D01*
G01X10829282Y-2025276D01*
G01X10812264Y-2025276D01*
G01X10794992Y-2019434D01*
G01X10789404Y-2013846D01*
G01X10783562Y-2002416D01*
G01X10917166Y-1996574D02*
G01X10911324Y-2002416D01*
G01X10917166Y-2008004D01*
G01X10922754Y-2002416D01*
G01X10917166Y-1996574D01*
G01X10981936Y-1905134D02*
G01X11044928Y-1905134D01*
G01X11010638Y-1950854D01*
G01X11027656Y-1950854D01*
G01X11039086Y-1956696D01*
G01X11044928Y-1962284D01*
G01X11050516Y-1979556D01*
G01X11050516Y-1990986D01*
G01X11044928Y-2008004D01*
G01X11033498Y-2019434D01*
G01X11016226Y-2025276D01*
G01X10999208Y-2025276D01*
G01X10981936Y-2019434D01*
G01X10976348Y-2013846D01*
G01X10970506Y-2002416D01*
G01X11098268Y-1945266D02*
G01X11098268Y-2025276D01*
G01X11098268Y-1968126D02*
G01X11115540Y-1950854D01*
G01X11126970Y-1945266D01*
G01X11143988Y-1945266D01*
G01X11155418Y-1950854D01*
G01X11161260Y-1968126D01*
G01X11161260Y-2025276D01*
G01X11161260Y-1968126D02*
G01X11178278Y-1950854D01*
G01X11189708Y-1945266D01*
G01X11206980Y-1945266D01*
G01X11218410Y-1950854D01*
G01X11223998Y-1968126D01*
G01X11223998Y-2025276D01*
G01X11271750Y-1905134D02*
G01X11277592Y-1910976D01*
G01X11283180Y-1905134D01*
G01X11277592Y-1899546D01*
G01X11271750Y-1905134D01*
G01X11277592Y-1945266D02*
G01X11277592Y-2025276D01*
G01X11330932Y-1905134D02*
G01X11330932Y-2025276D01*
G01X11418816Y-1882274D02*
G01X11407386Y-1893704D01*
G01X11395956Y-1910976D01*
G01X11384526Y-1933836D01*
G01X11378684Y-1962284D01*
G01X11378684Y-1985144D01*
G01X11384526Y-2013846D01*
G01X11395956Y-2036706D01*
G01X11407386Y-2053724D01*
G01X11418816Y-2065154D01*
G01X11466568Y-1927994D02*
G01X11477998Y-1922406D01*
G01X11495270Y-1905134D01*
G01X11495270Y-2025276D01*
G01X11548864Y-1996574D02*
G01X11543022Y-2002416D01*
G01X11548864Y-2008004D01*
G01X11554452Y-2002416D01*
G01X11548864Y-1996574D01*
G01X11602204Y-1927994D02*
G01X11613634Y-1922406D01*
G01X11630906Y-1905134D01*
G01X11630906Y-2025276D01*
G01X11712948Y-1905134D02*
G01X11695930Y-1910976D01*
G01X11684500Y-1927994D01*
G01X11678658Y-1956696D01*
G01X11678658Y-1973714D01*
G01X11684500Y-2002416D01*
G01X11695930Y-2019434D01*
G01X11712948Y-2025276D01*
G01X11724378Y-2025276D01*
G01X11741650Y-2019434D01*
G01X11753080Y-2002416D01*
G01X11758668Y-1973714D01*
G01X11758668Y-1956696D01*
G01X11753080Y-1927994D01*
G01X11741650Y-1910976D01*
G01X11724378Y-1905134D01*
G01X11712948Y-1905134D01*
G01X11840710Y-1905134D02*
G01X11823692Y-1910976D01*
G01X11812262Y-1927994D01*
G01X11806420Y-1956696D01*
G01X11806420Y-1973714D01*
G01X11812262Y-2002416D01*
G01X11823692Y-2019434D01*
G01X11840710Y-2025276D01*
G01X11852140Y-2025276D01*
G01X11869412Y-2019434D01*
G01X11880842Y-2002416D01*
G01X11886430Y-1973714D01*
G01X11886430Y-1956696D01*
G01X11880842Y-1927994D01*
G01X11869412Y-1910976D01*
G01X11852140Y-1905134D01*
G01X11840710Y-1905134D01*
G01X11934182Y-1945266D02*
G01X11997174Y-2025276D01*
G01X11997174Y-1945266D02*
G01X11934182Y-2025276D01*
G01X12044926Y-1927994D02*
G01X12056356Y-1922406D01*
G01X12073628Y-1905134D01*
G01X12073628Y-2025276D01*
G01X12127222Y-1996574D02*
G01X12121380Y-2002416D01*
G01X12127222Y-2008004D01*
G01X12132810Y-2002416D01*
G01X12127222Y-1996574D01*
G01X12180562Y-1927994D02*
G01X12191992Y-1922406D01*
G01X12209264Y-1905134D01*
G01X12209264Y-2025276D01*
G01X12291306Y-1905134D02*
G01X12274288Y-1910976D01*
G01X12262858Y-1927994D01*
G01X12257016Y-1956696D01*
G01X12257016Y-1973714D01*
G01X12262858Y-2002416D01*
G01X12274288Y-2019434D01*
G01X12291306Y-2025276D01*
G01X12302736Y-2025276D01*
G01X12320008Y-2019434D01*
G01X12331438Y-2002416D01*
G01X12337026Y-1973714D01*
G01X12337026Y-1956696D01*
G01X12331438Y-1927994D01*
G01X12320008Y-1910976D01*
G01X12302736Y-1905134D01*
G01X12291306Y-1905134D01*
G01X12419068Y-1905134D02*
G01X12402050Y-1910976D01*
G01X12390620Y-1927994D01*
G01X12384778Y-1956696D01*
G01X12384778Y-1973714D01*
G01X12390620Y-2002416D01*
G01X12402050Y-2019434D01*
G01X12419068Y-2025276D01*
G01X12430498Y-2025276D01*
G01X12447770Y-2019434D01*
G01X12459200Y-2002416D01*
G01X12464788Y-1973714D01*
G01X12464788Y-1956696D01*
G01X12459200Y-1927994D01*
G01X12447770Y-1910976D01*
G01X12430498Y-1905134D01*
G01X12419068Y-1905134D01*
G01X12512540Y-1945266D02*
G01X12512540Y-2025276D01*
G01X12512540Y-1968126D02*
G01X12529812Y-1950854D01*
G01X12541242Y-1945266D01*
G01X12558260Y-1945266D01*
G01X12569690Y-1950854D01*
G01X12575532Y-1968126D01*
G01X12575532Y-2025276D01*
G01X12575532Y-1968126D02*
G01X12592550Y-1950854D01*
G01X12603980Y-1945266D01*
G01X12621252Y-1945266D01*
G01X12632682Y-1950854D01*
G01X12638270Y-1968126D01*
G01X12638270Y-2025276D01*
G01X12686022Y-1945266D02*
G01X12686022Y-2025276D01*
G01X12686022Y-1968126D02*
G01X12703294Y-1950854D01*
G01X12714724Y-1945266D01*
G01X12731742Y-1945266D01*
G01X12743172Y-1950854D01*
G01X12749014Y-1968126D01*
G01X12749014Y-2025276D01*
G01X12749014Y-1968126D02*
G01X12766032Y-1950854D01*
G01X12777462Y-1945266D01*
G01X12794734Y-1945266D01*
G01X12806164Y-1950854D01*
G01X12811752Y-1968126D01*
G01X12811752Y-2025276D01*
G01X12859504Y-1882274D02*
G01X12870934Y-1893704D01*
G01X12882364Y-1910976D01*
G01X12893794Y-1933836D01*
G01X12899636Y-1962284D01*
G01X12899636Y-1985144D01*
G01X12893794Y-2013846D01*
G01X12882364Y-2036706D01*
G01X12870934Y-2053724D01*
G01X12859504Y-2065154D01*
G01X13882253Y-1905134D02*
G01X13882253Y-2025276D01*
G01X13882253Y-1905134D02*
G01X13933815Y-1905134D01*
G01X13950833Y-1910976D01*
G01X13956675Y-1916564D01*
G01X13962263Y-1927994D01*
G01X13962263Y-1945266D01*
G01X13956675Y-1956696D01*
G01X13950833Y-1962284D01*
G01X13933815Y-1968126D01*
G01X13882253Y-1968126D01*
G01X14050147Y-1905134D02*
G01X14050147Y-2025276D01*
G01X14010015Y-1905134D02*
G01X14090025Y-1905134D01*
G01X14137777Y-1905134D02*
G01X14137777Y-2025276D01*
G01X14217787Y-1905134D02*
G01X14217787Y-2025276D01*
G01X14137777Y-1962284D02*
G01X14217787Y-1962284D01*
G01X15343660Y-1905134D02*
G01X15343660Y-2025276D01*
G01X15343660Y-1905134D02*
G01X15395222Y-1905134D01*
G01X15412240Y-1910976D01*
G01X15418082Y-1916564D01*
G01X15423670Y-1927994D01*
G01X15423670Y-1939424D01*
G01X15418082Y-1950854D01*
G01X15412240Y-1956696D01*
G01X15395222Y-1962284D01*
G01X15343660Y-1962284D01*
G01X15383792Y-1962284D02*
G01X15423670Y-2025276D01*
G01X15500124Y-1945266D02*
G01X15488694Y-1950854D01*
G01X15477264Y-1962284D01*
G01X15471422Y-1979556D01*
G01X15471422Y-1990986D01*
G01X15477264Y-2008004D01*
G01X15488694Y-2019434D01*
G01X15500124Y-2025276D01*
G01X15517142Y-2025276D01*
G01X15528572Y-2019434D01*
G01X15540002Y-2008004D01*
G01X15545844Y-1990986D01*
G01X15545844Y-1979556D01*
G01X15540002Y-1962284D01*
G01X15528572Y-1950854D01*
G01X15517142Y-1945266D01*
G01X15500124Y-1945266D01*
G01X15593596Y-1945266D02*
G01X15593596Y-2002416D01*
G01X15599438Y-2019434D01*
G01X15610868Y-2025276D01*
G01X15627886Y-2025276D01*
G01X15639316Y-2019434D01*
G01X15656588Y-2002416D01*
G01X15656588Y-1945266D02*
G01X15656588Y-2025276D01*
G01X15704340Y-1945266D02*
G01X15704340Y-2025276D01*
G01X15704340Y-1968126D02*
G01X15721612Y-1950854D01*
G01X15733042Y-1945266D01*
G01X15750060Y-1945266D01*
G01X15761490Y-1950854D01*
G01X15767332Y-1968126D01*
G01X15767332Y-2025276D01*
G01X15883664Y-1905134D02*
G01X15883664Y-2025276D01*
G01X15883664Y-1962284D02*
G01X15872234Y-1950854D01*
G01X15860804Y-1945266D01*
G01X15843786Y-1945266D01*
G01X15832356Y-1950854D01*
G01X15820926Y-1962284D01*
G01X15815084Y-1979556D01*
G01X15815084Y-1990986D01*
G01X15820926Y-2008004D01*
G01X15832356Y-2019434D01*
G01X15843786Y-2025276D01*
G01X15860804Y-2025276D01*
G01X15872234Y-2019434D01*
G01X15883664Y-2008004D01*
G01X16774841Y-1905134D02*
G01X16774841Y-2025276D01*
G01X16774841Y-1905134D02*
G01X16826403Y-1905134D01*
G01X16843421Y-1910976D01*
G01X16849263Y-1916564D01*
G01X16854851Y-1927994D01*
G01X16854851Y-1945266D01*
G01X16849263Y-1956696D01*
G01X16843421Y-1962284D01*
G01X16826403Y-1968126D01*
G01X16774841Y-1968126D01*
G01X16971183Y-1945266D02*
G01X16971183Y-2025276D01*
G01X16971183Y-1962284D02*
G01X16959753Y-1950854D01*
G01X16948323Y-1945266D01*
G01X16931305Y-1945266D01*
G01X16919875Y-1950854D01*
G01X16908445Y-1962284D01*
G01X16902603Y-1979556D01*
G01X16902603Y-1990986D01*
G01X16908445Y-2008004D01*
G01X16919875Y-2019434D01*
G01X16931305Y-2025276D01*
G01X16948323Y-2025276D01*
G01X16959753Y-2019434D01*
G01X16971183Y-2008004D01*
G01X17087515Y-1905134D02*
G01X17087515Y-2025276D01*
G01X17087515Y-1962284D02*
G01X17076085Y-1950854D01*
G01X17064655Y-1945266D01*
G01X17047637Y-1945266D01*
G01X17036207Y-1950854D01*
G01X17024777Y-1962284D01*
G01X17018935Y-1979556D01*
G01X17018935Y-1990986D01*
G01X17024777Y-2008004D01*
G01X17036207Y-2019434D01*
G01X17047637Y-2025276D01*
G01X17064655Y-2025276D01*
G01X17076085Y-2019434D01*
G01X17087515Y-2008004D01*
G01X18484152Y-1882274D02*
G01X18472722Y-1893704D01*
G01X18461292Y-1910976D01*
G01X18449862Y-1933836D01*
G01X18444020Y-1962284D01*
G01X18444020Y-1985144D01*
G01X18449862Y-2013846D01*
G01X18461292Y-2036706D01*
G01X18472722Y-2053724D01*
G01X18484152Y-2065154D01*
G01X18531904Y-1905134D02*
G01X18531904Y-2025276D01*
G01X18531904Y-1905134D02*
G01X18577624Y-2025276D01*
G01X18623344Y-1905134D02*
G01X18577624Y-2025276D01*
G01X18623344Y-1905134D02*
G01X18623344Y-2025276D01*
G01X18671096Y-1905134D02*
G01X18676938Y-1910976D01*
G01X18682526Y-1905134D01*
G01X18676938Y-1899546D01*
G01X18671096Y-1905134D01*
G01X18676938Y-1945266D02*
G01X18676938Y-2025276D01*
G01X18730278Y-1945266D02*
G01X18793270Y-2025276D01*
G01X18793270Y-1945266D02*
G01X18730278Y-2025276D01*
G01X18841022Y-1979556D02*
G01X18909602Y-1979556D01*
G01X18909602Y-1968126D01*
G01X18904014Y-1956696D01*
G01X18898172Y-1950854D01*
G01X18886742Y-1945266D01*
G01X18869724Y-1945266D01*
G01X18858294Y-1950854D01*
G01X18846864Y-1962284D01*
G01X18841022Y-1979556D01*
G01X18841022Y-1990986D01*
G01X18846864Y-2008004D01*
G01X18858294Y-2019434D01*
G01X18869724Y-2025276D01*
G01X18886742Y-2025276D01*
G01X18898172Y-2019434D01*
G01X18909602Y-2008004D01*
G01X19025934Y-1905134D02*
G01X19025934Y-2025276D01*
G01X19025934Y-1962284D02*
G01X19014504Y-1950854D01*
G01X19003074Y-1945266D01*
G01X18986056Y-1945266D01*
G01X18974626Y-1950854D01*
G01X18963196Y-1962284D01*
G01X18957354Y-1979556D01*
G01X18957354Y-1990986D01*
G01X18963196Y-2008004D01*
G01X18974626Y-2019434D01*
G01X18986056Y-2025276D01*
G01X19003074Y-2025276D01*
G01X19014504Y-2019434D01*
G01X19025934Y-2008004D01*
G01X19073686Y-1882274D02*
G01X19085116Y-1893704D01*
G01X19096546Y-1910976D01*
G01X19107976Y-1933836D01*
G01X19113818Y-1962284D01*
G01X19113818Y-1985144D01*
G01X19107976Y-2013846D01*
G01X19096546Y-2036706D01*
G01X19085116Y-2053724D01*
G01X19073686Y-2065154D01*
G01X20403522Y-1905134D02*
G01X20403522Y-2025276D01*
G01X20363390Y-1905134D02*
G01X20443400Y-1905134D01*
G01X20519854Y-1945266D02*
G01X20508424Y-1950854D01*
G01X20496994Y-1962284D01*
G01X20491152Y-1979556D01*
G01X20491152Y-1990986D01*
G01X20496994Y-2008004D01*
G01X20508424Y-2019434D01*
G01X20519854Y-2025276D01*
G01X20536872Y-2025276D01*
G01X20548302Y-2019434D01*
G01X20559732Y-2008004D01*
G01X20565574Y-1990986D01*
G01X20565574Y-1979556D01*
G01X20559732Y-1962284D01*
G01X20548302Y-1950854D01*
G01X20536872Y-1945266D01*
G01X20519854Y-1945266D01*
G01X20613326Y-1945266D02*
G01X20613326Y-2065154D01*
G01X20613326Y-1962284D02*
G01X20624756Y-1950854D01*
G01X20636186Y-1945266D01*
G01X20653458Y-1945266D01*
G01X20664888Y-1950854D01*
G01X20676318Y-1962284D01*
G01X20681906Y-1979556D01*
G01X20681906Y-1990986D01*
G01X20676318Y-2008004D01*
G01X20664888Y-2019434D01*
G01X20653458Y-2025276D01*
G01X20636186Y-2025276D01*
G01X20624756Y-2019434D01*
G01X20613326Y-2008004D01*
G01X20857674Y-1905134D02*
G01X20857674Y-2025276D01*
G01X20857674Y-2025276D02*
G01X20926254Y-2025276D01*
G01X21042586Y-1945266D02*
G01X21042586Y-2025276D01*
G01X21042586Y-1962284D02*
G01X21031156Y-1950854D01*
G01X21019726Y-1945266D01*
G01X21002708Y-1945266D01*
G01X20991278Y-1950854D01*
G01X20979848Y-1962284D01*
G01X20974006Y-1979556D01*
G01X20974006Y-1990986D01*
G01X20979848Y-2008004D01*
G01X20991278Y-2019434D01*
G01X21002708Y-2025276D01*
G01X21019726Y-2025276D01*
G01X21031156Y-2019434D01*
G01X21042586Y-2008004D01*
G01X21096180Y-1945266D02*
G01X21130470Y-2025276D01*
G01X21164760Y-1945266D02*
G01X21130470Y-2025276D01*
G01X21119040Y-2048136D01*
G01X21107610Y-2059566D01*
G01X21096180Y-2065154D01*
G01X21090338Y-2065154D01*
G01X21212512Y-1979556D02*
G01X21281092Y-1979556D01*
G01X21281092Y-1968126D01*
G01X21275504Y-1956696D01*
G01X21269662Y-1950854D01*
G01X21258232Y-1945266D01*
G01X21241214Y-1945266D01*
G01X21229784Y-1950854D01*
G01X21218354Y-1962284D01*
G01X21212512Y-1979556D01*
G01X21212512Y-1990986D01*
G01X21218354Y-2008004D01*
G01X21229784Y-2019434D01*
G01X21241214Y-2025276D01*
G01X21258232Y-2025276D01*
G01X21269662Y-2019434D01*
G01X21281092Y-2008004D01*
G01X21328844Y-1945266D02*
G01X21328844Y-2025276D01*
G01X21328844Y-1979556D02*
G01X21334686Y-1962284D01*
G01X21346116Y-1950854D01*
G01X21357546Y-1945266D01*
G01X21374564Y-1945266D01*
G01X21422316Y-1973714D02*
G01X21525186Y-1973714D01*
G01X21572938Y-1905134D02*
G01X21572938Y-2025276D01*
G01X21572938Y-1905134D02*
G01X21624500Y-1905134D01*
G01X21641518Y-1910976D01*
G01X21647360Y-1916564D01*
G01X21652948Y-1927994D01*
G01X21652948Y-1939424D01*
G01X21647360Y-1950854D01*
G01X21641518Y-1956696D01*
G01X21624500Y-1962284D01*
G01X21572938Y-1962284D02*
G01X21624500Y-1962284D01*
G01X21641518Y-1968126D01*
G01X21647360Y-1973714D01*
G01X21652948Y-1985144D01*
G01X21652948Y-2002416D01*
G01X21647360Y-2013846D01*
G01X21641518Y-2019434D01*
G01X21624500Y-2025276D01*
G01X21572938Y-2025276D01*
G01X21729402Y-1945266D02*
G01X21717972Y-1950854D01*
G01X21706542Y-1962284D01*
G01X21700700Y-1979556D01*
G01X21700700Y-1990986D01*
G01X21706542Y-2008004D01*
G01X21717972Y-2019434D01*
G01X21729402Y-2025276D01*
G01X21746420Y-2025276D01*
G01X21757850Y-2019434D01*
G01X21769280Y-2008004D01*
G01X21775122Y-1990986D01*
G01X21775122Y-1979556D01*
G01X21769280Y-1962284D01*
G01X21757850Y-1950854D01*
G01X21746420Y-1945266D01*
G01X21729402Y-1945266D01*
G01X21840146Y-1905134D02*
G01X21840146Y-2002416D01*
G01X21845734Y-2019434D01*
G01X21857164Y-2025276D01*
G01X21868594Y-2025276D01*
G01X21822874Y-1945266D02*
G01X21863006Y-1945266D01*
G01X21933618Y-1905134D02*
G01X21933618Y-2002416D01*
G01X21939206Y-2019434D01*
G01X21950636Y-2025276D01*
G01X21962066Y-2025276D01*
G01X21916346Y-1945266D02*
G01X21956478Y-1945266D01*
G01X22038520Y-1945266D02*
G01X22027090Y-1950854D01*
G01X22015660Y-1962284D01*
G01X22009818Y-1979556D01*
G01X22009818Y-1990986D01*
G01X22015660Y-2008004D01*
G01X22027090Y-2019434D01*
G01X22038520Y-2025276D01*
G01X22055538Y-2025276D01*
G01X22066968Y-2019434D01*
G01X22078398Y-2008004D01*
G01X22084240Y-1990986D01*
G01X22084240Y-1979556D01*
G01X22078398Y-1962284D01*
G01X22066968Y-1950854D01*
G01X22055538Y-1945266D01*
G01X22038520Y-1945266D01*
G01X22131992Y-1945266D02*
G01X22131992Y-2025276D01*
G01X22131992Y-1968126D02*
G01X22149264Y-1950854D01*
G01X22160694Y-1945266D01*
G01X22177712Y-1945266D01*
G01X22189142Y-1950854D01*
G01X22194984Y-1968126D01*
G01X22194984Y-2025276D01*
G01X22194984Y-1968126D02*
G01X22212002Y-1950854D01*
G01X22223432Y-1945266D01*
G01X22240704Y-1945266D01*
G01X22252134Y-1950854D01*
G01X22257722Y-1968126D01*
G01X22257722Y-2025276D01*
G01X22433490Y-1905134D02*
G01X22433490Y-2025276D01*
G01X22433490Y-2025276D02*
G01X22502070Y-2025276D01*
G01X22618402Y-1945266D02*
G01X22618402Y-2025276D01*
G01X22618402Y-1962284D02*
G01X22606972Y-1950854D01*
G01X22595542Y-1945266D01*
G01X22578524Y-1945266D01*
G01X22567094Y-1950854D01*
G01X22555664Y-1962284D01*
G01X22549822Y-1979556D01*
G01X22549822Y-1990986D01*
G01X22555664Y-2008004D01*
G01X22567094Y-2019434D01*
G01X22578524Y-2025276D01*
G01X22595542Y-2025276D01*
G01X22606972Y-2019434D01*
G01X22618402Y-2008004D01*
G01X22671996Y-1945266D02*
G01X22706286Y-2025276D01*
G01X22740576Y-1945266D02*
G01X22706286Y-2025276D01*
G01X22694856Y-2048136D01*
G01X22683426Y-2059566D01*
G01X22671996Y-2065154D01*
G01X22666154Y-2065154D01*
G01X22788328Y-1979556D02*
G01X22856908Y-1979556D01*
G01X22856908Y-1968126D01*
G01X22851320Y-1956696D01*
G01X22845478Y-1950854D01*
G01X22834048Y-1945266D01*
G01X22817030Y-1945266D01*
G01X22805600Y-1950854D01*
G01X22794170Y-1962284D01*
G01X22788328Y-1979556D01*
G01X22788328Y-1990986D01*
G01X22794170Y-2008004D01*
G01X22805600Y-2019434D01*
G01X22817030Y-2025276D01*
G01X22834048Y-2025276D01*
G01X22845478Y-2019434D01*
G01X22856908Y-2008004D01*
G01X22904660Y-1945266D02*
G01X22904660Y-2025276D01*
G01X22904660Y-1979556D02*
G01X22910502Y-1962284D01*
G01X22921932Y-1950854D01*
G01X22933362Y-1945266D01*
G01X22950380Y-1945266D01*

G04 Image Start*
G36*
G01X7512129Y-924603D02*
G01X7406516Y-913122D01*
G01X7363641Y-1010328D01*
G01X7320765Y-913122D01*
G01X7215152Y-924603D01*
G01X7277916Y-838878D01*
G01X7238193Y-784624D01*
G01X7269686Y-784624D01*
G01X7309386Y-838878D01*
G01X7269686Y-893133D01*
G01X7336513Y-885868D01*
G01X7336513Y-885868D01*
G01X7363641Y-947362D01*
G01X7390768Y-885868D01*
G01X7457595Y-893133D01*
G01X7417895Y-838878D01*
G01X7457570Y-784649D01*
G01X7390742Y-791914D01*
G01X7363641Y-730395D01*
G01X7336513Y-791888D01*
G01X7269686Y-784624D01*
G01X7238193Y-784624D01*
G01X7215152Y-753153D01*
G01X7320791Y-764634D01*
G01X7363641Y-667428D01*
G01X7406516Y-764634D01*
G01X7512129Y-753153D01*
G01X7449366Y-838878D01*
G01X7512129Y-924603D01*
G37*
G36*
G01X7383135Y189701D02*
G01X7375395Y189113D01*
G01X7367552Y188915D01*
G01X7359709Y189113D01*
G01X7351969Y189701D01*
G01X7344341Y190670D01*
G01X7336836Y192011D01*
G01X7322230Y195766D01*
G01X7308228Y200890D01*
G01X7294906Y207307D01*
G01X7282341Y214940D01*
G01X7270609Y223713D01*
G01X7259786Y233549D01*
G01X7249951Y244371D01*
G01X7241178Y256103D01*
G01X7233545Y268668D01*
G01X7227127Y281991D01*
G01X7222003Y295993D01*
G01X7218248Y310599D01*
G01X7216908Y318104D01*
G01X7215939Y325731D01*
G01X7215350Y333471D01*
G01X7215152Y341315D01*
G01X7240552Y341315D01*
G01X7241209Y328348D01*
G01X7243137Y315752D01*
G01X7246271Y303590D01*
G01X7250548Y291928D01*
G01X7255903Y280829D01*
G01X7262271Y270357D01*
G01X7269589Y260577D01*
G01X7277792Y251554D01*
G01X7286815Y243352D01*
G01X7296595Y236034D01*
G01X7307066Y229665D01*
G01X7318165Y224311D01*
G01X7329828Y220034D01*
G01X7341989Y216899D01*
G01X7341989Y216899D01*
G01X7354586Y214972D01*
G01X7367552Y214315D01*
G01X7380519Y214972D01*
G01X7393115Y216899D01*
G01X7405276Y220034D01*
G01X7416939Y224311D01*
G01X7428038Y229665D01*
G01X7438510Y236034D01*
G01X7448289Y243352D01*
G01X7457313Y251554D01*
G01X7465515Y260577D01*
G01X7472833Y270357D01*
G01X7479201Y280829D01*
G01X7484556Y291928D01*
G01X7488833Y303590D01*
G01X7491967Y315752D01*
G01X7493895Y328348D01*
G01X7494552Y341315D01*
G01X7493895Y354281D01*
G01X7491967Y366877D01*
G01X7488833Y379039D01*
G01X7484556Y390701D01*
G01X7479201Y401801D01*
G01X7472833Y412272D01*
G01X7465515Y422052D01*
G01X7457313Y431075D01*
G01X7448289Y439278D01*
G01X7438510Y446595D01*
G01X7428038Y452964D01*
G01X7416939Y458318D01*
G01X7405276Y462595D01*
G01X7393115Y465730D01*
G01X7380519Y467658D01*
G01X7367552Y468315D01*
G01X7354586Y467658D01*
G01X7341989Y465730D01*
G01X7329828Y462595D01*
G01X7318165Y458318D01*
G01X7307066Y452964D01*
G01X7296595Y446595D01*
G01X7286815Y439278D01*
G01X7277792Y431075D01*
G01X7269589Y422052D01*
G01X7262271Y412272D01*
G01X7255903Y401801D01*
G01X7250548Y390701D01*
G01X7246271Y379039D01*
G01X7243137Y366877D01*
G01X7241209Y354281D01*
G01X7240552Y341315D01*
G01X7215152Y341315D01*
G01X7215350Y349158D01*
G01X7215939Y356898D01*
G01X7216908Y364525D01*
G01X7218248Y372031D01*
G01X7222003Y386636D01*
G01X7227127Y400639D01*
G01X7233545Y413961D01*
G01X7241178Y426526D01*
G01X7249951Y438258D01*
G01X7259786Y449080D01*
G01X7270609Y458916D01*
G01X7282341Y467689D01*
G01X7294906Y475322D01*
G01X7308228Y481739D01*
G01X7322230Y486864D01*
G01X7336836Y490619D01*
G01X7344341Y491959D01*
G01X7351969Y492928D01*
G01X7359709Y493516D01*
G01X7367552Y493715D01*
G01X7375395Y493516D01*
G01X7383135Y492928D01*
G01X7390763Y491959D01*
G01X7398268Y490619D01*
G01X7412874Y486864D01*
G01X7426876Y481739D01*
G01X7440198Y475322D01*
G01X7452764Y467689D01*
G01X7464496Y458916D01*
G01X7475318Y449080D01*
G01X7485154Y438258D01*
G01X7493927Y426526D01*
G01X7501560Y413961D01*
G01X7507977Y400639D01*
G01X7513101Y386636D01*
G01X7516856Y372031D01*
G01X7518196Y364525D01*
G01X7519165Y356898D01*
G01X7519754Y349158D01*
G01X7519952Y341315D01*
G01X7519754Y333471D01*
G01X7519165Y325731D01*
G01X7518196Y318104D01*
G01X7516856Y310599D01*
G01X7513101Y295993D01*
G01X7507977Y281991D01*
G01X7501560Y268668D01*
G01X7493927Y256103D01*
G01X7485154Y244371D01*
G01X7475318Y233549D01*
G01X7464496Y223713D01*
G01X7452764Y214940D01*
G01X7440198Y207307D01*
G01X7426876Y200890D01*
G01X7412874Y195766D01*
G01X7398268Y192011D01*
G01X7390763Y190670D01*
G01X7383135Y189701D01*
G37*
G36*
G01X7519952Y-2050237D02*
G01X7436843Y-2050237D01*
G01X7436843Y-2133371D01*
G01X7298286Y-2133371D01*
G01X7298286Y-2050262D01*
G01X7215152Y-2050262D01*
G01X7215152Y-1937105D01*
G01X7240552Y-1937105D01*
G01X7240552Y-2024837D01*
G01X7323686Y-2024837D01*
G01X7323686Y-2107971D01*
G01X7323686Y-2107971D01*
G01X7411418Y-2107971D01*
G01X7411418Y-2024862D01*
G01X7494552Y-2024862D01*
G01X7494552Y-1937105D01*
G01X7411418Y-1937105D01*
G01X7411418Y-1853971D01*
G01X7323686Y-1853971D01*
G01X7323686Y-1937105D01*
G01X7240552Y-1937105D01*
G01X7215152Y-1937105D01*
G01X7215152Y-1911705D01*
G01X7298286Y-1911705D01*
G01X7298286Y-1828571D01*
G01X7436818Y-1828571D01*
G01X7436818Y-1911705D01*
G01X7519952Y-1911705D01*
G01X7519952Y-2050237D01*
G37*
G36*
G01X7519952Y-1248000D02*
G01X7449924Y-1400400D01*
G01X7519952Y-1552800D01*
G01X7367552Y-1482772D01*
G01X7215152Y-1552800D01*
G01X7238915Y-1501085D01*
G01X7266867Y-1501085D01*
G01X7356935Y-1459683D01*
G01X7367552Y-1454806D01*
G01X7378169Y-1459683D01*
G01X7468238Y-1501085D01*
G01X7426836Y-1411017D01*
G01X7421959Y-1400400D01*
G01X7426836Y-1389782D01*
G01X7468238Y-1299714D01*
G01X7378169Y-1341116D01*
G01X7367552Y-1345993D01*
G01X7356935Y-1341116D01*
G01X7266867Y-1299714D01*
G01X7308269Y-1389782D01*
G01X7313145Y-1400400D01*
G01X7313145Y-1400400D01*
G01X7308269Y-1411017D01*
G01X7266867Y-1501085D01*
G01X7238915Y-1501085D01*
G01X7285180Y-1400400D01*
G01X7215152Y-1248000D01*
G01X7367552Y-1318027D01*
G01X7519952Y-1248000D01*
G37*
G36*
G01X7215152Y-86857D02*
G01X7519952Y-86857D01*
G01X7367552Y-350814D01*
G01X7229817Y-112257D01*
G01X7259145Y-112257D01*
G01X7367552Y-300014D01*
G01X7475959Y-112257D01*
G01X7475959Y-112257D01*
G01X7259145Y-112257D01*
G01X7229817Y-112257D01*
G01X7215152Y-86857D01*
G37*
G36*
G01X7215152Y1074286D02*
G01X7494552Y1074286D01*
G01X7494552Y794886D01*
G01X7215152Y794886D01*
G01X7215152Y1048886D01*
G01X7240552Y1048886D01*
G01X7240552Y820286D01*
G01X7469152Y820286D01*
G01X7469152Y1048886D01*
G01X7469152Y1048886D01*
G01X7240552Y1048886D01*
G01X7215152Y1048886D01*
G01X7215152Y1074286D01*
G37*

G04 PolygonModel Start*
G54D17*
G01X6924866Y-2264000D02*
G01X23541111Y-2264000D01*
G01X6924866Y-1683428D02*
G01X23541111Y-1683428D01*
G01X6924866Y-1102857D02*
G01X23541111Y-1102857D01*
G01X6924866Y-522285D02*
G01X23541111Y-522285D01*
G01X6924866Y58286D02*
G01X23541111Y58286D01*
G01X6924866Y638857D02*
G01X23541111Y638857D01*
G01X6924866Y1219429D02*
G01X23541111Y1219429D01*
G01X6924866Y1800000D02*
G01X23541111Y1800000D01*
G01X6924866Y1800000D02*
G01X6924866Y-2238600D01*
G01X8376295Y1800000D02*
G01X8376295Y-2238600D01*
G01X9790458Y1800000D02*
G01X9790458Y-2238600D01*
G01X13581807Y1800000D02*
G01X13581807Y-2238600D01*
G01X15043214Y1800000D02*
G01X15043214Y-2238600D01*
G01X16474396Y1800000D02*
G01X16474396Y-2238600D01*
G01X18143575Y1800000D02*
G01X18143575Y-2238600D01*
G01X20062944Y1800000D02*
G01X20062944Y-2238600D01*
G01X23541111Y1800000D02*
G01X23541111Y-2238600D01*

M02*

