G04 Layer: BottomLayer*
G04 EasyEDA Pro v3.2.148, 2026-08-11 11:52:59*
G04 Gerber Generator version 0.3*
G04 Scale: 100 percent, Rotated: No, Reflected: No*
G04 Dimensions in millimeters*
G04 Leading zeros omitted, absolute positions, 4 integers and 5 decimals*
G04 Generated by one-click*
G04 Object Configs: Pad,Via,Track,Text,Image,Dimension,BoardOutline,BoardCutout,CopperFilled,SolidRegion,FPCStiffener,Line,PlaneZone,ComponentProperty,ComponentSilkscreen,TearDrop*
G04 Layer Configs: 1,2,3,4,5,6,7,8,9,10,11,13,14,56*
G04 Copper Areas: 0*
%FSLAX45Y45*%
%MOMM*%
%ADD10C,1.7*%
%ADD11R,1.7X1.7*%
%ADD12R,1.5X2.0*%
%ADD13C,1.6*%
%ADD14C,0.61*%
%ADD15C,0.508*%
%ADD16C,0.2508*%
%ADD17C,0.254*%
G75*


G04 Pad Start*
G54D10*
G01X375011Y-647710D03*
G01X124998Y-647710D03*
G01X-124988Y-647710D03*
G54D11*
G01X-375001Y-647710D03*
G54D10*
G01X3537311Y-647710D03*
G01X3287298Y-647710D03*
G01X3037312Y-647710D03*
G54D11*
G01X2787299Y-647710D03*
G01X4330700Y-762000D03*
G54D10*
G01X4330700Y-508000D03*
G01X4330700Y-254000D03*
G01X4330700Y0D03*
G01X4330700Y254000D03*
G01X4330700Y508000D03*
G01X4330700Y762000D03*
G54D12*
G01X-4191000Y938098D03*
G01X-3937000Y938098D03*
G01X-3683000Y938098D03*
G01X-3429000Y938098D03*
G01X-3175000Y938098D03*
G01X-2921000Y938098D03*
G01X-2667000Y938098D03*
G01X-2413000Y938098D03*
G01X-2159000Y938098D03*
G01X-2159000Y-861898D03*
G01X-2413000Y-861898D03*
G01X-2667000Y-861898D03*
G01X-2921000Y-861898D03*
G01X-3175000Y-861898D03*
G01X-3429000Y-861898D03*
G01X-3683000Y-861898D03*
G01X-3937000Y-861898D03*
G01X-4191000Y-861898D03*
G54D13*
G01X-4191000Y800100D03*
G01X-3937000Y800100D03*
G01X-3683000Y800100D03*
G01X-3429000Y800100D03*
G01X-3175000Y800100D03*
G01X-2921000Y800100D03*
G01X-2667000Y800100D03*
G01X-2413000Y800100D03*
G01X-2159000Y800100D03*
G01X-2159000Y-723900D03*
G01X-2413000Y-723900D03*
G01X-2667000Y-723900D03*
G01X-2921000Y-723900D03*
G01X-3175000Y-723900D03*
G01X-3429000Y-723900D03*
G01X-3683000Y-723900D03*
G01X-3937000Y-723900D03*
G01X-4191000Y-723900D03*
G54D11*
G01X812800Y762000D03*
G54D10*
G01X812800Y508000D03*
G01X812800Y254000D03*
G01X812800Y0D03*
G01X812800Y-254000D03*
G01X812800Y-508000D03*
G01X812800Y-762000D03*
G54D11*
G01X-812800Y-762000D03*
G54D10*
G01X-812800Y-508000D03*
G01X-812800Y-254000D03*
G01X-812800Y0D03*
G01X-812800Y254000D03*
G01X-812800Y508000D03*
G01X-812800Y762000D03*
G04 Pad End*

G04 Via Start*
G54D14*
G01X-1193800Y-266700D03*
G01X0Y292100D03*
G01X-1790700Y406400D03*
G01X-1790700Y292100D03*
G04 Via End*

G04 Track Start*
G54D15*
G01X-2921000Y800100D02*
G01X-1473190Y-647710D01*
G01X-925927Y-647710D01*
G01X-914617Y-636400D01*
G01X-710983Y-636400D01*
G01X52637Y-647710D02*
G01X124998Y-647710D01*
G01X-710983Y-636400D02*
G01X-596693Y-522110D01*
G01X-72963Y-522110D01*
G01X52637Y-647710D01*
G01X-2159000Y800100D02*
G01X-2159000Y165100D01*
G01X375011Y-630060D02*
G01X375011Y-647710D01*
G01X38100Y-508000D02*
G01X252951Y-508000D01*
G01X375011Y-630060D01*
G01X-592990Y-461110D02*
G01X-8790Y-461110D01*
G01X38100Y-508000D01*
G01X-671700Y-382400D02*
G01X-592990Y-461110D01*
G01X-2159000Y165100D02*
G01X-1611500Y-382400D01*
G01X-671700Y-382400D01*
G01X-1193800Y-266700D02*
G01X-1003125Y-266700D01*
G01X-864825Y-128400D01*
G01X-596800Y-190600D02*
G01X-659000Y-128400D01*
G01X-864825Y-128400D01*
G01X-812800Y-762000D02*
G01X-488128Y-762000D01*
G01X-362528Y-887600D01*
G01X-812800Y-254000D02*
G01X304800Y-254000D01*
G01X812800Y254000D01*
G01X864825Y633600D02*
G01X760775Y633600D01*
G01X812800Y-254000D02*
G01X990600Y-76200D01*
G01X990600Y507825D01*
G01X864825Y633600D01*
G01X-362528Y-887600D02*
G01X1003300Y-887600D01*
G01X1054100Y-836800D01*
G01X1054100Y762000D01*
G01X812800Y762000D01*
G01X812800Y508000D02*
G01X812800Y431625D01*
G01X190575Y-190600D01*
G01X-596800Y-190600D01*
G01X-812800Y0D02*
G01X-736600Y0D01*
G01X-444500Y292100D01*
G01X0Y292100D01*
G01X760775Y633600D02*
G01X495475Y368300D01*
G01X-698500Y368300D01*
G01X-812800Y254000D01*
G54D17*
G01X-2039211Y1427889D02*
G03X-362934Y1107300I1676279J4222118D01*
G01X-362934Y1107300D02*
G01X363019Y1107300D01*
G01X363019Y1107300D02*
G03X2039296Y1427889I-2J4542708D01*
G01X2039296Y1427889D02*
G01X2057400Y1427889D01*
G01X2069529Y1440018D01*
G01X2069529Y1440018D02*
G01X2146226Y1471927D01*
G01X2222328Y1505233D01*
G01X2297807Y1539925D01*
G01X2372640Y1575992D01*
G01X2372640Y1575992D02*
G01X2403581Y1590880D01*
G01X2434807Y1605161D01*
G01X2434807Y1605161D02*
G02X3112832Y1756906I715236J-1605163D01*
G01X3187253Y1756906D01*
G02X3763426Y1646774I-37210J-1756907D01*
G02X4796816Y613384I-613384J-1646775D01*
G01X4796816Y613384D02*
G01X4796816Y587984D01*
G01X4716833Y508000D01*
G01X4330700Y508000D01*
G01X-2280511Y1427889D02*
G01X-2039211Y1427889D01*
G01X-2667000Y800100D02*
G01X-2667000Y938098D01*
G01X-2667000Y1041400D01*
G01X-2280511Y1427889D01*
G01X-1992695Y1371600D02*
G03X-362934Y1071700I1629762J4278404D01*
G01X-362934Y1071700D02*
G01X363019Y1071700D01*
G01X363019Y1071700D02*
G01X430184Y1072193D01*
G01X497335Y1073671D01*
G01X497335Y1073671D02*
G03X1270000Y1155700I-149283J5086201D01*
G01X1270000Y1155700D02*
G03X2058913Y1392322I-684641J3716091D01*
G01X2058913Y1392322D02*
G03X2082064Y1402217I-1512J35568D01*
G01X2082064Y1402217D02*
G01X2153870Y1434082D01*
G01X2224998Y1467433D01*
G01X2224998Y1467433D02*
G01X2284684Y1494518D01*
G01X2343976Y1522454D01*
G01X2343976Y1522454D02*
G02X2708744Y1664184I1693454J-3818148D01*
G01X3751000Y1613414D02*
G02X4547560Y1005583I-600957J-1613412D01*
G01X4547560Y1005583D02*
G01X4559931Y985483D01*
G01X4572000Y965200D01*
G01X2708744Y1664184D02*
G02X3088197Y1720589I441297J-1664178D01*
G01X3113587Y1721226D01*
G01X3138986Y1721312D01*
G01X3161853Y1721309D01*
G01X3187250Y1721121D01*
G01X3212642Y1720562D01*
G01X3212642Y1720562D02*
G02X3751000Y1613414I-62600J-1720566D01*
G01X-2413000Y800100D02*
G01X-2413000Y938098D01*
G01X-2413000Y1231900D01*
G01X4572000Y965200D02*
G01X4572000Y939800D01*
G01X4394200Y762000D01*
G01X4330700Y762000D01*
G01X-2413000Y1231900D02*
G01X-2273300Y1371600D01*
G01X-1992695Y1371600D01*
G54D15*
G01X2347488Y292100D02*
G01X3287298Y-647710D01*
G01X-1790700Y292100D02*
G01X-952325Y292100D01*
G01X-864825Y379600D01*
G01X-864825Y382400D01*
G01X-938400Y455975D01*
G01X-938400Y560025D01*
G01X-864825Y633600D01*
G01X-760775Y633600D01*
G01X-687200Y560025D01*
G01X-583150Y560025D01*
G01X-279358Y863817D01*
G01X687200Y863817D01*
G01X710983Y887600D01*
G01X914617Y887600D01*
G01X979217Y823000D01*
G01X1079367Y823000D01*
G01X1115100Y787267D01*
G01X1115100Y495300D01*
G01X1318300Y292100D01*
G01X2347488Y292100D01*
G01X2483201Y406400D02*
G01X3537311Y-647710D01*
G01X-1790700Y406400D02*
G01X-1074242Y406400D01*
G01X-999400Y481242D01*
G01X-999400Y585292D01*
G01X-938400Y646292D01*
G01X-938400Y814025D01*
G01X-864825Y887600D01*
G01X-760775Y887600D01*
G01X-687200Y814025D01*
G01X-687200Y709975D01*
G01X-699775Y697400D01*
G01X-699775Y658867D01*
G01X-661933Y621025D01*
G01X-608417Y621025D01*
G01X-304625Y924817D01*
G01X661933Y924817D01*
G01X685716Y948600D01*
G01X939884Y948600D01*
G01X1004484Y884000D01*
G01X1104634Y884000D01*
G01X1176100Y812534D01*
G01X1176100Y520567D01*
G01X1290267Y406400D01*
G01X2483201Y406400D01*
G04 Track End*

M02*

