G04 Layer: TopSilkscreenLayer*
G04 EasyEDA Pro v3.2.148, 2026-08-11 11:52:59*
G04 Gerber Generator version 0.3*
G04 Scale: 100 percent, Rotated: No, Reflected: No*
G04 Dimensions in millimeters*
G04 Leading zeros omitted, absolute positions, 4 integers and 5 decimals*
G04 Generated by one-click*
G04 Object Configs: Pad,Via,Track,Text,Image,Dimension,BoardOutline,BoardCutout,CopperFilled,SolidRegion,FPCStiffener,Line,PlaneZone,ComponentProperty,ComponentSilkscreen,TearDrop*
G04 Layer Configs: 1,2,3,4,5,6,7,8,9,10,11,13,14,56*
G04 Copper Areas: 0*
%FSLAX45Y45*%
%MOMM*%
%ADD10C,0.203*%
%ADD11C,0.1524*%
%ADD12C,0.254*%
%ADD13C,0.7393*%
G75*


G04 Text Start*
G54D10*
G01X-593090Y-670560D02*
G01X-645414Y-670560D01*
G01X-593090Y-670560D02*
G01X-593090Y-692912D01*
G01X-595630Y-700532D01*
G01X-598170Y-702818D01*
G01X-603250Y-705358D01*
G01X-608076Y-705358D01*
G01X-613156Y-702818D01*
G01X-615696Y-700532D01*
G01X-618236Y-692912D01*
G01X-618236Y-670560D01*
G01X-618236Y-688086D02*
G01X-645414Y-705358D01*
G01X-600710Y-772414D02*
G01X-595630Y-767588D01*
G01X-593090Y-759968D01*
G01X-593090Y-750062D01*
G01X-595630Y-742696D01*
G01X-600710Y-737616D01*
G01X-605790Y-737616D01*
G01X-610616Y-740156D01*
G01X-613156Y-742696D01*
G01X-615696Y-747522D01*
G01X-620522Y-762508D01*
G01X-623062Y-767588D01*
G01X-625602Y-769874D01*
G01X-630682Y-772414D01*
G01X-638048Y-772414D01*
G01X-643128Y-767588D01*
G01X-645414Y-759968D01*
G01X-645414Y-750062D01*
G01X-643128Y-742696D01*
G01X-638048Y-737616D01*
G01X-593090Y-822198D02*
G01X-645414Y-822198D01*
G01X-593090Y-804672D02*
G01X-593090Y-839470D01*
G01X593090Y683260D02*
G01X645414Y683260D01*
G01X593090Y683260D02*
G01X593090Y705612D01*
G01X595630Y713232D01*
G01X598170Y715518D01*
G01X603250Y718058D01*
G01X608076Y718058D01*
G01X613156Y715518D01*
G01X615696Y713232D01*
G01X618236Y705612D01*
G01X618236Y683260D01*
G01X618236Y700786D02*
G01X645414Y718058D01*
G01X600710Y785114D02*
G01X595630Y780288D01*
G01X593090Y772668D01*
G01X593090Y762762D01*
G01X595630Y755396D01*
G01X600710Y750316D01*
G01X605790Y750316D01*
G01X610616Y752856D01*
G01X613156Y755396D01*
G01X615696Y760222D01*
G01X620522Y775208D01*
G01X623062Y780288D01*
G01X625602Y782574D01*
G01X630682Y785114D01*
G01X638048Y785114D01*
G01X643128Y780288D01*
G01X645414Y772668D01*
G01X645414Y762762D01*
G01X643128Y755396D01*
G01X638048Y750316D01*
G01X593090Y834898D02*
G01X645414Y834898D01*
G01X593090Y817372D02*
G01X593090Y852170D01*
G01X-605790Y-491998D02*
G01X-600710Y-489458D01*
G01X-595630Y-484632D01*
G01X-593090Y-479552D01*
G01X-593090Y-469646D01*
G01X-595630Y-464566D01*
G01X-600710Y-459740D01*
G01X-605790Y-457200D01*
G01X-613156Y-454660D01*
G01X-625602Y-454660D01*
G01X-632968Y-457200D01*
G01X-638048Y-459740D01*
G01X-643128Y-464566D01*
G01X-645414Y-469646D01*
G01X-645414Y-479552D01*
G01X-643128Y-484632D01*
G01X-638048Y-489458D01*
G01X-632968Y-491998D01*
G01X-600710Y-559054D02*
G01X-595630Y-554228D01*
G01X-593090Y-546608D01*
G01X-593090Y-536702D01*
G01X-595630Y-529336D01*
G01X-600710Y-524256D01*
G01X-605790Y-524256D01*
G01X-610616Y-526796D01*
G01X-613156Y-529336D01*
G01X-615696Y-534162D01*
G01X-620522Y-549148D01*
G01X-623062Y-554228D01*
G01X-625602Y-556514D01*
G01X-630682Y-559054D01*
G01X-638048Y-559054D01*
G01X-643128Y-554228D01*
G01X-645414Y-546608D01*
G01X-645414Y-536702D01*
G01X-643128Y-529336D01*
G01X-638048Y-524256D01*
G01X-593090Y-213360D02*
G01X-645414Y-213360D01*
G01X-593090Y-213360D02*
G01X-593090Y-230886D01*
G01X-595630Y-238252D01*
G01X-600710Y-243332D01*
G01X-605790Y-245618D01*
G01X-613156Y-248158D01*
G01X-625602Y-248158D01*
G01X-632968Y-245618D01*
G01X-638048Y-243332D01*
G01X-643128Y-238252D01*
G01X-645414Y-230886D01*
G01X-645414Y-213360D01*
G01X-605790Y-317754D02*
G01X-600710Y-315214D01*
G01X-595630Y-310388D01*
G01X-593090Y-305308D01*
G01X-593090Y-295402D01*
G01X-595630Y-290322D01*
G01X-600710Y-285496D01*
G01X-605790Y-282956D01*
G01X-613156Y-280416D01*
G01X-625602Y-280416D01*
G01X-632968Y-282956D01*
G01X-638048Y-285496D01*
G01X-643128Y-290322D01*
G01X-645414Y-295402D01*
G01X-645414Y-305308D01*
G01X-643128Y-310388D01*
G01X-638048Y-315214D01*
G01X-632968Y-317754D01*
G01X-588010Y43942D02*
G01X-582930Y48768D01*
G01X-580390Y56388D01*
G01X-580390Y66294D01*
G01X-582930Y73660D01*
G01X-588010Y78740D01*
G01X-593090Y78740D01*
G01X-597916Y76200D01*
G01X-600456Y73660D01*
G01X-602996Y68834D01*
G01X-607822Y53848D01*
G01X-610362Y48768D01*
G01X-612902Y46482D01*
G01X-617982Y43942D01*
G01X-625348Y43942D01*
G01X-630428Y48768D01*
G01X-632714Y56388D01*
G01X-632714Y66294D01*
G01X-630428Y73660D01*
G01X-625348Y78740D01*
G01X-580390Y11684D02*
G01X-632714Y11684D01*
G01X-580390Y11684D02*
G01X-580390Y-5842D01*
G01X-582930Y-13208D01*
G01X-588010Y-18288D01*
G01X-593090Y-20574D01*
G01X-600456Y-23114D01*
G01X-612902Y-23114D01*
G01X-620268Y-20574D01*
G01X-625348Y-18288D01*
G01X-630428Y-13208D01*
G01X-632714Y-5842D01*
G01X-632714Y11684D01*
G01X-580390Y-75184D02*
G01X-632714Y-55372D01*
G01X-580390Y-75184D02*
G01X-632714Y-95250D01*
G01X-615442Y-62738D02*
G01X-615442Y-87630D01*
G01X-600710Y297942D02*
G01X-595630Y302768D01*
G01X-593090Y310388D01*
G01X-593090Y320294D01*
G01X-595630Y327660D01*
G01X-600710Y332740D01*
G01X-605790Y332740D01*
G01X-610616Y330200D01*
G01X-613156Y327660D01*
G01X-615696Y322834D01*
G01X-620522Y307848D01*
G01X-623062Y302768D01*
G01X-625602Y300482D01*
G01X-630682Y297942D01*
G01X-638048Y297942D01*
G01X-643128Y302768D01*
G01X-645414Y310388D01*
G01X-645414Y320294D01*
G01X-643128Y327660D01*
G01X-638048Y332740D01*
G01X-605790Y228346D02*
G01X-600710Y230886D01*
G01X-595630Y235712D01*
G01X-593090Y240792D01*
G01X-593090Y250698D01*
G01X-595630Y255778D01*
G01X-600710Y260604D01*
G01X-605790Y263144D01*
G01X-613156Y265684D01*
G01X-625602Y265684D01*
G01X-632968Y263144D01*
G01X-638048Y260604D01*
G01X-643128Y255778D01*
G01X-645414Y250698D01*
G01X-645414Y240792D01*
G01X-643128Y235712D01*
G01X-638048Y230886D01*
G01X-632968Y228346D01*
G01X-593090Y196088D02*
G01X-645414Y196088D01*
G01X-645414Y196088D02*
G01X-645414Y166116D01*
G01X-605790Y536702D02*
G01X-600710Y539242D01*
G01X-595630Y544068D01*
G01X-593090Y549148D01*
G01X-593090Y559054D01*
G01X-595630Y564134D01*
G01X-600710Y568960D01*
G01X-605790Y571500D01*
G01X-613156Y574040D01*
G01X-625602Y574040D01*
G01X-632968Y571500D01*
G01X-638048Y568960D01*
G01X-643128Y564134D01*
G01X-645414Y559054D01*
G01X-645414Y549148D01*
G01X-643128Y544068D01*
G01X-638048Y539242D01*
G01X-632968Y536702D01*
G01X-625602Y536702D01*
G01X-625602Y549148D02*
G01X-625602Y536702D01*
G01X-593090Y504444D02*
G01X-645414Y504444D01*
G01X-593090Y504444D02*
G01X-645414Y469646D01*
G01X-593090Y469646D02*
G01X-645414Y469646D01*
G01X-593090Y437388D02*
G01X-645414Y437388D01*
G01X-593090Y437388D02*
G01X-593090Y419862D01*
G01X-595630Y412496D01*
G01X-600710Y407416D01*
G01X-605790Y405130D01*
G01X-613156Y402590D01*
G01X-625602Y402590D01*
G01X-632968Y405130D01*
G01X-638048Y407416D01*
G01X-643128Y412496D01*
G01X-645414Y419862D01*
G01X-645414Y437388D01*
G01X-600710Y894588D02*
G01X-645414Y894588D01*
G01X-623062Y916940D02*
G01X-623062Y872236D01*
G01X-593090Y834898D02*
G01X-593090Y807720D01*
G01X-613156Y822452D01*
G01X-613156Y815086D01*
G01X-615696Y810006D01*
G01X-618236Y807720D01*
G01X-625602Y805180D01*
G01X-630682Y805180D01*
G01X-638048Y807720D01*
G01X-643128Y812546D01*
G01X-645414Y820166D01*
G01X-645414Y827532D01*
G01X-643128Y834898D01*
G01X-640588Y837438D01*
G01X-635508Y839978D01*
G01X-593090Y772922D02*
G01X-645414Y753110D01*
G01X-593090Y733044D02*
G01X-645414Y753110D01*
G01X-593090Y695706D02*
G01X-593090Y668528D01*
G01X-613156Y683260D01*
G01X-613156Y675894D01*
G01X-615696Y670814D01*
G01X-618236Y668528D01*
G01X-625602Y665988D01*
G01X-630682Y665988D01*
G01X-638048Y668528D01*
G01X-643128Y673354D01*
G01X-645414Y680974D01*
G01X-645414Y688340D01*
G01X-643128Y695706D01*
G01X-640588Y698246D01*
G01X-635508Y700786D01*
G01X605790Y504698D02*
G01X600710Y502158D01*
G01X595630Y497332D01*
G01X593090Y492252D01*
G01X593090Y482346D01*
G01X595630Y477266D01*
G01X600710Y472440D01*
G01X605790Y469900D01*
G01X613156Y467360D01*
G01X625602Y467360D01*
G01X632968Y469900D01*
G01X638048Y472440D01*
G01X643128Y477266D01*
G01X645414Y482346D01*
G01X645414Y492252D01*
G01X643128Y497332D01*
G01X638048Y502158D01*
G01X632968Y504698D01*
G01X600710Y571754D02*
G01X595630Y566928D01*
G01X593090Y559308D01*
G01X593090Y549402D01*
G01X595630Y542036D01*
G01X600710Y536956D01*
G01X605790Y536956D01*
G01X610616Y539496D01*
G01X613156Y542036D01*
G01X615696Y546862D01*
G01X620522Y561848D01*
G01X623062Y566928D01*
G01X625602Y569214D01*
G01X630682Y571754D01*
G01X638048Y571754D01*
G01X643128Y566928D01*
G01X645414Y559308D01*
G01X645414Y549402D01*
G01X643128Y542036D01*
G01X638048Y536956D01*
G01X593090Y200660D02*
G01X645414Y200660D01*
G01X593090Y200660D02*
G01X593090Y218186D01*
G01X595630Y225552D01*
G01X600710Y230632D01*
G01X605790Y232918D01*
G01X613156Y235458D01*
G01X625602Y235458D01*
G01X632968Y232918D01*
G01X638048Y230632D01*
G01X643128Y225552D01*
G01X645414Y218186D01*
G01X645414Y200660D01*
G01X605790Y305054D02*
G01X600710Y302514D01*
G01X595630Y297688D01*
G01X593090Y292608D01*
G01X593090Y282702D01*
G01X595630Y277622D01*
G01X600710Y272796D01*
G01X605790Y270256D01*
G01X613156Y267716D01*
G01X625602Y267716D01*
G01X632968Y270256D01*
G01X638048Y272796D01*
G01X643128Y277622D01*
G01X645414Y282702D01*
G01X645414Y292608D01*
G01X643128Y297688D01*
G01X638048Y302514D01*
G01X632968Y305054D01*
G01X600710Y-56642D02*
G01X595630Y-61468D01*
G01X593090Y-69088D01*
G01X593090Y-78994D01*
G01X595630Y-86360D01*
G01X600710Y-91440D01*
G01X605790Y-91440D01*
G01X610616Y-88900D01*
G01X613156Y-86360D01*
G01X615696Y-81534D01*
G01X620522Y-66548D01*
G01X623062Y-61468D01*
G01X625602Y-59182D01*
G01X630682Y-56642D01*
G01X638048Y-56642D01*
G01X643128Y-61468D01*
G01X645414Y-69088D01*
G01X645414Y-78994D01*
G01X643128Y-86360D01*
G01X638048Y-91440D01*
G01X593090Y-24384D02*
G01X645414Y-24384D01*
G01X593090Y-24384D02*
G01X593090Y-6858D01*
G01X595630Y508D01*
G01X600710Y5588D01*
G01X605790Y7874D01*
G01X613156Y10414D01*
G01X625602Y10414D01*
G01X632968Y7874D01*
G01X638048Y5588D01*
G01X643128Y508D01*
G01X645414Y-6858D01*
G01X645414Y-24384D01*
G01X593090Y62484D02*
G01X645414Y42672D01*
G01X593090Y62484D02*
G01X645414Y82550D01*
G01X628142Y50038D02*
G01X628142Y74930D01*
G01X600710Y-297942D02*
G01X595630Y-302768D01*
G01X593090Y-310388D01*
G01X593090Y-320294D01*
G01X595630Y-327660D01*
G01X600710Y-332740D01*
G01X605790Y-332740D01*
G01X610616Y-330200D01*
G01X613156Y-327660D01*
G01X615696Y-322834D01*
G01X620522Y-307848D01*
G01X623062Y-302768D01*
G01X625602Y-300482D01*
G01X630682Y-297942D01*
G01X638048Y-297942D01*
G01X643128Y-302768D01*
G01X645414Y-310388D01*
G01X645414Y-320294D01*
G01X643128Y-327660D01*
G01X638048Y-332740D01*
G01X605790Y-228346D02*
G01X600710Y-230886D01*
G01X595630Y-235712D01*
G01X593090Y-240792D01*
G01X593090Y-250698D01*
G01X595630Y-255778D01*
G01X600710Y-260604D01*
G01X605790Y-263144D01*
G01X613156Y-265684D01*
G01X625602Y-265684D01*
G01X632968Y-263144D01*
G01X638048Y-260604D01*
G01X643128Y-255778D01*
G01X645414Y-250698D01*
G01X645414Y-240792D01*
G01X643128Y-235712D01*
G01X638048Y-230886D01*
G01X632968Y-228346D01*
G01X593090Y-196088D02*
G01X645414Y-196088D01*
G01X645414Y-196088D02*
G01X645414Y-166116D01*
G01X605790Y-574802D02*
G01X600710Y-577342D01*
G01X595630Y-582168D01*
G01X593090Y-587248D01*
G01X593090Y-597154D01*
G01X595630Y-602234D01*
G01X600710Y-607060D01*
G01X605790Y-609600D01*
G01X613156Y-612140D01*
G01X625602Y-612140D01*
G01X632968Y-609600D01*
G01X638048Y-607060D01*
G01X643128Y-602234D01*
G01X645414Y-597154D01*
G01X645414Y-587248D01*
G01X643128Y-582168D01*
G01X638048Y-577342D01*
G01X632968Y-574802D01*
G01X625602Y-574802D01*
G01X625602Y-587248D02*
G01X625602Y-574802D01*
G01X593090Y-542544D02*
G01X645414Y-542544D01*
G01X593090Y-542544D02*
G01X645414Y-507746D01*
G01X593090Y-507746D02*
G01X645414Y-507746D01*
G01X593090Y-475488D02*
G01X645414Y-475488D01*
G01X593090Y-475488D02*
G01X593090Y-457962D01*
G01X595630Y-450596D01*
G01X600710Y-445516D01*
G01X605790Y-443230D01*
G01X613156Y-440690D01*
G01X625602Y-440690D01*
G01X632968Y-443230D01*
G01X638048Y-445516D01*
G01X643128Y-450596D01*
G01X645414Y-457962D01*
G01X645414Y-475488D01*
G01X613410Y-894588D02*
G01X658114Y-894588D01*
G01X635762Y-916940D02*
G01X635762Y-872236D01*
G01X605790Y-834898D02*
G01X605790Y-807720D01*
G01X625856Y-822452D01*
G01X625856Y-815086D01*
G01X628396Y-810006D01*
G01X630936Y-807720D01*
G01X638302Y-805180D01*
G01X643382Y-805180D01*
G01X650748Y-807720D01*
G01X655828Y-812546D01*
G01X658114Y-820166D01*
G01X658114Y-827532D01*
G01X655828Y-834898D01*
G01X653288Y-837438D01*
G01X648208Y-839978D01*
G01X605790Y-772922D02*
G01X658114Y-753110D01*
G01X605790Y-733044D02*
G01X658114Y-753110D01*
G01X605790Y-695706D02*
G01X605790Y-668528D01*
G01X625856Y-683260D01*
G01X625856Y-675894D01*
G01X628396Y-670814D01*
G01X630936Y-668528D01*
G01X638302Y-665988D01*
G01X643382Y-665988D01*
G01X650748Y-668528D01*
G01X655828Y-673354D01*
G01X658114Y-680974D01*
G01X658114Y-688340D01*
G01X655828Y-695706D01*
G01X653288Y-698246D01*
G01X648208Y-700786D01*
G54D11*
G01X1046734Y-274320D02*
G01X981710Y-274320D01*
G01X1046734Y-274320D02*
G01X1046734Y-302260D01*
G01X1043686Y-311404D01*
G01X1040638Y-314452D01*
G01X1034288Y-317754D01*
G01X1028192Y-317754D01*
G01X1022096Y-314452D01*
G01X1019048Y-311404D01*
G01X1015746Y-302260D01*
G01X1015746Y-274320D01*
G01X1015746Y-295910D02*
G01X981710Y-317754D01*
G01X1046734Y-347980D02*
G01X981710Y-347980D01*
G01X1031240Y-424434D02*
G01X1037590Y-421386D01*
G01X1043686Y-415290D01*
G01X1046734Y-408940D01*
G01X1046734Y-396748D01*
G01X1043686Y-390398D01*
G01X1037590Y-384302D01*
G01X1031240Y-381254D01*
G01X1022096Y-378206D01*
G01X1006602Y-378206D01*
G01X997204Y-381254D01*
G01X991108Y-384302D01*
G01X984758Y-390398D01*
G01X981710Y-396748D01*
G01X981710Y-408940D01*
G01X984758Y-415290D01*
G01X991108Y-421386D01*
G01X997204Y-424434D01*
G01X1006602Y-424434D01*
G01X1006602Y-408940D02*
G01X1006602Y-424434D01*
G01X1046734Y-454660D02*
G01X981710Y-454660D01*
G01X1046734Y-497840D02*
G01X981710Y-497840D01*
G01X1015746Y-454660D02*
G01X1015746Y-497840D01*
G01X1046734Y-549656D02*
G01X981710Y-549656D01*
G01X1046734Y-528066D02*
G01X1046734Y-571246D01*
G01X960120Y-601472D02*
G01X960120Y-657098D01*
G01X1046734Y-687324D02*
G01X981710Y-687324D01*
G01X1046734Y-687324D02*
G01X1046734Y-727456D01*
G01X1015746Y-687324D02*
G01X1015746Y-711962D01*
G01X981710Y-687324D02*
G01X981710Y-727456D01*
G01X1046734Y-757682D02*
G01X1015746Y-782320D01*
G01X981710Y-782320D01*
G01X1046734Y-807212D02*
G01X1015746Y-782320D01*
G01X1046734Y-837438D02*
G01X981710Y-837438D01*
G01X1046734Y-837438D02*
G01X1046734Y-877570D01*
G01X1015746Y-837438D02*
G01X1015746Y-862076D01*
G01X981710Y-837438D02*
G01X981710Y-877570D01*
G01X-1084834Y-881380D02*
G01X-1019810Y-881380D01*
G01X-1019810Y-881380D02*
G01X-1019810Y-844296D01*
G01X-1084834Y-814070D02*
G01X-1019810Y-814070D01*
G01X-1084834Y-814070D02*
G01X-1084834Y-773938D01*
G01X-1053846Y-814070D02*
G01X-1053846Y-789432D01*
G01X-1019810Y-814070D02*
G01X-1019810Y-773938D01*
G01X-1084834Y-743712D02*
G01X-1019810Y-743712D01*
G01X-1084834Y-743712D02*
G01X-1084834Y-703580D01*
G01X-1053846Y-743712D02*
G01X-1053846Y-719074D01*
G01X-1084834Y-651764D02*
G01X-1019810Y-651764D01*
G01X-1084834Y-673354D02*
G01X-1084834Y-630174D01*
G01X-998220Y-599948D02*
G01X-998220Y-544322D01*
G01X-1084834Y-514096D02*
G01X-1019810Y-514096D01*
G01X-1084834Y-514096D02*
G01X-1084834Y-473964D01*
G01X-1053846Y-514096D02*
G01X-1053846Y-489458D01*
G01X-1019810Y-514096D02*
G01X-1019810Y-473964D01*
G01X-1084834Y-443738D02*
G01X-1053846Y-419100D01*
G01X-1019810Y-419100D01*
G01X-1084834Y-394208D02*
G01X-1053846Y-419100D01*
G01X-1084834Y-363982D02*
G01X-1019810Y-363982D01*
G01X-1084834Y-363982D02*
G01X-1084834Y-323850D01*
G01X-1053846Y-363982D02*
G01X-1053846Y-339344D01*
G01X-1019810Y-363982D02*
G01X-1019810Y-323850D01*
G04 Text End*

G04 PolygonModel Start*
G54D12*
G01X937798Y634997D02*
G01X687799Y634997D01*
G01X687799Y888997D02*
G01X687799Y-888997D01*
G01X937798Y888997D02*
G01X687799Y888997D01*
G01X687799Y-888997D02*
G01X937798Y-888997D01*
G01X937798Y-888997D02*
G01X937798Y888997D01*
G01X-937798Y-634997D02*
G01X-687799Y-634997D01*
G01X-687799Y-888997D02*
G01X-687799Y888997D01*
G01X-937798Y-888997D02*
G01X-687799Y-888997D01*
G01X-687799Y888997D02*
G01X-937798Y888997D01*
G01X-937798Y888997D02*
G01X-937798Y-888997D01*

M02*

